SplineFontDB: 3.2
FontName: ATM622-Regular
FullName: ATM622-Regular
FamilyName: ATM 622
Weight: Book
Copyright: AzhaguThamizh
Version: 1.001
ItalicAngle: -11
UnderlinePosition: -271
UnderlineWidth: 102
Ascent: 1600
Descent: 400
InvalidEm: 0
sfntRevision: 0x00010042
LayerCount: 2
Layer: 0 1 "Back" 1
Layer: 1 1 "Fore" 0
XUID: [1021 192 2086997156 17575]
StyleMap: 0x0040
FSType: 8
OS2Version: 3
OS2_WeightWidthSlopeOnly: 0
OS2_UseTypoMetrics: 0
CreationTime: 1537168995
ModificationTime: 1545714970
PfmFamily: 17
TTFWeight: 400
TTFWidth: 5
LineGap: 0
VLineGap: 0
Panose: 2 11 6 4 2 2 2 2 2 4
OS2TypoAscent: 2000
OS2TypoAOffset: 0
OS2TypoDescent: -1320
OS2TypoDOffset: 0
OS2TypoLinegap: 0
OS2WinAscent: 2000
OS2WinAOffset: 0
OS2WinDescent: 744
OS2WinDOffset: 0
HheadAscent: 2000
HheadAOffset: 0
HheadDescent: -1320
HheadDOffset: 0
OS2SubXSize: 1400
OS2SubYSize: 1300
OS2SubXOff: 0
OS2SubYOff: 0
OS2SupXSize: 1400
OS2SupYSize: 1300
OS2SupXOff: 0
OS2SupYOff: 0
OS2StrikeYSize: 100
OS2StrikeYPos: 518
OS2CapHeight: 1586
OS2XHeight: -200
OS2Vendor: '    '
OS2CodePages: 00000001.00000000
OS2UnicodeRanges: 00100003.00000000.00000000.00000000
Lookup: 4 0 0 "'akhn' Akhand in Tamil2 lookup 0" { "'akhn' Akhand in Tamil2 lookup 0 subtable"  } ['akhn' ('tml2' <'dflt' > ) ]
Lookup: 4 0 0 "'akhn' Akhand in Tamil lookup 1" { "'akhn' Akhand in Tamil lookup 1 subtable"  } ['akhn' ('taml' <'dflt' > ) ]
Lookup: 4 0 0 "'half' Half Forms in Tamil lookup 2" { "'half' Half Forms in Tamil lookup 2 subtable"  } ['half' ('taml' <'dflt' > ) ]
Lookup: 4 0 0 "'haln' Halant Forms in Tamil2 lookup 3" { "'haln' Halant Forms in Tamil2 lookup 3 subtable"  } ['haln' ('tml2' <'dflt' > ) ]
Lookup: 4 0 0 "'haln' Halant Forms in Tamil lookup 4" { "'haln' Halant Forms in Tamil lookup 4 subtable"  } ['haln' ('taml' <'dflt' > ) ]
Lookup: 4 0 0 "'abvs' Above Base Substitutions lookup 5" { "'abvs' Above Base Substitutions lookup 5 subtable"  } ['abvs' ('taml' <'dflt' > 'tml2' <'dflt' > ) ]

StartChar: .notdef
Encoding: 65536 -1 0
Width: 1600
Flags: W
LayerCount: 2
Fore
SplineSet
100 0 m 1,0,-1
 100 1600 l 1,1,-1
 1500 1600 l 1,2,-1
 1500 0 l 1,3,-1
 100 0 l 1,0,-1
1400 100 m 1,4,-1
 1400 1500 l 1,5,-1
 200 1500 l 1,6,-1
 200 100 l 1,7,-1
 1400 100 l 1,4,-1
EndSplineSet
EndChar

StartChar: exclam
Encoding: 33 33 4
Width: 488
GlyphClass: 2
Flags: W
LayerCount: 2
Fore
SplineSet
354 1134 m 1,0,-1
 310 730 l 1,1,-1
 288 480 l 1,2,-1
 282 242 l 1,3,-1
 236 242 l 1,4,-1
 212 250 l 1,5,6
 130 992 130 992 130 1184 c 1,7,8
 210 1174 210 1174 354 1134 c 1,0,-1
418 96 m 1,9,-1
 404 -4 l 2,10,11
 392 -64 392 -64 360 -88 c 1,12,13
 298 -118 298 -118 244 -128 c 0,14,15
 222 -132 222 -132 150 -76 c 0,16,17
 108 -46 108 -46 89 -20 c 128,-1,18
 70 6 70 6 70 30 c 0,19,20
 70 46 70 46 105 109 c 128,-1,21
 140 172 140 172 178 200 c 1,22,23
 346 200 346 200 418 96 c 1,9,-1
EndSplineSet
EndChar

StartChar: quotedbl
Encoding: 34 34 5
Width: 710
GlyphClass: 2
Flags: W
LayerCount: 2
Fore
SplineSet
140 924 m 1,0,-1
 92 1198 l 1,1,-1
 92 1432 l 1,2,-1
 292 1432 l 1,3,-1
 292 1198 l 1,4,-1
 248 924 l 1,5,-1
 140 924 l 1,0,-1
464 924 m 1,6,-1
 416 1198 l 1,7,-1
 416 1432 l 1,8,-1
 616 1432 l 1,9,-1
 616 1198 l 1,10,-1
 570 924 l 1,11,-1
 464 924 l 1,6,-1
EndSplineSet
EndChar

StartChar: numbersign
Encoding: 35 35 6
Width: 1112
GlyphClass: 2
Flags: W
LayerCount: 2
Fore
SplineSet
100 -24 m 1,0,-1
 186 392 l 1,1,-1
 20 392 l 1,2,-1
 20 538 l 1,3,-1
 214 538 l 1,4,-1
 288 892 l 1,5,-1
 20 892 l 1,6,-1
 20 1038 l 1,7,-1
 316 1038 l 1,8,-1
 402 1456 l 1,9,-1
 548 1456 l 1,10,-1
 462 1038 l 1,11,-1
 770 1038 l 1,12,-1
 856 1456 l 1,13,-1
 1002 1456 l 1,14,-1
 918 1038 l 1,15,-1
 1086 1038 l 1,16,-1
 1086 892 l 1,17,-1
 888 892 l 1,18,-1
 816 538 l 1,19,-1
 1086 538 l 1,20,-1
 1086 392 l 1,21,-1
 786 392 l 1,22,-1
 702 -24 l 1,23,-1
 554 -24 l 1,24,-1
 638 392 l 1,25,-1
 332 392 l 1,26,-1
 248 -24 l 1,27,-1
 100 -24 l 1,0,-1
362 538 m 1,28,-1
 668 538 l 1,29,-1
 742 892 l 1,30,-1
 434 892 l 1,31,-1
 362 538 l 1,28,-1
EndSplineSet
EndChar

StartChar: dollar
Encoding: 36 36 7
Width: 1112
GlyphClass: 2
Flags: W
LayerCount: 2
Fore
SplineSet
498 -206 m 1,0,-1
 498 -30 l 1,1,2
 372 -18 372 -18 291 24 c 128,-1,3
 210 66 210 66 140 166 c 0,4,5
 86 248 86 248 72 398 c 1,6,-1
 248 430 l 1,7,8
 266 300 266 300 320 222 c 1,9,10
 392 132 392 132 498 118 c 1,11,-1
 498 678 l 1,12,13
 462 682 462 682 444 686 c 128,-1,14
 426 690 426 690 390 706 c 0,15,16
 332 728 332 728 276 762 c 0,17,18
 206 804 206 804 146 892 c 1,19,-1
 114 980 l 1,20,21
 102 1028 102 1028 102 1080 c 0,22,23
 102 1258 102 1258 234 1384 c 1,24,25
 318 1456 318 1456 498 1480 c 1,26,-1
 498 1564 l 1,27,-1
 602 1564 l 1,28,-1
 602 1480 l 1,29,30
 632 1480 632 1480 662 1477 c 128,-1,31
 692 1474 692 1474 740 1456 c 128,-1,32
 788 1438 788 1438 844 1390 c 0,33,34
 950 1298 950 1298 984 1126 c 1,35,-1
 802 1100 l 1,36,37
 790 1200 790 1200 736 1256 c 1,38,39
 696 1304 696 1304 602 1332 c 1,40,-1
 602 824 l 1,41,42
 750 790 750 790 778 772 c 1,43,44
 852 744 852 744 908 688 c 0,45,46
 958 638 958 638 988 563 c 128,-1,47
 1018 488 1018 488 1018 408 c 0,48,49
 1018 224 1018 224 902 102 c 0,50,51
 848 42 848 42 768 7 c 128,-1,52
 688 -28 688 -28 602 -28 c 1,53,-1
 602 -206 l 1,54,-1
 498 -206 l 1,0,-1
498 1334 m 1,55,56
 396 1322 396 1322 336 1250 c 1,57,58
 278 1188 278 1188 278 1094 c 0,59,60
 278 1012 278 1012 326 942 c 1,61,62
 374 884 374 884 498 846 c 1,63,-1
 498 1334 l 1,55,56
602 118 m 1,64,65
 706 130 706 130 772 208 c 128,-1,66
 838 286 838 286 838 396 c 0,67,68
 838 488 838 488 792 542 c 1,69,70
 752 598 752 598 602 654 c 1,71,-1
 602 118 l 1,64,65
EndSplineSet
EndChar

StartChar: percent
Encoding: 37 37 8
Width: 1778
GlyphClass: 2
Flags: W
LayerCount: 2
Fore
SplineSet
116 1088 m 1,0,1
 116 1240 116 1240 193 1348 c 128,-1,2
 270 1456 270 1456 416 1456 c 0,3,4
 548 1456 548 1456 638 1359 c 128,-1,5
 728 1262 728 1262 728 1078 c 0,6,7
 728 902 728 902 639 801 c 128,-1,8
 550 700 550 700 418 700 c 0,9,10
 292 700 292 700 202 796 c 0,11,12
 170 834 170 834 138 916 c 1,13,-1
 122 992 l 1,14,-1
 116 1088 l 1,0,1
422 1334 m 0,15,16
 356 1334 356 1334 313 1279 c 128,-1,17
 270 1224 270 1224 270 1070 c 0,18,19
 270 940 270 940 312 876 c 1,20,21
 356 820 356 820 422 820 c 0,22,23
 486 820 486 820 531 881 c 128,-1,24
 576 942 576 942 576 1084 c 0,25,26
 576 1218 576 1218 533 1276 c 128,-1,27
 490 1334 490 1334 422 1334 c 0,15,16
422 -52 m 1,28,-1
 1206 1456 l 1,29,-1
 1348 1456 l 1,30,-1
 568 -52 l 1,31,-1
 422 -52 l 1,28,-1
1042 336 m 1,32,33
 1042 490 1042 490 1119 597 c 128,-1,34
 1196 704 1196 704 1344 704 c 0,35,36
 1476 704 1476 704 1566 608 c 128,-1,37
 1656 512 1656 512 1656 326 c 0,38,39
 1656 148 1656 148 1565 48 c 128,-1,40
 1474 -52 1474 -52 1344 -52 c 0,41,42
 1218 -52 1218 -52 1128 44 c 0,43,44
 1096 82 1096 82 1064 164 c 1,45,-1
 1048 240 l 1,46,-1
 1042 336 l 1,32,33
1348 584 m 0,47,48
 1284 584 1284 584 1240 528 c 128,-1,49
 1196 472 1196 472 1196 318 c 0,50,51
 1196 190 1196 190 1238 124 c 1,52,53
 1282 68 1282 68 1348 68 c 256,54,55
 1414 68 1414 68 1458 124 c 128,-1,56
 1502 180 1502 180 1502 332 c 0,57,58
 1502 472 1502 472 1456 526 c 1,59,60
 1414 584 1414 584 1348 584 c 0,47,48
EndSplineSet
EndChar

StartChar: ampersand
Encoding: 38 38 9
Width: 1334
GlyphClass: 2
Flags: W
LayerCount: 2
Fore
SplineSet
950 168 m 1,0,1
 866 72 866 72 761 24 c 128,-1,2
 656 -24 656 -24 540 -24 c 0,3,4
 318 -24 318 -24 190 124 c 0,5,6
 86 246 86 246 86 394 c 0,7,8
 86 526 86 526 170 634 c 128,-1,9
 254 742 254 742 426 822 c 1,10,11
 340 922 340 922 298 998 c 1,12,13
 266 1078 266 1078 266 1136 c 0,14,15
 266 1266 266 1266 367 1361 c 128,-1,16
 468 1456 468 1456 622 1456 c 0,17,18
 758 1456 758 1456 856 1366 c 128,-1,19
 954 1276 954 1276 954 1150 c 0,20,21
 954 946 954 946 684 802 c 1,22,-1
 940 474 l 1,23,24
 974 548 974 548 1008 674 c 1,25,-1
 1192 634 l 1,26,27
 1144 448 1144 448 1064 326 c 1,28,29
 1158 202 1158 202 1288 106 c 1,30,-1
 1170 -34 l 1,31,32
 1068 32 1068 32 950 168 c 1,0,1
592 916 m 1,33,34
 698 976 698 976 738 1030 c 0,35,36
 774 1084 774 1084 774 1146 c 0,37,38
 774 1218 774 1218 728 1265 c 128,-1,39
 682 1312 682 1312 612 1312 c 0,40,41
 546 1312 546 1312 496 1266 c 128,-1,42
 446 1220 446 1220 446 1154 c 1,43,-1
 448 1122 l 1,44,-1
 460 1090 l 1,45,-1
 482 1048 l 1,46,-1
 514 1006 l 1,47,-1
 592 916 l 1,33,34
840 308 m 1,48,-1
 518 708 l 1,49,50
 372 622 372 622 326 548 c 0,51,52
 306 516 306 516 291 475 c 128,-1,53
 276 434 276 434 276 406 c 0,54,55
 276 318 276 318 345 224 c 128,-1,56
 414 130 414 130 542 130 c 0,57,58
 618 130 618 130 703 179 c 128,-1,59
 788 228 788 228 840 308 c 1,48,-1
EndSplineSet
EndChar

StartChar: quotesingle
Encoding: 39 39 10
Width: 382
GlyphClass: 2
Flags: W
LayerCount: 2
Fore
SplineSet
132 924 m 1,0,-1
 88 1192 l 1,1,-1
 88 1432 l 1,2,-1
 288 1432 l 1,3,-1
 288 1192 l 1,4,-1
 242 924 l 1,5,-1
 132 924 l 1,0,-1
EndSplineSet
EndChar

StartChar: parenleft
Encoding: 40 40 11
Width: 696
GlyphClass: 2
Flags: W
LayerCount: 2
Fore
SplineSet
666 1200 m 1,0,-1
 492 1032 l 1,1,2
 378 912 378 912 304 768 c 0,3,4
 258 676 258 676 232 579 c 128,-1,5
 206 482 206 482 206 378 c 1,6,7
 230 200 230 200 378 -24 c 0,8,9
 516 -236 516 -236 628 -298 c 1,10,-1
 586 -370 l 1,11,12
 496 -324 496 -324 338 -172 c 0,13,14
 256 -94 256 -94 197 -24 c 128,-1,15
 138 46 138 46 96 108 c 1,16,17
 70 264 70 264 70 400 c 0,18,19
 70 544 70 544 90 666 c 1,20,21
 226 914 226 914 420 1108 c 1,22,-1
 596 1260 l 1,23,-1
 624 1234 l 1,24,-1
 666 1200 l 1,0,-1
EndSplineSet
EndChar

StartChar: parenright
Encoding: 41 41 12
Width: 616
GlyphClass: 2
Flags: W
LayerCount: 2
Fore
SplineSet
586 598 m 1,0,-1
 560 378 l 2,1,2
 542 244 542 244 500 130 c 1,3,4
 428 22 428 22 264 -170 c 2,5,-1
 80 -386 l 1,6,-1
 0 -340 l 1,7,-1
 168 -146 l 1,8,9
 348 76 348 76 396 198 c 1,10,11
 430 402 430 402 430 552 c 0,12,13
 430 682 430 682 406 784 c 1,14,15
 290 958 290 958 34 1170 c 1,16,-1
 156 1272 l 1,17,-1
 356 1038 l 1,18,19
 526 814 526 814 586 598 c 1,0,-1
EndSplineSet
EndChar

StartChar: asterisk
Encoding: 42 42 13
Width: 778
GlyphClass: 2
Flags: W
LayerCount: 2
Fore
SplineSet
62 1168 m 1,0,-1
 108 1308 l 1,1,2
 248 1262 248 1262 334 1212 c 1,3,-1
 314 1456 l 1,4,-1
 456 1456 l 1,5,-1
 456 1388 l 1,6,-1
 448 1342 l 1,7,-1
 432 1214 l 1,8,-1
 534 1260 l 1,9,-1
 664 1308 l 1,10,-1
 708 1168 l 1,11,12
 586 1132 586 1132 464 1114 c 1,13,14
 534 1056 534 1056 632 930 c 1,15,-1
 516 846 l 1,16,17
 474 904 474 904 382 1056 c 1,18,19
 308 914 308 914 254 846 c 1,20,-1
 140 930 l 1,21,-1
 232 1040 l 2,22,23
 250 1062 250 1062 254 1066 c 0,24,25
 276 1090 276 1090 302 1114 c 1,26,27
 176 1138 176 1138 62 1168 c 1,0,-1
EndSplineSet
EndChar

StartChar: plus
Encoding: 43 43 14
Width: 1168
GlyphClass: 2
Flags: W
LayerCount: 2
Fore
SplineSet
500 232 m 1,0,-1
 500 624 l 1,1,-1
 112 624 l 1,2,-1
 112 788 l 1,3,-1
 500 788 l 1,4,-1
 500 1178 l 1,5,-1
 666 1178 l 1,6,-1
 666 788 l 1,7,-1
 1056 788 l 1,8,-1
 1056 624 l 1,9,-1
 666 624 l 1,10,-1
 666 232 l 1,11,-1
 500 232 l 1,0,-1
EndSplineSet
EndChar

StartChar: comma
Encoding: 44 44 15
Width: 602
GlyphClass: 2
Flags: W
LayerCount: 2
Fore
SplineSet
474 102 m 1,0,1
 408 -28 408 -28 150 -228 c 1,2,3
 134 -216 134 -216 106 -170 c 1,4,5
 258 -50 258 -50 308 46 c 1,6,-1
 246 26 l 1,7,8
 210 26 210 26 178 36 c 2,9,-1
 106 68 l 1,10,11
 84 98 84 98 72 144 c 0,12,13
 64 186 64 186 62 196 c 0,14,15
 62 224 62 224 62 236 c 0,16,17
 74 288 74 288 122 328 c 0,18,19
 170 364 170 364 240 376 c 1,20,21
 358 364 358 364 416 318 c 1,22,23
 430 300 430 300 437 284 c 128,-1,24
 444 268 444 268 459 221 c 128,-1,25
 474 174 474 174 474 102 c 1,0,1
EndSplineSet
EndChar

StartChar: hyphen
Encoding: 45 45 16
Width: 666
GlyphClass: 2
Flags: W
LayerCount: 2
Fore
SplineSet
64 430 m 1,0,-1
 64 606 l 1,1,-1
 604 606 l 1,2,-1
 604 430 l 1,3,-1
 64 430 l 1,0,-1
EndSplineSet
EndChar

StartChar: period
Encoding: 46 46 17
Width: 652
GlyphClass: 2
Flags: W
LayerCount: 2
Fore
SplineSet
480 240 m 0,0,1
 480 136 480 136 378 22 c 1,2,-1
 288 16 l 1,3,-1
 210 22 l 1,4,5
 130 80 130 80 92 140 c 1,6,-1
 88 190 l 1,7,8
 88 242 88 242 108 284 c 1,9,10
 178 374 178 374 260 392 c 1,11,12
 378 374 378 374 404 358 c 0,13,14
 480 324 480 324 480 240 c 0,0,1
EndSplineSet
EndChar

StartChar: slash
Encoding: 47 47 18
Width: 400
GlyphClass: 2
Flags: W
LayerCount: 2
Fore
SplineSet
648 984 m 1,0,1
 590 906 590 906 474 711 c 128,-1,2
 358 516 358 516 188 210 c 2,3,-1
 -142 -396 l 1,4,-1
 -224 -316 l 1,5,6
 -128 -170 -128 -170 168 400 c 0,7,8
 442 936 442 936 528 1062 c 1,9,-1
 648 984 l 1,0,1
EndSplineSet
EndChar

StartChar: zero
Encoding: 48 48 19
Width: 1067
GlyphClass: 2
Flags: W
LayerCount: 2
Fore
SplineSet
1001 453 m 0,0,1
 1001 319 1001 319 891.5 173 c 128,-1,2
 782 27 782 27 636 -46 c 1,3,4
 581 -46 581 -46 517 -36 c 128,-1,5
 453 -26 453 -26 371 -6 c 0,6,7
 251 22 251 22 189 54 c 1,8,9
 63 218 63 218 63 431 c 1,10,11
 106 576 106 576 240.5 689.5 c 128,-1,12
 375 803 375 803 554 841 c 1,13,-1
 738 766 l 1,14,15
 810 732 810 732 830 718 c 0,16,17
 1001 612 1001 612 1001 453 c 0,0,1
832 265 m 1,18,19
 843 309 843 309 843 363 c 0,20,21
 843 505 843 505 774 636 c 1,22,23
 670 688 670 688 556 688 c 0,24,25
 536 688 536 688 526 688 c 128,-1,26
 516 688 516 688 469 680 c 0,27,28
 453 678 453 678 422 674 c 128,-1,29
 391 670 391 670 343 657 c 1,30,31
 215 538 215 538 215 347 c 0,32,33
 215 327 215 327 215 310.5 c 128,-1,34
 215 294 215 294 217.5 271.5 c 128,-1,35
 220 249 220 249 235 206 c 1,36,37
 278 157 278 157 365.5 118.5 c 128,-1,38
 453 80 453 80 552 80 c 0,39,40
 576 80 576 80 599 81.5 c 128,-1,41
 622 83 622 83 642 88 c 0,42,43
 774 142 774 142 832 265 c 1,18,19
EndSplineSet
EndChar

StartChar: one
Encoding: 49 49 20
Width: 471
GlyphClass: 2
Flags: W
LayerCount: 2
Fore
SplineSet
408 846 m 1,0,-1
 381 439 l 1,1,-1
 351 -20 l 1,2,-1
 215 -46 l 1,3,-1
 215 637 l 1,4,-1
 42 583 l 1,5,-1
 27 676 l 1,6,7
 135 748 135 748 180 792 c 0,8,9
 209 818 209 818 237 874 c 1,10,-1
 408 846 l 1,0,-1
EndSplineSet
EndChar

StartChar: two
Encoding: 50 50 21
Width: 1009
GlyphClass: 2
Flags: W
LayerCount: 2
Fore
SplineSet
949 197 m 1,0,1
 944 141 944 141 915 40 c 1,2,-1
 816 44 l 2,3,4
 787 44 787 44 727.5 40 c 128,-1,5
 668 36 668 36 634 36 c 0,6,7
 594 36 594 36 544.5 30 c 128,-1,8
 495 24 495 24 435 12 c 0,9,10
 233 -18 233 -18 164 -54 c 1,11,12
 117 2 117 2 63 159 c 1,13,-1
 397 307 l 2,14,15
 621 405 621 405 720 498 c 1,16,-1
 724 558 l 2,17,18
 724 594 724 594 717 634.5 c 128,-1,19
 710 675 710 675 693 714 c 1,20,21
 612 736 612 736 518 736 c 0,22,23
 377 736 377 736 291 693 c 1,24,25
 253 630 253 630 253 527 c 2,26,-1
 253 477 l 1,27,-1
 260 449 l 1,28,-1
 128 417 l 1,29,30
 106 444 106 444 96 520 c 2,31,-1
 78 670 l 2,32,33
 78 696 78 696 195 770 c 0,34,35
 323 852 323 852 469 881 c 1,36,37
 558 881 558 881 655 834.5 c 128,-1,38
 752 788 752 788 872 696 c 1,39,-1
 879 610 l 1,40,41
 879 529 879 529 846 415 c 1,42,43
 780 375 780 375 710 339 c 128,-1,44
 640 303 640 303 563.5 268 c 128,-1,45
 487 233 487 233 424 206 c 0,46,47
 397 195 397 195 275 146 c 1,48,49
 275 108 275 108 283 85 c 1,50,51
 333 116 333 116 949 197 c 1,0,1
EndSplineSet
EndChar

StartChar: three
Encoding: 51 51 22
Width: 908
GlyphClass: 2
Flags: W
LayerCount: 2
Fore
SplineSet
845 388 m 1,0,1
 845 303 845 303 822.5 231 c 128,-1,2
 800 159 800 159 756 88 c 1,3,4
 612 32 612 32 345 -18 c 1,5,-1
 68 -54 l 1,6,-1
 26 72 l 1,7,8
 182 88 182 88 289 104 c 0,9,10
 527 142 527 142 648 211 c 1,11,-1
 666 349 l 1,12,13
 563 419 563 419 385 419 c 1,14,-1
 311 417 l 1,15,-1
 263 415 l 1,16,-1
 245 516 l 1,17,-1
 408 561 l 1,18,19
 554 614 554 614 549 675 c 1,20,21
 516 722 516 722 406 750 c 0,22,23
 349 766 349 766 282 773 c 128,-1,24
 215 780 215 780 117 780 c 1,25,-1
 144 874 l 1,26,-1
 204 875 l 2,27,28
 275 875 275 875 343 869.5 c 128,-1,29
 411 864 411 864 498 850 c 0,30,31
 662 826 662 826 766 780 c 1,32,-1
 769 730 l 1,33,-1
 764 670 l 1,34,-1
 746 608 l 1,35,36
 726 594 726 594 639 566 c 128,-1,37
 552 538 552 538 545 529 c 1,38,39
 586 523 586 523 662 487 c 0,40,41
 756 444 756 444 845 388 c 1,0,1
EndSplineSet
EndChar

StartChar: four
Encoding: 52 52 23
Width: 1031
GlyphClass: 2
Flags: W
LayerCount: 2
Fore
SplineSet
1003 408 m 1,0,-1
 975 303 l 1,1,2
 953 287 953 287 676 255 c 1,3,-1
 654 66 l 1,4,-1
 637 -108 l 1,5,6
 586 -98 586 -98 547 -64 c 1,7,-1
 550 20 l 2,8,9
 550 88 550 88 553 131.5 c 128,-1,10
 556 175 556 175 561 235 c 1,11,-1
 377 204 l 1,12,13
 249 188 249 188 215 188 c 1,14,-1
 128 251 l 1,15,16
 88 285 88 285 63 329 c 1,17,18
 63 417 63 417 184 648 c 1,19,20
 289 859 289 859 367 946 c 1,21,-1
 475 906 l 1,22,-1
 341 668 l 1,23,24
 260 502 260 502 243 363 c 1,25,26
 307 353 307 353 549 353 c 1,27,-1
 545 766 l 1,28,-1
 746 818 l 1,29,-1
 714 626 l 1,30,-1
 696 478 l 1,31,-1
 693 369 l 1,32,-1
 1003 408 l 1,0,-1
EndSplineSet
EndChar

StartChar: five
Encoding: 53 53 24
Width: 890
GlyphClass: 2
Flags: W
LayerCount: 2
Fore
SplineSet
828 774 m 1,0,-1
 583 752 l 2,1,2
 393 731 393 731 260 675 c 1,3,-1
 220 532 l 1,4,5
 319 606 319 606 449 637 c 1,6,-1
 487 642 l 1,7,8
 552 642 552 642 645 579 c 128,-1,9
 738 516 738 516 790 421 c 1,10,-1
 800 339 l 1,11,12
 800 261 800 261 744 128 c 1,13,14
 560 -46 560 -46 -119 -240 c 1,15,-1
 -202 -94 l 1,16,17
 421 -8 421 -8 648 193 c 1,18,-1
 655 278 l 1,19,20
 655 379 655 379 603 485 c 1,21,22
 554 496 554 496 487 496 c 0,23,24
 393 496 393 496 305 474.5 c 128,-1,25
 217 453 217 453 191 426 c 1,26,-1
 180 351 l 1,27,-1
 63 406 l 1,28,-1
 76 568 l 2,29,30
 76 604 76 604 78 638 c 128,-1,31
 80 672 80 672 86 715 c 128,-1,32
 92 758 92 758 106 794 c 1,33,34
 161 821 161 821 393 843 c 2,35,-1
 608 861 l 1,36,-1
 807 868 l 1,37,38
 821 823 821 823 828 774 c 1,0,-1
EndSplineSet
EndChar

StartChar: six
Encoding: 54 54 25
Width: 1018
GlyphClass: 2
Flags: W
LayerCount: 2
Fore
SplineSet
955 363 m 1,0,1
 944 243 944 243 866 106 c 1,2,3
 675 2 675 2 558 -26 c 1,4,5
 451 -26 451 -26 364.5 1 c 128,-1,6
 278 28 278 28 200 78 c 1,7,8
 139 150 139 150 101 234.5 c 128,-1,9
 63 319 63 319 63 408 c 1,10,11
 103 534 103 534 242 704 c 0,12,13
 309 787 309 787 405 874 c 0,14,15
 491 953 491 953 598 1029 c 1,16,-1
 686 977 l 1,17,18
 599 904 599 904 474 772 c 128,-1,19
 349 640 349 640 314 567 c 1,20,21
 343 598 343 598 449 628 c 0,22,23
 471 634 471 634 496.5 637 c 128,-1,24
 522 640 522 640 536 642 c 2,25,-1
 622 648 l 1,26,27
 702 621 702 621 792 556 c 0,28,29
 899 473 899 473 955 363 c 1,0,1
760 182 m 1,30,31
 780 247 780 247 780 313 c 0,32,33
 780 417 780 417 744 489 c 1,34,35
 657 527 657 527 547 527 c 0,36,37
 415 527 415 527 275 475 c 1,38,39
 256 437 256 437 229 283 c 1,40,41
 256 207 256 207 409 98 c 1,42,-1
 453 94 l 1,43,44
 556 94 556 94 760 182 c 1,30,31
EndSplineSet
EndChar

StartChar: seven
Encoding: 55 55 26
Width: 828
GlyphClass: 2
Flags: W
LayerCount: 2
Fore
SplineSet
802 637 m 1,0,1
 619 493 619 493 453 231 c 0,2,3
 311 0 311 0 283 -159 c 1,4,5
 220 -148 220 -148 179 -119 c 1,6,7
 237 108 237 108 373 347 c 0,8,9
 435 451 435 451 492.5 530.5 c 128,-1,10
 550 610 550 610 616 676 c 1,11,12
 532 676 532 676 441.5 664 c 128,-1,13
 351 652 351 652 255 622 c 1,14,15
 74 574 74 574 36 538 c 1,16,-1
 30 606 l 1,17,-1
 28 657 l 2,18,19
 28 714 28 714 36 746 c 1,20,21
 258 784 258 784 482 784 c 1,22,-1
 612 778 l 1,23,-1
 748 772 l 1,24,25
 780 724 780 724 802 637 c 1,0,1
EndSplineSet
EndChar

StartChar: eight
Encoding: 56 56 27
Width: 915
GlyphClass: 2
Flags: W
LayerCount: 2
Fore
SplineSet
1018 820 m 1,0,1
 686 594 686 594 525 437 c 1,2,-1
 692 361 l 2,3,4
 814 307 814 307 843 260 c 1,5,-1
 850 173 l 1,6,7
 850 98 850 98 808 34 c 1,8,9
 678 -58 678 -58 503 -85 c 1,10,-1
 415 -80 l 2,11,12
 381 -80 381 -80 353 -70 c 1,13,14
 258 -60 258 -60 199 -34 c 1,15,16
 96 47 96 47 63 159 c 1,17,18
 63 175 63 175 123 238 c 1,19,-1
 275 383 l 1,20,-1
 249 387 l 1,21,-1
 229 385 l 1,22,-1
 186 387 l 1,23,24
 106 433 106 433 80 545 c 1,25,26
 96 603 96 603 217 692 c 0,27,28
 276 734 276 734 337.5 763 c 128,-1,29
 399 792 399 792 465 808 c 1,30,31
 531 800 531 800 594 750 c 1,32,-1
 675 676 l 1,33,34
 843 792 843 792 946 895 c 1,35,36
 977 877 977 877 1018 820 c 1,0,1
612 642 m 1,37,38
 552 696 552 696 377 696 c 1,39,-1
 309 632 l 2,40,41
 281 604 281 604 273 558 c 1,42,43
 303 531 303 531 411 484 c 1,44,45
 477 523 477 523 612 642 c 1,37,38
700 101 m 1,46,-1
 702 128 l 2,47,48
 702 177 702 177 648 294 c 1,49,-1
 439 359 l 1,50,-1
 341 263 l 2,51,52
 273 195 273 195 255 141 c 1,53,54
 293 85 293 85 359.5 43.5 c 128,-1,55
 426 2 426 2 487 2 c 0,56,57
 536 2 536 2 612 44 c 2,58,-1
 658 70 l 1,59,-1
 700 101 l 1,46,-1
EndSplineSet
EndChar

StartChar: nine
Encoding: 57 57 28
Width: 944
GlyphClass: 2
Flags: W
LayerCount: 2
Fore
SplineSet
872 303 m 1,0,1
 836 231 836 231 619 65 c 0,2,3
 447 -64 447 -64 319 -143 c 1,4,-1
 285 -123 l 1,5,-1
 238 -90 l 1,6,-1
 453 76 l 1,7,8
 648 238 648 238 704 349 c 1,9,10
 496 237 496 237 397 237 c 0,11,12
 359 237 359 237 332 243 c 0,13,14
 253 260 253 260 158 362 c 128,-1,15
 63 464 63 464 63 554 c 1,16,-1
 68 590 l 1,17,18
 90 648 90 648 204 744 c 0,19,20
 329 845 329 845 451 866 c 1,21,22
 556 856 556 856 670 800 c 0,23,24
 805 734 805 734 872 640 c 1,25,-1
 872 303 l 1,0,1
716 614 m 1,26,27
 680 664 680 664 598 746 c 1,28,29
 563 752 563 752 527 753 c 128,-1,30
 491 754 491 754 469 754 c 2,31,-1
 369 750 l 1,32,33
 313 724 313 724 273 666 c 0,34,35
 237 608 237 608 237 543 c 0,36,37
 237 455 237 455 294 391 c 1,38,39
 309 387 309 387 347 376 c 128,-1,40
 385 365 385 365 408 360 c 128,-1,41
 431 355 431 355 463 352 c 128,-1,42
 495 349 495 349 529 349 c 1,43,44
 599 363 599 363 704 442 c 1,45,-1
 712 498 l 1,46,-1
 716 614 l 1,26,27
EndSplineSet
EndChar

StartChar: colon
Encoding: 58 58 29
Width: 582
GlyphClass: 2
Flags: W
LayerCount: 2
Fore
SplineSet
480 750 m 0,0,1
 480 644 480 644 378 532 c 1,2,-1
 334 526 l 1,3,-1
 288 524 l 2,4,5
 240 524 240 524 210 532 c 1,6,7
 134 586 134 586 92 650 c 1,8,-1
 88 698 l 2,9,10
 88 746 88 746 108 792 c 1,11,12
 180 886 180 886 260 900 c 1,13,14
 370 884 370 884 404 868 c 0,15,16
 480 834 480 834 480 750 c 0,0,1
480 184 m 0,17,18
 480 78 480 78 378 -34 c 1,19,-1
 334 -40 l 1,20,-1
 288 -42 l 2,21,22
 240 -42 240 -42 210 -34 c 1,23,24
 134 20 134 20 92 84 c 1,25,-1
 88 132 l 2,26,27
 88 180 88 180 108 226 c 1,28,29
 180 316 180 316 260 336 c 1,30,31
 378 318 378 318 404 302 c 0,32,33
 480 268 480 268 480 184 c 0,17,18
EndSplineSet
EndChar

StartChar: semicolon
Encoding: 59 59 30
Width: 582
GlyphClass: 2
Flags: W
LayerCount: 2
Fore
SplineSet
480 750 m 0,0,1
 480 644 480 644 378 532 c 1,2,-1
 334 526 l 1,3,-1
 288 524 l 2,4,5
 240 524 240 524 210 532 c 1,6,7
 134 586 134 586 92 650 c 1,8,-1
 88 698 l 2,9,10
 88 746 88 746 108 792 c 1,11,12
 180 886 180 886 260 900 c 1,13,14
 370 884 370 884 404 868 c 0,15,16
 480 834 480 834 480 750 c 0,0,1
482 60 m 1,17,18
 416 -70 416 -70 158 -270 c 1,19,20
 142 -258 142 -258 114 -212 c 1,21,22
 266 -92 266 -92 316 4 c 1,23,-1
 254 -16 l 1,24,25
 226 -16 226 -16 190 -5 c 128,-1,26
 154 6 154 6 114 26 c 1,27,28
 92 56 92 56 80 102 c 0,29,30
 72 144 72 144 70 154 c 0,31,32
 70 182 70 182 70 194 c 0,33,34
 82 246 82 246 131 287 c 128,-1,35
 180 328 180 328 248 336 c 1,36,37
 310 330 310 330 340 318 c 1,38,39
 386 306 386 306 424 276 c 1,40,41
 438 258 438 258 445 242 c 128,-1,42
 452 226 452 226 467 179 c 128,-1,43
 482 132 482 132 482 60 c 1,17,18
EndSplineSet
EndChar

StartChar: less
Encoding: 60 60 31
Width: 1168
GlyphClass: 2
Flags: W
LayerCount: 2
Fore
SplineSet
110 626 m 1,0,-1
 110 790 l 1,1,-1
 1058 1190 l 1,2,-1
 1058 1016 l 1,3,-1
 306 708 l 1,4,-1
 1058 396 l 1,5,-1
 1058 220 l 1,6,-1
 110 626 l 1,0,-1
EndSplineSet
EndChar

StartChar: equal
Encoding: 61 61 32
Width: 922
GlyphClass: 2
Flags: W
LayerCount: 2
Fore
SplineSet
862 574 m 1,0,-1
 158 562 l 1,1,-1
 58 722 l 1,2,-1
 798 684 l 1,3,-1
 862 574 l 1,0,-1
862 260 m 1,4,-1
 158 248 l 1,5,-1
 58 408 l 1,6,-1
 798 370 l 1,7,-1
 862 260 l 1,4,-1
EndSplineSet
EndChar

StartChar: greater
Encoding: 62 62 33
Width: 1168
GlyphClass: 2
Flags: W
LayerCount: 2
Fore
SplineSet
1058 626 m 1,0,-1
 110 220 l 1,1,-1
 110 396 l 1,2,-1
 860 708 l 1,3,-1
 110 1016 l 1,4,-1
 110 1190 l 1,5,-1
 1058 790 l 1,6,-1
 1058 626 l 1,0,-1
EndSplineSet
EndChar

StartChar: question
Encoding: 63 63 34
Width: 1062
GlyphClass: 2
Flags: W
LayerCount: 2
Fore
SplineSet
992 922 m 1,0,1
 992 840 992 840 978 744 c 2,2,-1
 964 622 l 1,3,4
 932 594 932 594 738 492 c 0,5,6
 594 418 594 418 566 372 c 1,7,-1
 556 316 l 1,8,-1
 556 290 l 2,9,10
 556 260 556 260 557 246 c 128,-1,11
 558 232 558 232 566 198 c 1,12,-1
 480 196 l 2,13,14
 438 196 438 196 372 184 c 1,15,16
 338 230 338 230 330 330 c 1,17,18
 450 462 450 462 814 668 c 1,19,-1
 818 722 l 1,20,21
 818 900 818 900 728 976 c 1,22,23
 706 988 706 988 658 988 c 0,24,25
 616 988 616 988 573 982 c 128,-1,26
 530 976 530 976 470 960 c 0,27,28
 356 932 356 932 314 904 c 1,29,30
 298 852 298 852 298 814 c 0,31,32
 298 746 298 746 346 650 c 1,33,34
 328 632 328 632 300 611 c 128,-1,35
 272 590 272 590 250 580 c 1,36,37
 100 668 100 668 70 784 c 1,38,39
 96 862 96 862 210 967 c 128,-1,40
 324 1072 324 1072 476 1134 c 1,41,42
 540 1134 540 1134 598 1123 c 128,-1,43
 656 1112 656 1112 665 1109 c 128,-1,44
 674 1106 674 1106 720 1090 c 0,45,46
 860 1042 860 1042 992 922 c 1,0,1
656 4 m 1,47,48
 656 -22 656 -22 625 -75 c 128,-1,49
 594 -128 594 -128 554 -154 c 1,50,-1
 486 -158 l 1,51,52
 396 -158 396 -158 372 -126 c 0,53,54
 340 -78 340 -78 340 -4 c 2,55,-1
 342 38 l 1,56,-1
 388 98 l 2,57,58
 408 124 408 124 446 138 c 1,59,60
 620 138 620 138 656 4 c 1,47,48
EndSplineSet
EndChar

StartChar: at
Encoding: 64 64 35
Width: 2030
GlyphClass: 2
Flags: W
LayerCount: 2
Fore
SplineSet
1134 160 m 1,0,1
 1082 94 1082 94 999 46 c 128,-1,2
 916 -2 916 -2 834 -2 c 0,3,4
 748 -2 748 -2 668 46 c 128,-1,5
 588 94 588 94 534 205 c 128,-1,6
 480 316 480 316 480 436 c 0,7,8
 480 584 480 584 558 741 c 128,-1,9
 636 898 636 898 756 978 c 128,-1,10
 876 1058 876 1058 988 1058 c 0,11,12
 1080 1058 1080 1058 1150 1012 c 1,13,14
 1226 970 1226 970 1282 878 c 1,15,-1
 1316 1030 l 1,16,-1
 1490 1030 l 1,17,-1
 1350 376 l 1,18,-1
 1320 224 l 1,19,20
 1320 200 1320 200 1340 178 c 1,21,22
 1362 160 1362 160 1388 160 c 0,23,24
 1442 160 1442 160 1524 218 c 0,25,26
 1630 292 1630 292 1698 426 c 0,27,28
 1730 490 1730 490 1748 560 c 128,-1,29
 1766 630 1766 630 1766 700 c 0,30,31
 1766 856 1766 856 1682 1000 c 128,-1,32
 1598 1144 1598 1144 1432 1230 c 0,33,34
 1356 1270 1356 1270 1260 1294 c 0,35,36
 1220 1304 1220 1304 1171 1310 c 128,-1,37
 1122 1316 1122 1316 1068 1316 c 0,38,39
 838 1316 838 1316 651 1211 c 128,-1,40
 464 1106 464 1106 356 898 c 0,41,42
 304 792 304 792 278 690 c 128,-1,43
 252 588 252 588 252 474 c 0,44,45
 252 240 252 240 354 66 c 128,-1,46
 456 -108 456 -108 654 -192 c 128,-1,47
 852 -276 852 -276 1094 -276 c 0,48,49
 1344 -276 1344 -276 1515 -194 c 128,-1,50
 1686 -112 1686 -112 1782 18 c 1,51,-1
 1958 18 l 1,52,53
 1912 -84 1912 -84 1794 -188 c 128,-1,54
 1676 -292 1676 -292 1500 -358 c 0,55,56
 1440 -378 1440 -378 1316 -404 c 1,57,-1
 1216 -416 l 1,58,-1
 1096 -420 l 1,59,60
 878 -420 878 -420 699 -365 c 128,-1,61
 520 -310 520 -310 392 -202 c 128,-1,62
 264 -94 264 -94 190 60 c 1,63,64
 108 248 108 248 108 458 c 0,65,66
 108 698 108 698 206 912 c 0,67,68
 326 1170 326 1170 542 1314 c 128,-1,69
 758 1458 758 1458 1076 1458 c 0,70,71
 1196 1458 1196 1458 1304 1434 c 0,72,73
 1360 1422 1360 1422 1408 1405 c 128,-1,74
 1456 1388 1456 1388 1510 1358 c 0,75,76
 1702 1262 1702 1262 1816 1064 c 0,77,78
 1910 894 1910 894 1910 696 c 0,79,80
 1910 414 1910 414 1710 194 c 0,81,82
 1532 -4 1532 -4 1322 -4 c 2,83,-1
 1296 -4 l 1,84,-1
 1258 0 l 2,85,86
 1232 4 1232 4 1212 16 c 0,87,88
 1176 38 1176 38 1152 76 c 0,89,90
 1140 98 1140 98 1134 160 c 1,0,1
662 424 m 0,91,92
 662 292 662 292 724 217 c 128,-1,93
 786 142 786 142 870 142 c 0,94,95
 924 142 924 142 986 175 c 128,-1,96
 1048 208 1048 208 1100 272 c 1,97,98
 1154 332 1154 332 1190 434 c 128,-1,99
 1226 536 1226 536 1226 634 c 0,100,101
 1226 760 1226 760 1161 837 c 128,-1,102
 1096 914 1096 914 1000 914 c 0,103,104
 938 914 938 914 883 882 c 128,-1,105
 828 850 828 850 781 784 c 128,-1,106
 734 718 734 718 692 606 c 1,107,108
 662 510 662 510 662 424 c 0,91,92
EndSplineSet
EndChar

StartChar: bracketleft
Encoding: 91 91 36
Width: 556
GlyphClass: 2
Flags: W
LayerCount: 2
Fore
SplineSet
136 -398 m 1,0,-1
 136 1432 l 1,1,-1
 524 1432 l 1,2,-1
 524 1286 l 1,3,-1
 312 1286 l 1,4,-1
 312 -252 l 1,5,-1
 524 -252 l 1,6,-1
 524 -398 l 1,7,-1
 136 -398 l 1,0,-1
EndSplineSet
EndChar

StartChar: backslash
Encoding: 92 92 37
Width: 556
GlyphClass: 2
Flags: W
LayerCount: 2
Fore
SplineSet
416 -24 m 1,0,-1
 0 1456 l 1,1,-1
 142 1456 l 1,2,-1
 556 -24 l 1,3,-1
 416 -24 l 1,0,-1
EndSplineSet
EndChar

StartChar: bracketright
Encoding: 93 93 38
Width: 556
GlyphClass: 2
Flags: W
LayerCount: 2
Fore
SplineSet
426 -398 m 1,0,-1
 38 -398 l 1,1,-1
 38 -252 l 1,2,-1
 250 -252 l 1,3,-1
 250 1286 l 1,4,-1
 38 1286 l 1,5,-1
 38 1432 l 1,6,-1
 426 1432 l 1,7,-1
 426 -398 l 1,0,-1
EndSplineSet
EndChar

StartChar: asciicircum
Encoding: 94 94 39
Width: 938
GlyphClass: 2
Flags: W
LayerCount: 2
Fore
SplineSet
234 674 m 1,0,-1
 52 674 l 1,1,-1
 398 1456 l 1,2,-1
 540 1456 l 1,3,-1
 886 674 l 1,4,-1
 708 674 l 1,5,-1
 468 1256 l 1,6,-1
 234 674 l 1,0,-1
EndSplineSet
EndChar

StartChar: underscore
Encoding: 95 95 40
Width: 1112
GlyphClass: 2
Flags: W
LayerCount: 2
Fore
SplineSet
-30 -398 m 1,0,-1
 -30 -270 l 1,1,-1
 1134 -270 l 1,2,-1
 1134 -398 l 1,3,-1
 -30 -398 l 1,0,-1
EndSplineSet
EndChar

StartChar: grave
Encoding: 96 96 41
Width: 384
GlyphClass: 2
Flags: W
LayerCount: 2
Fore
SplineSet
72 1092 m 1,0,1
 78 1118 78 1118 88 1132 c 2,2,-1
 118 1160 l 1,3,-1
 134 1166 l 1,4,-1
 176 1176 l 1,5,-1
 254 1176 l 1,6,-1
 286 1170 l 1,7,-1
 312 1152 l 1,8,-1
 328 1126 l 2,9,10
 334 1114 334 1114 334 1098 c 0,11,12
 334 1074 334 1074 327 1053 c 128,-1,13
 320 1032 320 1032 298 1022 c 2,14,-1
 276 1010 l 1,15,-1
 256 1008 l 1,16,-1
 174 1008 l 1,17,-1
 164 1010 l 1,18,-1
 148 1014 l 1,19,-1
 134 1018 l 1,20,-1
 214 1018 l 1,21,-1
 218 1000 l 1,22,-1
 220 982 l 2,23,24
 220 970 220 970 230 954 c 2,25,-1
 248 922 l 1,26,-1
 268 894 l 1,27,-1
 294 870 l 1,28,-1
 320 846 l 1,29,-1
 348 822 l 1,30,-1
 314 784 l 1,31,-1
 234 784 l 1,32,-1
 176 834 l 1,33,-1
 124 890 l 2,34,35
 104 916 104 916 80 964 c 1,36,-1
 68 998 l 1,37,-1
 64 1038 l 2,38,39
 60 1070 60 1070 72 1092 c 1,0,1
EndSplineSet
EndChar

StartChar: braceleft
Encoding: 123 123 42
Width: 668
GlyphClass: 2
Flags: W
LayerCount: 2
Fore
SplineSet
56 598 m 1,0,1
 130 598 130 598 177 638 c 128,-1,2
 224 678 224 678 242 744 c 1,3,-1
 252 854 l 1,4,-1
 258 974 l 1,5,6
 258 1138 258 1138 264 1203 c 128,-1,7
 270 1268 270 1268 295 1318 c 128,-1,8
 320 1368 320 1368 351 1397 c 128,-1,9
 382 1426 382 1426 446 1446 c 1,10,11
 486 1454 486 1454 517 1455 c 128,-1,12
 548 1456 548 1456 566 1456 c 2,13,-1
 622 1456 l 1,14,-1
 622 1302 l 1,15,-1
 590 1302 l 2,16,17
 494 1302 494 1302 454 1264 c 1,18,19
 422 1226 422 1226 422 1102 c 2,20,-1
 422 1042 l 1,21,-1
 422 994 l 1,22,-1
 422 956 l 1,23,-1
 422 924 l 1,24,-1
 422 898 l 1,25,-1
 420 824 l 2,26,27
 420 796 420 796 412 780 c 1,28,29
 394 682 394 682 353 627 c 128,-1,30
 312 572 312 572 218 518 c 1,31,32
 326 476 326 476 374 385 c 128,-1,33
 422 294 422 294 422 78 c 2,34,-1
 426 -148 l 1,35,36
 432 -214 432 -214 466 -242 c 1,37,-1
 506 -258 l 1,38,39
 542 -268 542 -268 590 -268 c 2,40,-1
 622 -268 l 1,41,-1
 622 -420 l 1,42,-1
 566 -420 l 2,43,44
 468 -420 468 -420 428 -406 c 0,45,46
 378 -386 378 -386 328 -334 c 0,47,48
 294 -294 294 -294 270 -206 c 1,49,50
 258 -128 258 -128 258 48 c 0,51,52
 258 234 258 234 242 292 c 0,53,54
 228 358 228 358 178 398 c 0,55,56
 122 438 122 438 56 438 c 1,57,-1
 56 598 l 1,0,1
EndSplineSet
EndChar

StartChar: bar
Encoding: 124 124 43
Width: 520
GlyphClass: 2
Flags: W
LayerCount: 2
Fore
SplineSet
184 -420 m 1,0,-1
 184 1456 l 1,1,-1
 336 1456 l 1,2,-1
 336 -420 l 1,3,-1
 184 -420 l 1,0,-1
EndSplineSet
EndChar

StartChar: braceright
Encoding: 125 125 44
Width: 668
GlyphClass: 2
Flags: W
LayerCount: 2
Fore
SplineSet
612 598 m 1,0,-1
 612 438 l 1,1,2
 540 438 540 438 491 401 c 128,-1,3
 442 364 442 364 424 290 c 1,4,-1
 414 200 l 1,5,-1
 410 62 l 1,6,-1
 410 24 l 1,7,-1
 410 -8 l 1,8,-1
 410 -34 l 2,9,10
 410 -118 410 -118 404 -154 c 1,11,12
 404 -228 404 -228 370 -282 c 1,13,14
 346 -330 346 -330 312 -364 c 1,15,-1
 276 -386 l 1,16,-1
 222 -410 l 1,17,-1
 176 -418 l 1,18,-1
 100 -420 l 1,19,-1
 46 -420 l 1,20,-1
 46 -268 l 1,21,-1
 76 -268 l 2,22,23
 178 -268 178 -268 210 -230 c 1,24,25
 244 -196 244 -196 244 -66 c 2,26,-1
 246 124 l 1,27,-1
 252 244 l 1,28,29
 264 352 264 352 316 416 c 1,30,31
 362 480 362 480 448 518 c 1,32,33
 340 566 340 566 292 656 c 128,-1,34
 244 746 244 746 244 958 c 2,35,-1
 244 1078 l 1,36,-1
 238 1200 l 2,37,38
 238 1244 238 1244 204 1273 c 128,-1,39
 170 1302 170 1302 76 1302 c 2,40,-1
 46 1302 l 1,41,-1
 46 1456 l 1,42,-1
 100 1456 l 2,43,44
 200 1456 200 1456 250 1437 c 128,-1,45
 300 1418 300 1418 338 1371 c 128,-1,46
 376 1324 376 1324 396 1240 c 1,47,-1
 406 1138 l 1,48,-1
 410 988 l 1,49,50
 410 798 410 798 425 739 c 128,-1,51
 440 680 440 680 488 638 c 0,52,53
 512 620 512 620 544 608 c 2,54,-1
 576 600 l 1,55,-1
 612 598 l 1,0,-1
EndSplineSet
EndChar

StartChar: asciitilde
Encoding: 126 126 45
Width: 1168
GlyphClass: 2
Flags: W
LayerCount: 2
Fore
SplineSet
84 544 m 1,0,-1
 84 744 l 1,1,2
 190 862 190 862 356 862 c 0,3,4
 404 862 404 862 480 844 c 0,5,6
 534 832 534 832 664 776 c 1,7,-1
 764 740 l 1,8,-1
 806 730 l 1,9,-1
 832 730 l 2,10,11
 882 730 882 730 951 765 c 128,-1,12
 1020 800 1020 800 1084 864 c 1,13,-1
 1084 658 l 1,14,15
 1024 604 1024 604 960 572 c 1,16,17
 882 546 882 546 814 546 c 2,18,-1
 758 548 l 2,19,20
 742 548 742 548 726 548 c 1,21,22
 710 554 710 554 704 556 c 0,23,24
 656 568 656 568 537 622 c 128,-1,25
 418 676 418 676 340 676 c 0,26,27
 276 676 276 676 222 650 c 1,28,-1
 162 612 l 1,29,-1
 136 592 l 1,30,-1
 84 544 l 1,0,-1
EndSplineSet
EndChar

StartChar: cent
Encoding: 162 162 46
Width: 721
GlyphClass: 2
Flags: W
LayerCount: 2
Fore
SplineSet
598 156 m 1,0,1
 537 71 537 71 467 31 c 128,-1,2
 397 -9 397 -9 304 -17 c 1,3,-1
 228 -265 l 1,4,-1
 187 -265 l 1,5,-1
 262 -17 l 1,6,7
 177 -8 177 -8 128.5 47 c 128,-1,8
 80 102 80 102 80 188 c 0,9,10
 80 345 80 345 191.5 478.5 c 128,-1,11
 303 612 303 612 457 638 c 1,12,-1
 541 917 l 1,13,-1
 580 917 l 1,14,-1
 499 638 l 1,15,16
 580 638 580 638 616.5 607 c 128,-1,17
 653 576 653 576 653 523 c 0,18,19
 653 482 653 482 631.5 455.5 c 128,-1,20
 610 429 610 429 580 429 c 0,21,22
 557 429 557 429 544 442 c 128,-1,23
 531 455 531 455 531 476 c 0,24,25
 531 491 531 491 536 502 c 128,-1,26
 541 513 541 513 560.5 534.5 c 128,-1,27
 580 556 580 556 580 570 c 0,28,29
 580 578 580 578 575 585 c 0,30,31
 565 596 565 596 549.5 601 c 128,-1,32
 534 606 534 606 489 606 c 1,33,-1
 322 49 l 1,34,-1
 352 47 l 1,35,36
 470 47 470 47 580 173 c 1,37,-1
 598 156 l 1,0,1
284 57 m 1,38,-1
 445 598 l 1,39,40
 383 570 383 570 342 533 c 0,41,42
 274 467 274 467 237 380.5 c 128,-1,43
 200 294 200 294 200 205 c 0,44,45
 200 146 200 146 224 108 c 0,46,47
 243 81 243 81 284 57 c 1,38,-1
EndSplineSet
EndChar

StartChar: multiply
Encoding: 215 215 47
Width: 975
GlyphClass: 2
Flags: W
LayerCount: 2
Fore
SplineSet
267 230 m 1,0,-1
 515 479 l 1,1,-1
 267 728 l 1,2,-1
 308 768 l 1,3,-1
 556 520 l 1,4,-1
 805 768 l 1,5,-1
 844 728 l 1,6,-1
 595 480 l 1,7,-1
 845 230 l 1,8,-1
 805 190 l 1,9,-1
 555 439 l 1,10,-1
 307 190 l 1,11,-1
 267 230 l 1,0,-1
EndSplineSet
EndChar

StartChar: divide
Encoding: 247 247 48
Width: 792
GlyphClass: 2
Flags: W
LayerCount: 2
Fore
SplineSet
418 757 m 0,0,1
 443 757 443 757 461 739 c 128,-1,2
 479 721 479 721 479 695 c 0,3,4
 479 670 479 670 461 652 c 128,-1,5
 443 634 443 634 417 634 c 0,6,7
 392 634 392 634 373.5 652 c 128,-1,8
 355 670 355 670 355 695 c 0,9,10
 355 721 355 721 373.5 739 c 128,-1,11
 392 757 392 757 418 757 c 0,0,1
797 450 m 1,12,-1
 38 450 l 1,13,-1
 38 508 l 1,14,-1
 797 508 l 1,15,-1
 797 450 l 1,12,-1
418 320 m 0,16,17
 443 320 443 320 461 301.5 c 128,-1,18
 479 283 479 283 479 257 c 0,19,20
 479 233 479 233 461 215 c 128,-1,21
 443 197 443 197 418 197 c 0,22,23
 392 197 392 197 373.5 215 c 128,-1,24
 355 233 355 233 355 257 c 0,25,26
 355 283 355 283 373.5 301.5 c 128,-1,27
 392 320 392 320 418 320 c 0,16,17
EndSplineSet
EndChar

StartChar: tm_visarga
Encoding: 2947 2947 49
Width: 1244
GlyphClass: 2
Flags: W
LayerCount: 2
Fore
SplineSet
844 718 m 1,0,1
 846 708 846 708 846 690 c 0,2,3
 846 596 846 596 764 490 c 1,4,5
 648 438 648 438 552 438 c 0,6,7
 512 438 512 438 486 446 c 1,8,9
 358 528 358 528 320 648 c 1,10,11
 338 708 338 708 402 790 c 128,-1,12
 466 872 466 872 498 874 c 2,13,-1
 580 880 l 1,14,15
 668 880 668 880 734 858 c 0,16,17
 746 852 746 852 844 718 c 1,0,1
1212 244 m 1,18,19
 1206 200 1206 200 1118 32 c 1,20,21
 1090 20 1090 20 1002 -4 c 0,22,23
 908 -26 908 -26 844 -26 c 1,24,25
 780 0 780 0 726 102 c 0,26,27
 686 182 686 182 686 226 c 0,28,29
 686 268 686 268 758 346 c 128,-1,30
 830 424 830 424 882 444 c 1,31,32
 1042 418 1042 418 1144 330 c 0,33,34
 1210 270 1210 270 1212 244 c 1,18,19
512 218 m 0,35,36
 512 168 512 168 454 32 c 1,37,38
 432 22 432 22 314 -6 c 0,39,40
 210 -28 210 -28 186 -28 c 1,41,42
 102 -10 102 -10 58 106 c 0,43,44
 44 148 44 148 37 185 c 128,-1,45
 30 222 30 222 30 266 c 0,46,47
 30 292 30 292 133 368 c 128,-1,48
 236 444 236 444 276 444 c 0,49,50
 322 444 322 444 417 357 c 128,-1,51
 512 270 512 270 512 218 c 0,35,36
696 680 m 1,52,53
 700 690 700 690 667 723 c 128,-1,54
 634 756 634 756 582 768 c 1,55,56
 466 720 466 720 466 642 c 0,57,58
 466 624 466 624 508 582 c 0,59,60
 548 546 548 546 568 542 c 1,61,62
 582 548 582 548 590 550 c 0,63,64
 620 562 620 562 654 576 c 1,65,-1
 678 620 l 2,66,67
 696 656 696 656 696 680 c 1,52,53
1036 168 m 0,68,69
 1036 298 1036 298 930 298 c 0,70,71
 902 298 902 298 881 288 c 128,-1,72
 860 278 860 278 830 214 c 1,73,74
 830 110 830 110 898 100 c 0,75,76
 910 98 910 98 932 98 c 0,77,78
 1036 98 1036 98 1036 168 c 0,68,69
372 208 m 1,79,80
 372 234 372 234 353 259 c 128,-1,81
 334 284 334 284 306 284 c 1,82,83
 282 288 282 288 272 288 c 0,84,85
 232 288 232 288 204 264 c 1,86,87
 174 246 174 246 180 194 c 1,88,89
 174 166 174 166 203 133 c 128,-1,90
 232 100 232 100 266 96 c 1,91,-1
 282 100 l 1,92,-1
 294 98 l 1,93,94
 322 98 322 98 350 139 c 128,-1,95
 378 180 378 180 372 208 c 1,79,80
EndSplineSet
EndChar

StartChar: tm_a
Encoding: 2949 2949 50
Width: 1544
GlyphClass: 2
Flags: W
LayerCount: 2
Fore
SplineSet
1530 728 m 1,0,1
 1530 608 1530 608 1521 499 c 128,-1,2
 1512 390 1512 390 1491 224 c 128,-1,3
 1470 58 1470 58 1454 -82 c 1,4,-1
 1328 -126 l 1,5,6
 1328 82 1328 82 1330 180 c 128,-1,7
 1332 278 1332 278 1334 354 c 1,8,-1
 1244 360 l 1,9,10
 1244 284 1244 284 1224 176 c 1,11,12
 1194 102 1194 102 1059 -15 c 128,-1,13
 924 -132 924 -132 804 -174 c 1,14,15
 766 -174 766 -174 730 -174 c 128,-1,16
 694 -174 694 -174 660 -176 c 0,17,18
 592 -176 592 -176 528 -170 c 0,19,20
 492 -170 492 -170 437 -147 c 128,-1,21
 382 -124 382 -124 300 -78 c 0,22,23
 126 20 126 20 26 142 c 1,24,25
 44 298 44 298 144 390 c 1,26,27
 228 426 228 426 446 456 c 1,28,-1
 402 534 l 1,29,30
 378 586 378 586 368 640 c 1,31,32
 444 824 444 824 666 972 c 1,33,34
 840 972 840 972 1008 892 c 0,35,36
 1136 830 1136 830 1176 780 c 1,37,38
 1206 694 1206 694 1236 462 c 1,39,-1
 1334 456 l 1,40,41
 1334 524 1334 524 1331 585 c 128,-1,42
 1328 646 1328 646 1326 712 c 1,43,44
 1366 720 1366 720 1423 724 c 128,-1,45
 1480 728 1480 728 1530 728 c 1,0,1
1098 462 m 1,46,-1
 1086 580 l 2,47,48
 1074 690 1074 690 1028 748 c 0,49,50
 964 834 964 834 834 834 c 0,51,52
 762 834 762 834 678 810 c 128,-1,53
 594 786 594 786 546 750 c 1,54,55
 600 762 600 762 646 762 c 0,56,57
 800 762 800 762 836 586 c 1,58,59
 834 556 834 556 806 520 c 2,60,-1
 764 472 l 1,61,62
 820 472 820 472 939 467 c 128,-1,63
 1058 462 1058 462 1098 462 c 1,46,-1
704 618 m 0,64,65
 698 642 698 642 660 660 c 0,66,67
 642 670 642 670 629 672 c 128,-1,68
 616 674 616 674 594 674 c 0,69,70
 574 674 574 674 548 638 c 0,71,72
 528 604 528 604 528 574 c 1,73,-1
 534 548 l 1,74,75
 568 514 568 514 624 514 c 1,76,-1
 650 520 l 1,77,78
 706 552 706 552 706 600 c 0,79,80
 706 612 706 612 704 618 c 0,64,65
1100 358 m 1,81,82
 826 358 826 358 637 341 c 128,-1,83
 448 324 448 324 296 276 c 1,84,85
 260 234 260 234 244 164 c 1,86,87
 284 124 284 124 316 97 c 128,-1,88
 348 70 348 70 378 50 c 0,89,90
 496 -36 496 -36 610 -60 c 1,91,92
 726 -60 726 -60 856 22 c 0,93,94
 1026 124 1026 124 1098 316 c 1,95,-1
 1100 358 l 1,81,82
EndSplineSet
EndChar

StartChar: tm_aa
Encoding: 2950 2950 51
Width: 1854
GlyphClass: 2
Flags: W
LayerCount: 2
Fore
SplineSet
1824 -60 m 1,0,1
 1764 -192 1764 -192 1616 -292 c 0,2,3
 1518 -358 1518 -358 1408 -392 c 1,4,5
 1314 -392 1314 -392 1205 -333 c 128,-1,6
 1096 -274 1096 -274 974 -152 c 1,7,-1
 1156 -60 l 1,8,-1
 1210 -150 l 2,9,10
 1270 -246 1270 -246 1318 -270 c 1,11,12
 1376 -270 1376 -270 1469 -238 c 128,-1,13
 1562 -206 1562 -206 1620 -174 c 1,14,15
 1670 -130 1670 -130 1670 -28 c 1,16,17
 1664 36 1664 36 1646 70 c 1,18,19
 1634 76 1634 76 1612 76 c 0,20,21
 1574 76 1574 76 1531 63 c 128,-1,22
 1488 50 1488 50 1480 34 c 1,23,24
 1480 12 1480 12 1478 -17 c 128,-1,25
 1476 -46 1476 -46 1470 -76 c 1,26,-1
 1328 -118 l 1,27,-1
 1332 104 l 1,28,-1
 1332 358 l 1,29,-1
 1244 358 l 1,30,31
 1244 304 1244 304 1220 174 c 1,32,33
 1190 100 1190 100 1056 -15 c 128,-1,34
 922 -130 922 -130 804 -174 c 1,35,36
 766 -174 766 -174 730 -174 c 128,-1,37
 694 -174 694 -174 660 -176 c 0,38,39
 592 -176 592 -176 528 -170 c 0,40,41
 494 -170 494 -170 438 -147 c 128,-1,42
 382 -124 382 -124 302 -80 c 0,43,44
 126 16 126 16 26 138 c 1,45,46
 44 294 44 294 144 384 c 1,47,48
 232 420 232 420 444 456 c 1,49,-1
 400 530 l 2,50,51
 372 582 372 582 366 636 c 1,52,53
 442 824 442 824 664 972 c 1,54,55
 834 972 834 972 1004 890 c 0,56,57
 1128 830 1128 830 1174 776 c 1,58,59
 1202 700 1202 700 1232 460 c 1,60,-1
 1328 456 l 1,61,-1
 1322 712 l 1,62,63
 1354 722 1354 722 1408 726 c 128,-1,64
 1462 730 1462 730 1522 730 c 1,65,-1
 1480 170 l 1,66,-1
 1534 202 l 2,67,68
 1596 240 1596 240 1636 240 c 1,69,70
 1784 160 1784 160 1824 -60 c 1,0,1
1094 460 m 1,71,-1
 1084 574 l 2,72,73
 1072 682 1072 682 1022 746 c 0,74,75
 956 834 956 834 826 834 c 0,76,77
 756 834 756 834 675 810 c 128,-1,78
 594 786 594 786 542 748 c 1,79,-1
 642 758 l 1,80,81
 798 758 798 758 834 582 c 1,82,83
 830 550 830 550 802 516 c 2,84,-1
 760 468 l 1,85,-1
 1094 460 l 1,71,-1
594 672 m 0,86,87
 570 672 570 672 546 636 c 0,88,89
 526 600 526 600 526 568 c 0,90,91
 526 552 526 552 530 544 c 0,92,93
 572 512 572 512 626 512 c 0,94,95
 642 512 642 512 650 516 c 0,96,97
 700 560 700 560 700 598 c 0,98,99
 700 630 700 630 660 652 c 1,100,101
 626 676 626 676 594 672 c 0,86,87
1098 358 m 1,102,103
 838 358 838 358 642 339 c 128,-1,104
 446 320 446 320 294 272 c 1,105,106
 254 230 254 230 242 162 c 1,107,108
 416 -22 416 -22 610 -60 c 1,109,110
 722 -60 722 -60 854 20 c 0,111,112
 1026 122 1026 122 1094 314 c 1,113,-1
 1096 334 l 1,114,-1
 1098 358 l 1,102,103
EndSplineSet
EndChar

StartChar: tm_i
Encoding: 2951 2951 52
Width: 1626
GlyphClass: 2
Flags: W
LayerCount: 2
Fore
SplineSet
1766 998 m 1,0,-1
 1648 826 l 1,1,-1
 1644 836 l 2,2,3
 1644 846 1644 846 1634 852 c 0,4,5
 1560 894 1560 894 1342 942 c 0,6,7
 1074 1000 1074 1000 848 1000 c 0,8,9
 764 1000 764 1000 690 992 c 128,-1,10
 616 984 616 984 552 966 c 1,11,12
 462 912 462 912 366 774 c 0,13,14
 284 654 284 654 220 498 c 1,15,16
 242 438 242 438 322 362 c 1,17,-1
 414 282 l 1,18,19
 460 308 460 308 508 325 c 128,-1,20
 556 342 556 342 606 352 c 1,21,-1
 522 402 l 1,22,23
 456 448 456 448 438 500 c 1,24,25
 456 688 456 688 620 792 c 1,26,27
 692 816 692 816 824 816 c 0,28,29
 972 816 972 816 1080 792 c 1,30,31
 1162 688 1162 688 1188 384 c 1,32,33
 1390 342 1390 342 1498 264 c 0,34,35
 1544 230 1544 230 1596 156 c 1,36,37
 1596 -24 1596 -24 1378 -126 c 1,38,39
 1294 -126 1294 -126 1188 -124 c 128,-1,40
 1082 -122 1082 -122 990 -104 c 1,41,-1
 816 -56 l 1,42,-1
 676 -158 l 2,43,44
 564 -238 564 -238 486 -250 c 1,45,-1
 414 -256 l 1,46,47
 304 -256 304 -256 192 -212 c 0,48,49
 92 -176 92 -176 30 -120 c 1,50,51
 54 10 54 10 156 120 c 1,52,-1
 274 222 l 1,53,-1
 172 308 l 2,54,55
 90 382 90 382 48 444 c 1,56,57
 70 534 70 534 166 710 c 0,58,59
 276 918 276 918 384 1052 c 1,60,61
 602 1134 602 1134 890 1134 c 0,62,63
 1008 1134 1008 1134 1144 1120 c 128,-1,64
 1280 1106 1280 1106 1426 1076 c 2,65,-1
 1766 998 l 1,0,-1
1002 406 m 1,66,67
 1002 446 1002 446 998 474 c 0,68,69
 988 514 988 514 984 536 c 0,70,71
 960 632 960 632 922 690 c 1,72,73
 802 690 802 690 766 654 c 1,74,75
 832 602 832 602 850 542 c 1,76,77
 850 504 850 504 764 386 c 1,78,-1
 1002 406 l 1,66,67
716 534 m 0,79,80
 716 550 716 550 700 572 c 0,81,82
 676 606 676 606 634 606 c 2,83,-1
 612 604 l 1,84,85
 596 596 596 596 578 562 c 1,86,-1
 566 522 l 1,87,88
 566 472 566 472 660 472 c 1,89,90
 686 478 686 478 702 500 c 0,91,92
 718 516 718 516 716 534 c 0,79,80
996 290 m 1,93,94
 988 292 988 292 966 292 c 0,95,96
 908 292 908 292 756 259 c 128,-1,97
 604 226 604 226 550 196 c 1,98,99
 616 144 616 144 804 76 c 1,100,-1
 886 152 l 2,101,102
 958 222 958 222 996 290 c 1,93,94
1378 170 m 1,103,104
 1360 210 1360 210 1304 242 c 0,105,106
 1270 262 1270 262 1236 273 c 128,-1,107
 1202 284 1202 284 1164 284 c 1,108,109
 1134 218 1134 218 1062 140 c 2,110,-1
 976 48 l 1,111,112
 1084 36 1084 36 1166 36 c 0,113,114
 1254 36 1254 36 1308 50 c 1,115,116
 1340 82 1340 82 1378 170 c 1,103,104
682 -16 m 1,117,118
 652 -8 652 -8 537 45 c 128,-1,119
 422 98 422 98 384 126 c 0,120,121
 372 134 372 134 322 70 c 0,122,123
 298 34 298 34 287 3 c 128,-1,124
 276 -28 276 -28 276 -60 c 1,125,126
 294 -110 294 -110 386 -110 c 0,127,128
 532 -110 532 -110 682 -16 c 1,117,118
EndSplineSet
EndChar

StartChar: tm_ii
Encoding: 2952 2952 53
Width: 1030
GlyphClass: 2
Flags: W
LayerCount: 2
Fore
SplineSet
970 724 m 1,0,1
 896 724 896 724 762 710 c 1,2,-1
 706 316 l 1,3,-1
 668 28 l 1,4,5
 614 22 614 22 506 -20 c 1,6,7
 506 62 506 62 522 294 c 128,-1,8
 538 526 538 526 538 680 c 1,9,10
 390 666 390 666 264 640 c 1,11,12
 242 532 242 532 233 446 c 128,-1,13
 224 360 224 360 224 282 c 1,14,-1
 206 44 l 1,15,16
 132 14 132 14 66 4 c 1,17,-1
 70 782 l 1,18,19
 312 844 312 844 616 844 c 0,20,21
 666 844 666 844 775 837 c 128,-1,22
 884 830 884 830 928 830 c 1,23,-1
 970 724 l 1,0,1
1000 436 m 1,24,25
 1000 384 1000 384 972 314 c 1,26,27
 948 242 948 242 918 218 c 1,28,29
 760 236 760 236 760 360 c 0,30,31
 760 402 760 402 797 457 c 128,-1,32
 834 512 834 512 862 520 c 1,33,34
 940 530 940 530 1000 436 c 1,24,25
492 352 m 1,35,36
 474 218 474 218 372 202 c 1,37,38
 300 202 300 202 272 336 c 2,39,-1
 268 358 l 1,40,41
 268 406 268 406 312 458 c 0,42,43
 352 510 352 510 396 516 c 1,44,45
 440 516 440 516 466 465 c 128,-1,46
 492 414 492 414 492 352 c 1,35,36
EndSplineSet
EndChar

StartChar: tm_u
Encoding: 2953 2953 54
Width: 1750
GlyphClass: 2
Flags: W
LayerCount: 2
Fore
SplineSet
1740 142 m 1,0,1
 1740 78 1740 78 1718 -32 c 1,2,3
 1672 -42 1672 -42 1588 -42 c 1,4,5
 1484 -32 1484 -32 1367 -25 c 128,-1,6
 1250 -18 1250 -18 1142 -18 c 0,7,8
 1006 -18 1006 -18 885 -12 c 128,-1,9
 764 -6 764 -6 616 0 c 1,10,11
 478 0 478 0 373 -21 c 128,-1,12
 268 -42 268 -42 194 -82 c 1,13,14
 160 -74 160 -74 104 3 c 128,-1,15
 48 80 48 80 30 168 c 1,16,17
 54 232 54 232 204 266 c 1,18,-1
 506 304 l 2,19,20
 690 328 690 328 766 370 c 1,21,22
 798 406 798 406 828 488 c 128,-1,23
 858 570 858 570 858 650 c 0,24,25
 858 788 858 788 768 852 c 1,26,27
 644 878 644 878 552 878 c 0,28,29
 446 878 446 878 356 852 c 1,30,-1
 292 784 l 1,31,32
 248 730 248 730 244 700 c 1,33,-1
 310 746 l 2,34,35
 364 782 364 782 414 794 c 1,36,37
 502 784 502 784 574 724 c 128,-1,38
 646 664 646 664 672 570 c 1,39,40
 662 538 662 538 646 511 c 128,-1,41
 630 484 630 484 596 444 c 0,42,43
 518 346 518 346 432 328 c 1,44,45
 360 328 360 328 270 360 c 0,46,47
 150 402 150 402 86 490 c 1,48,49
 64 612 64 612 64 670 c 0,50,51
 64 722 64 722 72 768 c 1,52,53
 140 850 140 850 262 918 c 0,54,55
 404 996 404 996 572 1022 c 1,56,57
 832 998 832 998 1066 728 c 1,58,59
 1066 658 1066 658 1053 596 c 128,-1,60
 1040 534 1040 534 1012 460 c 0,61,62
 992 406 992 406 922 278 c 1,63,64
 882 262 882 262 610 224 c 128,-1,65
 338 186 338 186 270 142 c 1,66,67
 258 126 258 126 258 106 c 0,68,69
 258 88 258 88 264 70 c 1,70,71
 324 100 324 100 429 116 c 128,-1,72
 534 132 534 132 686 132 c 0,73,74
 718 132 718 132 852 124 c 128,-1,75
 986 116 986 116 1088 116 c 2,76,-1
 1464 102 l 1,77,78
 1678 102 1678 102 1740 142 c 1,0,1
482 564 m 0,79,80
 482 602 482 602 446 636 c 0,81,82
 410 666 410 666 372 672 c 1,83,84
 336 668 336 668 299 631 c 128,-1,85
 262 594 262 594 262 544 c 1,86,87
 254 484 254 484 358 460 c 1,88,89
 482 460 482 460 482 564 c 0,79,80
EndSplineSet
EndChar

StartChar: tm_uu
Encoding: 2954 2954 55
Width: 2290
GlyphClass: 2
Flags: W
LayerCount: 2
Fore
SplineSet
2278 692 m 1,0,1
 2238 684 2238 684 2208 680 c 128,-1,2
 2178 676 2178 676 2152 676 c 2,3,-1
 2126 678 l 1,4,5
 2120 664 2120 664 2079 429 c 128,-1,6
 2038 194 2038 194 2032 184 c 1,7,-1
 1926 168 l 1,8,-1
 1922 200 l 1,9,-1
 1930 384 l 1,10,-1
 1940 592 l 1,11,-1
 1940 622 l 2,12,13
 1940 640 1940 640 1936 652 c 1,14,15
 1906 648 1906 648 1890 643 c 128,-1,16
 1874 638 1874 638 1842 624 c 1,17,18
 1790 474 1790 474 1790 200 c 1,19,-1
 1654 176 l 1,20,-1
 1658 234 l 1,21,-1
 1664 368 l 1,22,23
 1664 622 1664 622 1566 690 c 1,24,25
 1390 690 1390 690 1306 620 c 1,26,27
 1264 536 1264 536 1270 510 c 1,28,29
 1360 576 1360 576 1430 576 c 1,30,31
 1478 582 1478 582 1546 500 c 0,32,33
 1596 436 1596 436 1608 390 c 1,34,35
 1602 330 1602 330 1540 256 c 0,36,37
 1492 202 1492 202 1448 170 c 1,38,39
 1384 170 1384 170 1320 194 c 0,40,41
 1180 244 1180 244 1100 396 c 1,42,43
 1092 444 1092 444 1142 560 c 0,44,45
 1220 734 1220 734 1408 830 c 1,46,47
 1498 830 1498 830 1580 801 c 128,-1,48
 1662 772 1662 772 1756 710 c 1,49,50
 1756 774 1756 774 1766 792 c 1,51,52
 1940 792 1940 792 2035 790 c 128,-1,53
 2130 788 2130 788 2208 786 c 0,54,55
 2228 786 2228 786 2231 786 c 128,-1,56
 2234 786 2234 786 2240 788 c 1,57,58
 2234 776 2234 776 2278 692 c 1,0,1
2192 132 m 1,59,60
 2192 46 2192 46 2170 -50 c 1,61,62
 2130 -56 2130 -56 2095 -60 c 128,-1,63
 2060 -64 2060 -64 2028 -64 c 0,64,65
 1892 -52 1892 -52 1734 -42 c 128,-1,66
 1576 -32 1576 -32 1456 -32 c 0,67,68
 1276 -32 1276 -32 1147 -22 c 128,-1,69
 1018 -12 1018 -12 882 0 c 1,70,71
 618 0 618 0 451 -23 c 128,-1,72
 284 -46 284 -46 192 -98 c 1,73,74
 154 -86 154 -86 93 -1 c 128,-1,75
 32 84 32 84 32 148 c 0,76,77
 32 220 32 220 184 258 c 1,78,-1
 500 302 l 2,79,80
 700 326 700 326 760 366 c 0,81,82
 774 374 774 374 810 454 c 0,83,84
 850 552 850 552 850 638 c 0,85,86
 850 766 850 766 758 846 c 1,87,-1
 554 870 l 1,88,89
 498 870 498 870 449 864 c 128,-1,90
 400 858 400 858 340 842 c 1,91,92
 278 782 278 782 242 672 c 1,93,94
 254 688 254 688 266 701 c 128,-1,95
 278 714 278 714 294 726 c 0,96,97
 354 780 354 780 406 792 c 1,98,99
 470 792 470 792 564 714 c 0,100,101
 612 676 612 676 635 641 c 128,-1,102
 658 606 658 606 658 566 c 0,103,104
 658 530 658 530 596 448 c 0,105,106
 520 354 520 354 410 320 c 1,107,108
 380 320 380 320 340 328 c 128,-1,109
 300 336 300 336 242 360 c 0,110,111
 108 412 108 412 80 478 c 1,112,113
 56 508 56 508 56 620 c 2,114,-1
 58 760 l 1,115,116
 82 808 82 808 226 892 c 1,117,118
 390 982 390 982 536 1012 c 1,119,120
 674 1012 674 1012 838 916 c 0,121,122
 974 836 974 836 1050 730 c 1,123,124
 1050 602 1050 602 1017 489 c 128,-1,125
 984 376 984 376 914 276 c 1,126,127
 884 260 884 260 588 212 c 0,128,129
 314 170 314 170 280 140 c 0,130,131
 256 116 256 116 252 90 c 0,132,133
 252 72 252 72 274 60 c 1,134,135
 344 98 344 98 459 114 c 128,-1,136
 574 130 574 130 740 130 c 0,137,138
 754 130 754 130 1022 114 c 0,139,140
 1190 104 1190 104 1284 104 c 0,141,142
 1406 104 1406 104 1582 94 c 128,-1,143
 1758 84 1758 84 1810 84 c 2,144,-1
 1962 86 l 2,145,146
 2182 86 2182 86 2192 132 c 1,59,60
470 544 m 1,147,148
 470 612 470 612 404 652 c 1,149,-1
 334 652 l 1,150,151
 308 638 308 638 278 602 c 128,-1,152
 248 566 248 566 248 534 c 0,153,154
 248 498 248 498 289 474 c 128,-1,155
 330 450 330 450 362 450 c 256,156,157
 394 450 394 450 448 478 c 1,158,159
 466 518 466 518 470 544 c 1,147,148
1470 328 m 1,160,161
 1470 450 1470 450 1378 450 c 1,162,163
 1372 446 1372 446 1368 444 c 0,164,165
 1352 434 1352 434 1340 424 c 0,166,167
 1308 398 1308 398 1306 378 c 0,168,169
 1302 352 1302 352 1350 288 c 1,170,171
 1410 288 1410 288 1442 300 c 128,-1,172
 1474 312 1474 312 1470 328 c 1,160,161
EndSplineSet
EndChar

StartChar: tm_e
Encoding: 2958 2958 56
Width: 1158
GlyphClass: 2
Flags: W
LayerCount: 2
Fore
SplineSet
1144 642 m 1,0,-1
 960 630 l 1,1,-1
 938 308 l 1,2,3
 938 168 938 168 926 75 c 128,-1,4
 914 -18 914 -18 904 -28 c 1,5,-1
 892 -30 l 1,6,7
 854 -30 854 -30 760 -10 c 1,8,9
 760 68 760 68 755 180 c 128,-1,10
 750 292 750 292 750 302 c 0,11,12
 750 462 750 462 744 540 c 128,-1,13
 738 618 738 618 728 628 c 1,14,-1
 546 636 l 1,15,16
 394 636 394 636 312 614 c 1,17,18
 258 566 258 566 210 476 c 0,19,20
 170 400 170 400 176 384 c 1,21,22
 196 408 196 408 232 428 c 0,23,24
 310 468 310 468 442 484 c 1,25,26
 520 454 520 454 570 348 c 1,27,-1
 606 232 l 1,28,29
 592 102 592 102 414 0 c 1,30,31
 324 0 324 0 260 13 c 128,-1,32
 196 26 196 26 134 60 c 1,33,34
 30 164 30 164 30 430 c 1,35,-1
 32 496 l 1,36,-1
 34 526 l 1,37,38
 70 586 70 586 264 690 c 0,39,40
 438 786 438 786 474 786 c 2,41,-1
 1120 776 l 2,42,43
 1132 772 1132 772 1144 642 c 1,0,-1
428 190 m 1,44,-1
 432 228 l 1,45,46
 432 356 432 356 306 356 c 0,47,48
 286 356 286 356 274 354 c 1,49,50
 244 334 244 334 222 286 c 1,51,-1
 198 212 l 1,52,53
 234 158 234 158 278 132 c 0,54,55
 310 114 310 114 332 118 c 1,56,57
 368 136 368 136 428 190 c 1,44,-1
EndSplineSet
EndChar

StartChar: tm_ee
Encoding: 2959 2959 57
Width: 1158
GlyphClass: 2
Flags: W
LayerCount: 2
Fore
SplineSet
1148 640 m 1,0,-1
 962 620 l 1,1,-1
 940 302 l 1,2,3
 940 156 940 156 927 69 c 128,-1,4
 914 -18 914 -18 904 -28 c 1,5,-1
 512 -196 l 2,6,7
 136 -354 136 -354 78 -424 c 1,8,9
 -24 -236 -24 -236 -12 -226 c 0,10,11
 40 -196 40 -196 400 -86 c 2,12,-1
 760 22 l 1,13,-1
 752 316 l 2,14,15
 752 460 752 460 744 537 c 128,-1,16
 736 614 736 614 724 624 c 1,17,-1
 556 630 l 2,18,19
 458 630 458 630 388 622 c 2,20,-1
 312 614 l 1,21,22
 262 566 262 566 214 480 c 1,23,24
 178 404 178 404 182 390 c 1,25,26
 200 408 200 408 238 430 c 0,27,28
 282 452 282 452 331 465 c 128,-1,29
 380 478 380 478 442 478 c 1,30,31
 520 448 520 448 568 344 c 1,32,-1
 606 232 l 1,33,34
 592 102 592 102 414 0 c 1,35,36
 324 0 324 0 260 13 c 128,-1,37
 196 26 196 26 134 60 c 1,38,39
 56 142 56 142 38 322 c 1,40,-1
 34 496 l 1,41,42
 82 594 82 594 260 694 c 0,43,44
 412 782 412 782 474 782 c 0,45,46
 738 782 738 782 888 776 c 128,-1,47
 1038 770 1038 770 1122 768 c 1,48,49
 1134 762 1134 762 1148 640 c 1,0,-1
432 190 m 1,50,51
 436 202 436 202 436 214 c 0,52,53
 436 230 436 230 422 276 c 0,54,55
 396 356 396 356 300 356 c 0,56,57
 284 354 284 354 274 354 c 1,58,59
 212 320 212 320 198 212 c 1,60,61
 204 178 204 178 262 144 c 0,62,63
 312 116 312 116 332 118 c 1,64,65
 362 134 362 134 432 190 c 1,50,51
EndSplineSet
EndChar

StartChar: tm_ai
Encoding: 2960 2960 58
Width: 1266
GlyphClass: 2
Flags: W
LayerCount: 2
Fore
SplineSet
1226 628 m 1,0,1
 1226 530 1226 530 1120 376 c 1,2,3
 1020 330 1020 330 771 307 c 128,-1,4
 522 284 522 284 466 268 c 0,5,6
 310 230 310 230 270 118 c 1,7,8
 282 78 282 78 422 -12 c 2,9,-1
 428 -16 l 1,10,11
 452 -16 452 -16 534 46 c 1,12,-1
 558 98 l 2,13,14
 570 128 570 128 577 161 c 128,-1,15
 584 194 584 194 592 242 c 1,16,-1
 664 250 l 2,17,18
 684 252 684 252 710 252 c 0,19,20
 726 252 726 252 730 248 c 1,21,22
 730 178 730 178 743 120 c 128,-1,23
 756 62 756 62 780 24 c 1,24,25
 816 14 816 14 850 8 c 128,-1,26
 884 2 884 2 916 2 c 0,27,28
 982 2 982 2 1016 24 c 1,29,30
 1056 208 1056 208 1050 252 c 1,31,32
 1068 258 1068 258 1100 258 c 0,33,34
 1142 258 1142 258 1163 255 c 128,-1,35
 1184 252 1184 252 1220 242 c 1,36,37
 1222 230 1222 230 1220 184 c 128,-1,38
 1218 138 1218 138 1206 42 c 1,39,40
 1104 -80 1104 -80 956 -132 c 1,41,42
 852 -120 852 -120 742 -56 c 0,43,44
 692 -28 692 -28 670 -12 c 0,45,46
 662 -2 662 -2 654 8 c 1,47,48
 562 -88 562 -88 462 -128 c 1,49,50
 430 -128 430 -128 384 -116 c 128,-1,51
 338 -104 338 -104 264 -74 c 0,52,53
 102 -8 102 -8 82 68 c 1,54,55
 82 122 82 122 103 189 c 128,-1,56
 124 256 124 256 140 279 c 128,-1,57
 156 302 156 302 302 332 c 1,58,59
 226 342 226 342 132 372 c 1,60,61
 74 438 74 438 44 546 c 1,62,63
 200 810 200 810 372 828 c 0,64,65
 382 830 382 830 408 830 c 0,66,67
 492 830 492 830 680 784 c 1,68,-1
 706 634 l 1,69,70
 736 690 736 690 830 770 c 0,71,72
 908 836 908 836 930 840 c 1,73,74
 1146 790 1146 790 1226 628 c 1,0,1
1070 574 m 0,75,76
 1070 684 1070 684 960 684 c 0,77,78
 902 684 902 684 832 654 c 1,79,80
 802 620 802 620 782 452 c 1,81,82
 754 448 754 448 734 448 c 0,83,84
 684 448 684 448 608 464 c 1,85,86
 584 626 584 626 474 722 c 1,87,88
 398 722 398 722 357 704 c 128,-1,89
 316 686 316 686 308 644 c 1,90,-1
 348 656 l 1,91,-1
 392 666 l 1,92,93
 422 666 422 666 462 640 c 0,94,95
 516 604 516 604 548 536 c 1,96,97
 526 452 526 452 474 396 c 0,98,99
 446 368 446 368 438 362 c 128,-1,100
 430 356 430 356 422 350 c 1,101,102
 452 360 452 360 645 380 c 128,-1,103
 838 400 838 400 928 430 c 0,104,105
 1070 478 1070 478 1070 574 c 0,75,76
384 508 m 0,106,107
 384 536 384 536 362 556 c 0,108,109
 346 574 346 574 314 578 c 1,110,111
 240 578 240 578 240 500 c 2,112,-1
 240 480 l 2,113,114
 240 442 240 442 314 442 c 0,115,116
 384 442 384 442 384 508 c 0,106,107
EndSplineSet
EndChar

StartChar: tm_o
Encoding: 2962 2962 59
Width: 1198
GlyphClass: 2
Flags: W
LayerCount: 2
Fore
SplineSet
1168 602 m 1,0,1
 1170 592 1170 592 1170 570 c 0,2,3
 1170 492 1170 492 1128 360 c 0,4,5
 1080 214 1080 214 1050 196 c 1,6,-1
 1012 190 l 1,7,-1
 936 186 l 1,8,9
 844 186 844 186 790 220 c 1,10,11
 802 156 802 156 822 128 c 0,12,13
 834 112 834 112 844 114 c 1,14,15
 910 96 910 96 987 89 c 128,-1,16
 1064 82 1064 82 1160 82 c 1,17,18
 1130 70 1130 70 1094 -54 c 1,19,20
 998 -42 998 -42 962 -42 c 0,21,22
 946 -42 946 -42 944 -44 c 2,23,-1
 856 -188 l 1,24,-1
 764 -236 l 1,25,26
 656 -284 656 -284 566 -302 c 1,27,28
 444 -284 444 -284 318 -190 c 0,29,30
 288 -172 288 -172 202 -68 c 0,31,32
 126 24 126 24 116 46 c 1,33,-1
 290 72 l 1,34,35
 318 12 318 12 346 -48 c 1,36,37
 368 -84 368 -84 390 -120 c 1,38,39
 438 -138 438 -138 546 -150 c 2,40,-1
 654 -158 l 1,41,-1
 746 -74 l 2,42,43
 778 -42 778 -42 804 -12 c 0,44,45
 812 -2 812 -2 824 12 c 1,46,-1
 766 38 l 2,47,48
 708 64 708 64 696 82 c 0,49,50
 640 170 640 170 640 370 c 0,51,52
 640 396 640 396 640 422 c 128,-1,53
 640 448 640 448 644 486 c 1,54,-1
 790 502 l 1,55,56
 780 442 780 442 780 398 c 0,57,58
 780 352 780 352 792 328 c 1,59,60
 832 304 832 304 898 290 c 1,61,-1
 948 328 l 2,62,63
 1002 372 1002 372 1022 414 c 1,64,65
 950 640 950 640 822 730 c 1,66,67
 750 754 750 754 646 754 c 0,68,69
 502 754 502 754 306 706 c 1,70,71
 186 588 186 588 186 530 c 1,72,-1
 192 510 l 1,73,74
 302 600 302 600 362 594 c 1,75,76
 506 546 506 546 568 352 c 1,77,78
 568 284 568 284 432 162 c 1,79,-1
 338 156 l 1,80,81
 228 156 228 156 138 186 c 1,82,83
 80 260 80 260 55 345 c 128,-1,84
 30 430 30 430 30 534 c 1,85,86
 66 600 66 600 126 670 c 0,87,88
 260 816 260 816 458 882 c 1,89,90
 616 882 616 882 746 852 c 128,-1,91
 876 822 876 822 994 748 c 0,92,93
 1100 680 1100 680 1168 602 c 1,0,1
410 348 m 2,94,95
 416 360 416 360 416 380 c 0,96,97
 416 450 416 450 324 450 c 1,98,-1
 274 446 l 1,99,100
 226 426 226 426 218 340 c 1,101,102
 228 278 228 278 332 278 c 0,103,104
 374 278 374 278 384 284 c 1,105,-1
 410 348 l 2,94,95
EndSplineSet
EndChar

StartChar: tm_oo
Encoding: 2963 2963 60
Width: 1216
GlyphClass: 2
Flags: W
LayerCount: 2
Fore
SplineSet
1186 94 m 1,0,1
 1174 86 1174 86 1110 -46 c 1,2,3
 1078 -42 1078 -42 1053 -39 c 128,-1,4
 1028 -36 1028 -36 1000 -36 c 0,5,6
 970 -36 970 -36 960 -42 c 0,7,8
 922 -74 922 -74 850 -176 c 1,9,-1
 750 -234 l 1,10,11
 624 -294 624 -294 492 -318 c 1,12,13
 420 -306 420 -306 342 -253 c 128,-1,14
 264 -200 264 -200 218 -144 c 1,15,16
 218 -50 218 -50 236 68 c 1,17,18
 242 70 242 70 250 74 c 0,19,20
 290 88 290 88 322 98 c 0,21,22
 430 130 430 130 508 130 c 2,23,-1
 556 128 l 2,24,25
 586 128 586 128 634 72 c 0,26,27
 670 32 670 32 686 -2 c 1,28,29
 686 -66 686 -66 574 -176 c 1,30,31
 586 -182 586 -182 592 -182 c 0,32,33
 632 -182 632 -182 715 -120 c 128,-1,34
 798 -58 798 -58 840 14 c 1,35,-1
 708 80 l 1,36,37
 650 166 650 166 650 386 c 0,38,39
 650 410 650 410 650 432 c 128,-1,40
 650 454 650 454 654 486 c 1,41,-1
 798 502 l 1,42,-1
 788 406 l 1,43,44
 788 350 788 350 804 328 c 1,45,46
 844 304 844 304 910 290 c 1,47,-1
 960 328 l 2,48,49
 1010 370 1010 370 1036 412 c 1,50,51
 1014 510 1014 510 957 598 c 128,-1,52
 900 686 900 686 836 730 c 1,53,54
 754 752 754 752 662 752 c 0,55,56
 588 752 588 752 510 742 c 128,-1,57
 432 732 432 732 318 706 c 1,58,59
 194 604 194 604 194 524 c 1,60,-1
 198 496 l 1,61,62
 208 518 208 518 270 554 c 128,-1,63
 332 590 332 590 370 590 c 1,64,65
 458 554 458 554 520 460 c 1,66,-1
 582 352 l 1,67,68
 572 292 572 292 500 214 c 1,69,-1
 444 160 l 1,70,71
 416 146 416 146 352 146 c 0,72,73
 218 146 218 146 142 178 c 1,74,75
 32 304 32 304 32 488 c 1,76,-1
 34 540 l 1,77,-1
 144 678 l 1,78,79
 276 816 276 816 470 882 c 1,80,81
 594 882 594 882 681 871 c 128,-1,82
 768 860 768 860 862 824 c 0,83,84
 998 774 998 774 1102 686 c 0,85,86
 1184 618 1184 618 1182 600 c 0,87,88
 1184 590 1184 590 1184 568 c 0,89,90
 1184 496 1184 496 1145 369 c 128,-1,91
 1106 242 1106 242 1082 220 c 1,92,-1
 1026 210 l 1,93,-1
 918 200 l 1,94,95
 848 200 848 200 806 222 c 1,96,-1
 804 210 l 1,97,98
 804 184 804 184 828 148 c 0,99,100
 838 136 838 136 850 124 c 0,101,102
 854 122 854 122 860 116 c 1,103,104
 968 86 968 86 1082 86 c 0,105,106
 1140 86 1140 86 1186 94 c 1,0,1
426 390 m 1,107,-1
 396 426 l 1,108,109
 366 444 366 444 282 444 c 1,110,111
 230 424 230 424 218 328 c 1,112,113
 228 268 228 268 330 268 c 0,114,115
 376 268 376 268 388 274 c 1,116,117
 426 336 426 336 426 390 c 1,107,-1
550 -46 m 1,118,119
 504 36 504 36 466 36 c 0,120,121
 416 36 416 36 384 -4 c 0,122,123
 366 -28 366 -28 362 -58 c 0,124,125
 362 -80 362 -80 402 -128 c 1,126,-1
 400 -124 l 1,127,128
 430 -148 430 -148 492 -148 c 1,129,-1
 520 -112 l 2,130,131
 548 -74 548 -74 550 -46 c 1,118,119
EndSplineSet
EndChar

StartChar: tm_au
Encoding: 2964 2964 61
Width: 2587
GlyphClass: 2
Flags: W
LayerCount: 2
Fore
SplineSet
2554 586 m 1,0,1
 2522 586 2522 586 2479 584 c 128,-1,2
 2436 582 2436 582 2386 576 c 1,3,4
 2374 500 2374 500 2349 218 c 128,-1,5
 2324 -64 2324 -64 2320 -76 c 1,6,-1
 2170 -156 l 1,7,8
 2174 -108 2174 -108 2178 -13 c 128,-1,9
 2182 82 2182 82 2182 202 c 0,10,11
 2182 482 2182 482 2170 558 c 1,12,13
 2142 564 2142 564 2100 564 c 1,14,15
 2054 526 2054 526 2018 262 c 1,16,17
 2008 140 2008 140 2004 105 c 128,-1,18
 2000 70 2000 70 1990 -10 c 1,19,-1
 1848 -64 l 1,20,21
 1872 44 1872 44 1872 326 c 2,22,-1
 1872 350 l 2,23,24
 1872 394 1872 394 1872 440 c 1,25,26
 1866 470 1866 470 1864 482 c 1,27,28
 1804 568 1804 568 1740 598 c 1,29,30
 1704 598 1704 598 1438 510 c 1,31,-1
 1410 428 l 2,32,33
 1404 408 1404 408 1400 388 c 128,-1,34
 1396 368 1396 368 1394 358 c 1,35,36
 1406 376 1406 376 1468 394 c 0,37,38
 1506 404 1506 404 1542 406 c 128,-1,39
 1578 408 1578 408 1644 408 c 1,40,41
 1686 384 1686 384 1725 317 c 128,-1,42
 1764 250 1764 250 1772 174 c 1,43,44
 1742 84 1742 84 1648 22 c 0,45,46
 1570 -28 1570 -28 1494 -28 c 1,47,48
 1260 96 1260 96 1230 284 c 1,49,50
 1230 338 1230 338 1272 431 c 128,-1,51
 1314 524 1314 524 1372 582 c 0,52,53
 1448 660 1448 660 1496 692 c 0,54,55
 1558 732 1558 732 1652 744 c 1,56,57
 1720 738 1720 738 1824 688 c 128,-1,58
 1928 638 1928 638 1984 582 c 1,59,60
 1998 634 1998 634 1998 704 c 1,61,62
 2116 704 2116 704 2255 706 c 128,-1,63
 2394 708 2394 708 2526 710 c 1,64,-1
 2554 586 l 1,0,1
1610 250 m 1,65,66
 1586 290 1586 290 1500 290 c 1,67,68
 1472 280 1472 280 1448 248 c 2,69,-1
 1420 206 l 1,70,-1
 1442 156 l 2,71,72
 1460 118 1460 118 1470 114 c 1,73,-1
 1578 114 l 1,74,75
 1598 144 1598 144 1604 174 c 128,-1,76
 1610 204 1610 204 1610 250 c 1,65,66
1168 602 m 1,77,78
 1170 592 1170 592 1170 570 c 0,79,80
 1170 492 1170 492 1128 360 c 0,81,82
 1080 214 1080 214 1050 196 c 1,83,-1
 1012 190 l 1,84,-1
 936 186 l 1,85,86
 844 186 844 186 790 220 c 1,87,88
 802 156 802 156 822 128 c 0,89,90
 834 112 834 112 844 114 c 1,91,92
 910 96 910 96 987 89 c 128,-1,93
 1064 82 1064 82 1160 82 c 1,94,95
 1130 70 1130 70 1094 -54 c 1,96,97
 998 -42 998 -42 962 -42 c 0,98,99
 946 -42 946 -42 944 -44 c 2,100,-1
 856 -188 l 1,101,-1
 764 -236 l 1,102,103
 656 -284 656 -284 566 -302 c 1,104,105
 444 -284 444 -284 318 -190 c 0,106,107
 288 -172 288 -172 202 -68 c 0,108,109
 126 24 126 24 116 46 c 1,110,-1
 290 72 l 1,111,112
 318 12 318 12 346 -48 c 1,113,114
 368 -84 368 -84 390 -120 c 1,115,116
 438 -138 438 -138 546 -150 c 2,117,-1
 654 -158 l 1,118,-1
 746 -74 l 2,119,120
 778 -42 778 -42 804 -12 c 0,121,122
 812 -2 812 -2 824 12 c 1,123,-1
 766 38 l 2,124,125
 708 64 708 64 696 82 c 0,126,127
 640 170 640 170 640 370 c 0,128,129
 640 396 640 396 640 422 c 128,-1,130
 640 448 640 448 644 486 c 1,131,-1
 790 502 l 1,132,133
 780 442 780 442 780 398 c 0,134,135
 780 352 780 352 792 328 c 1,136,137
 832 304 832 304 898 290 c 1,138,-1
 948 328 l 2,139,140
 1002 372 1002 372 1022 414 c 1,141,142
 950 640 950 640 822 730 c 1,143,144
 750 754 750 754 646 754 c 0,145,146
 502 754 502 754 306 706 c 1,147,148
 186 588 186 588 186 530 c 1,149,-1
 192 510 l 1,150,151
 302 600 302 600 362 594 c 1,152,153
 506 546 506 546 568 352 c 1,154,155
 568 284 568 284 432 162 c 1,156,-1
 338 156 l 1,157,158
 228 156 228 156 138 186 c 1,159,160
 80 260 80 260 55 345 c 128,-1,161
 30 430 30 430 30 534 c 1,162,163
 66 600 66 600 126 670 c 0,164,165
 260 816 260 816 458 882 c 1,166,167
 616 882 616 882 746 852 c 128,-1,168
 876 822 876 822 994 748 c 0,169,170
 1100 680 1100 680 1168 602 c 1,77,78
410 348 m 2,171,172
 416 360 416 360 416 380 c 0,173,174
 416 450 416 450 324 450 c 1,175,-1
 274 446 l 1,176,177
 226 426 226 426 218 340 c 1,178,179
 228 278 228 278 332 278 c 0,180,181
 374 278 374 278 384 284 c 1,182,-1
 410 348 l 2,171,172
EndSplineSet
EndChar

StartChar: tm_ka
Encoding: 2965 2965 62
Width: 1004
GlyphClass: 2
Flags: W
LayerCount: 2
Fore
SplineSet
976 174 m 1,0,1
 952 118 952 118 868 28 c 0,2,3
 800 -46 800 -46 764 -72 c 1,4,-1
 672 -64 l 1,5,-1
 602 -60 l 2,6,7
 552 -60 552 -60 498 -20 c 1,8,-1
 550 76 l 1,9,-1
 606 60 l 1,10,-1
 704 64 l 1,11,-1
 786 170 l 1,12,13
 786 210 786 210 779 262 c 128,-1,14
 772 314 772 314 760 376 c 1,15,16
 738 394 738 394 678 408 c 0,17,18
 664 410 664 410 653 410 c 128,-1,19
 642 410 642 410 638 410 c 0,20,21
 612 410 612 410 588 402 c 1,22,23
 552 148 552 148 514 54 c 1,24,-1
 408 -10 l 2,25,26
 344 -46 344 -46 296 -54 c 1,27,28
 180 -12 180 -12 110 76 c 0,29,30
 68 126 68 126 46 178 c 128,-1,31
 24 230 24 230 24 290 c 1,32,33
 98 384 98 384 168 412 c 1,34,35
 158 428 158 428 158 488 c 0,36,37
 158 520 158 520 158 557 c 128,-1,38
 158 594 158 594 160 636 c 1,39,40
 220 696 220 696 457 755 c 128,-1,41
 694 814 694 814 868 814 c 1,42,43
 886 754 886 754 886 694 c 1,44,45
 670 694 670 694 606 662 c 1,46,47
 604 650 604 650 603 630 c 128,-1,48
 602 610 602 610 602 598 c 2,49,-1
 602 544 l 1,50,-1
 790 544 l 1,51,52
 950 342 950 342 976 174 c 1,0,1
400 506 m 1,53,-1
 378 602 l 1,54,-1
 302 566 l 1,55,56
 274 514 274 514 274 456 c 1,57,58
 310 478 310 478 400 506 c 1,53,-1
406 360 m 1,59,60
 358 352 358 352 300 322 c 0,61,62
 220 286 220 286 192 238 c 1,63,64
 188 218 188 218 226 108 c 1,65,-1
 388 88 l 1,66,67
 408 328 408 328 406 360 c 1,59,60
EndSplineSet
EndChar

StartChar: tm_nga
Encoding: 2969 2969 63
Width: 1360
GlyphClass: 2
Flags: W
LayerCount: 2
Fore
SplineSet
1314 272 m 1,0,1
 1272 54 1272 54 1126 -54 c 1,2,-1
 1046 -58 l 1,3,4
 934 -58 934 -58 837 -29 c 128,-1,5
 740 0 740 0 718 0 c 0,6,7
 516 -30 516 -30 458 -56 c 1,8,9
 446 -20 446 -20 396 48 c 1,10,11
 406 64 406 64 560 94 c 2,12,-1
 736 130 l 1,13,14
 776 164 776 164 792 214 c 0,15,16
 798 236 798 236 798 260 c 256,17,18
 798 284 798 284 788 320 c 1,19,20
 754 344 754 344 705 354 c 128,-1,21
 656 364 656 364 586 364 c 1,22,23
 506 334 506 334 466 258 c 1,24,25
 460 236 460 236 458 215 c 128,-1,26
 456 194 456 194 456 174 c 0,27,28
 456 164 456 164 456 154 c 0,29,30
 460 142 460 142 460 138 c 2,31,-1
 314 92 l 1,32,-1
 328 548 l 1,33,34
 310 542 310 542 305 539 c 128,-1,35
 300 536 300 536 272 520 c 1,36,37
 192 406 192 406 170 196 c 1,38,-1
 162 4 l 1,39,-1
 56 16 l 1,40,41
 42 24 42 24 42 124 c 0,42,43
 42 416 42 416 158 642 c 1,44,45
 328 730 328 730 788 772 c 1,46,47
 812 696 812 696 812 672 c 1,48,49
 800 680 800 680 682 656 c 128,-1,50
 564 632 564 632 510 602 c 1,51,52
 474 524 474 524 474 412 c 1,53,-1
 550 472 l 2,54,55
 590 500 590 500 640 510 c 1,56,57
 718 510 718 510 780 489 c 128,-1,58
 842 468 842 468 896 428 c 1,59,60
 926 360 926 360 956 246 c 1,61,62
 956 224 956 224 903 163 c 128,-1,63
 850 102 850 102 826 94 c 1,64,65
 872 74 872 74 938 74 c 0,66,67
 1052 74 1052 74 1094 98 c 0,68,69
 1110 104 1110 104 1137 176 c 128,-1,70
 1164 248 1164 248 1164 298 c 0,71,72
 1164 350 1164 350 1098 486 c 0,73,74
 1022 642 1022 642 1005 698 c 128,-1,75
 988 754 988 754 988 824 c 0,76,77
 988 870 988 870 994 914 c 128,-1,78
 1000 958 1000 958 1016 1016 c 1,79,-1
 1232 1020 l 1,80,81
 1150 886 1150 886 1150 782 c 0,82,83
 1152 764 1152 764 1152 756 c 0,84,85
 1146 720 1146 720 1224 532 c 0,86,87
 1266 438 1266 438 1290 370 c 128,-1,88
 1314 302 1314 302 1314 272 c 1,0,1
EndSplineSet
EndChar

StartChar: tm_ca
Encoding: 2970 2970 64
Width: 976
GlyphClass: 2
Flags: W
LayerCount: 2
Fore
SplineSet
962 554 m 1,0,1
 932 486 932 486 938 434 c 1,2,3
 838 434 838 434 638 390 c 1,4,5
 638 306 638 306 623 234 c 128,-1,6
 608 162 608 162 578 56 c 1,7,8
 430 -32 430 -32 294 -60 c 1,9,10
 220 -28 220 -28 182 -4 c 0,11,12
 108 40 108 40 64 102 c 1,13,14
 30 208 30 208 30 260 c 0,15,16
 30 300 30 300 42 342 c 1,17,18
 58 356 58 356 182 418 c 1,19,-1
 182 498 l 2,20,21
 182 594 182 594 206 690 c 1,22,23
 234 690 234 690 448 740 c 0,24,25
 558 764 558 764 669 779 c 128,-1,26
 780 794 780 794 892 794 c 1,27,28
 882 744 882 744 882 714 c 0,29,30
 882 704 882 704 882 694 c 0,31,32
 886 680 886 680 886 674 c 1,33,34
 874 682 874 682 640 640 c 1,35,36
 640 606 640 606 640 578 c 128,-1,37
 640 550 640 550 644 528 c 1,38,-1
 962 554 l 1,0,1
442 488 m 1,39,40
 444 496 444 496 444 516 c 0,41,42
 444 546 444 546 432 592 c 1,43,-1
 338 566 l 1,44,45
 304 524 304 524 296 456 c 1,46,47
 364 462 364 462 442 488 c 1,39,40
460 138 m 1,48,49
 462 150 462 150 462 192 c 0,50,51
 462 230 462 230 461 265 c 128,-1,52
 460 300 460 300 460 332 c 2,53,-1
 460 358 l 1,54,55
 426 358 426 358 342 324 c 128,-1,56
 258 290 258 290 218 252 c 1,57,58
 216 220 216 220 236 142 c 1,59,60
 284 118 284 118 346 118 c 0,61,62
 406 118 406 118 460 138 c 1,48,49
EndSplineSet
EndChar

StartChar: tm_ja
Encoding: 2972 2972 65
Width: 1260
GlyphClass: 2
Flags: W
LayerCount: 2
Fore
SplineSet
1208 576 m 1,0,1
 1208 476 1208 476 1118 322 c 1,2,3
 1072 314 1072 314 1046 306 c 0,4,5
 1004 290 1004 290 984 284 c 1,6,7
 1016 284 1016 284 1082 264 c 0,8,9
 1124 252 1124 252 1152 241 c 128,-1,10
 1180 230 1180 230 1202 212 c 1,11,12
 1208 186 1208 186 1212 162 c 128,-1,13
 1216 138 1216 138 1216 108 c 0,14,15
 1216 42 1216 42 1196 -16 c 1,16,17
 1126 -92 1126 -92 958 -188 c 1,18,-1
 810 -154 l 2,19,20
 720 -130 720 -130 668 -94 c 1,21,22
 668 -52 668 -52 698 0 c 1,23,24
 708 -12 708 -12 768 -30 c 128,-1,25
 828 -48 828 -48 894 -48 c 0,26,27
 914 -48 914 -48 940 -47 c 128,-1,28
 966 -46 966 -46 1004 -32 c 1,29,30
 1032 32 1032 32 1042 114 c 1,31,32
 1030 130 1030 130 991 138 c 128,-1,33
 952 146 952 146 878 146 c 1,34,-1
 798 140 l 1,35,36
 712 124 712 124 648 -8 c 0,37,38
 600 -102 600 -102 588 -176 c 1,39,40
 534 -188 534 -188 482 -188 c 0,41,42
 294 -188 294 -188 94 -42 c 1,43,44
 82 -2 82 -2 82 36 c 0,45,46
 82 88 82 88 126 212 c 1,47,48
 154 234 154 234 224 256 c 2,49,-1
 300 278 l 2,50,51
 276 272 276 272 216 285 c 128,-1,52
 156 298 156 298 120 328 c 1,53,54
 72 390 72 390 44 468 c 1,55,56
 62 552 62 552 142 638 c 1,57,58
 230 740 230 740 346 762 c 1,59,60
 392 762 392 762 437 761 c 128,-1,61
 482 760 482 760 555 751 c 128,-1,62
 628 742 628 742 662 724 c 1,63,64
 676 700 676 700 682 646 c 1,65,66
 682 600 682 600 692 586 c 1,67,-1
 764 678 l 1,68,69
 836 756 836 756 908 786 c 1,70,71
 992 774 992 774 1070 726 c 0,72,73
 1172 666 1172 666 1208 576 c 1,0,1
1050 504 m 2,74,-1
 1050 556 l 2,75,76
 1050 578 1050 578 1032 602 c 1,77,78
 1016 632 1016 632 950 632 c 0,79,80
 874 632 874 632 810 602 c 1,81,82
 774 502 774 502 774 416 c 0,83,84
 774 396 774 396 778 392 c 2,85,-1
 690 398 l 1,86,-1
 596 402 l 1,87,88
 596 440 596 440 558 528 c 0,89,90
 514 634 514 634 456 658 c 0,91,92
 444 662 444 662 416 662 c 0,93,94
 386 662 386 662 341 647 c 128,-1,95
 296 632 296 632 296 586 c 1,96,97
 334 598 334 598 402 610 c 1,98,99
 436 598 436 598 479 559 c 128,-1,100
 522 520 522 520 534 478 c 1,101,102
 534 424 534 424 494 372 c 2,103,-1
 434 302 l 1,104,-1
 704 334 l 1,105,106
 866 358 866 358 948 390 c 0,107,108
 1050 432 1050 432 1050 504 c 2,74,-1
370 446 m 0,109,110
 370 516 370 516 306 516 c 0,111,112
 276 516 276 516 252 492 c 128,-1,113
 228 468 228 468 224 436 c 1,114,115
 224 382 224 382 288 376 c 0,116,117
 324 370 324 370 348 394 c 0,118,119
 370 412 370 412 370 446 c 0,109,110
778 246 m 1,120,-1
 764 248 l 1,121,122
 660 248 660 248 446 206 c 1,123,124
 304 156 304 156 262 60 c 1,125,126
 314 -16 314 -16 430 -80 c 1,127,-1
 538 70 l 1,128,129
 658 218 658 218 772 250 c 1,130,-1
 778 246 l 1,120,-1
EndSplineSet
EndChar

StartChar: tm_nya
Encoding: 2974 2974 66
Width: 1626
GlyphClass: 2
Flags: W
LayerCount: 2
Fore
SplineSet
1598 174 m 1,0,1
 1560 34 1560 34 1502 -82 c 1,2,3
 1398 -164 1398 -164 1254 -240 c 0,4,5
 1168 -284 1168 -284 1088 -314 c 128,-1,6
 1008 -344 1008 -344 924 -364 c 1,7,8
 858 -364 858 -364 764 -351 c 128,-1,9
 670 -338 670 -338 550 -314 c 0,10,11
 324 -272 324 -272 256 -240 c 1,12,13
 124 -128 124 -128 30 60 c 1,14,15
 30 118 30 118 35 149 c 128,-1,16
 40 180 40 180 54 228 c 0,17,18
 96 396 96 396 224 634 c 1,19,20
 252 628 252 628 302 604 c 1,21,22
 286 584 286 584 244 452 c 0,23,24
 196 290 196 290 196 156 c 0,25,26
 196 90 196 90 206 48 c 1,27,28
 262 -96 262 -96 486 -170 c 0,29,30
 578 -198 578 -198 834 -240 c 1,31,32
 1002 -226 1002 -226 1194 -126 c 0,33,34
 1368 -34 1368 -34 1408 38 c 1,35,36
 1414 74 1414 74 1414 126 c 0,37,38
 1414 176 1414 176 1408 246 c 1,39,40
 1356 320 1356 320 1264 320 c 1,41,42
 1176 298 1176 298 1144 222 c 1,43,44
 1132 144 1132 144 1124 61 c 128,-1,45
 1116 -22 1116 -22 1116 -76 c 1,46,47
 1072 -76 1072 -76 1028 -70 c 128,-1,48
 984 -64 984 -64 958 -60 c 1,49,-1
 966 214 l 1,50,-1
 980 624 l 1,51,-1
 938 626 l 1,52,-1
 874 628 l 2,53,54
 746 628 746 628 574 586 c 1,55,56
 538 542 538 542 497 459 c 128,-1,57
 456 376 456 376 460 354 c 1,58,59
 514 404 514 404 580 433 c 128,-1,60
 646 462 646 462 722 462 c 1,61,62
 840 418 840 418 894 218 c 1,63,64
 868 48 868 48 716 -20 c 1,65,-1
 642 -28 l 1,66,67
 528 -28 528 -28 420 32 c 1,68,69
 344 138 344 138 322 272 c 0,70,71
 312 332 312 332 312 472 c 1,72,73
 408 646 408 646 650 744 c 1,74,75
 704 744 704 744 835 751 c 128,-1,76
 966 758 966 758 1030 758 c 0,77,78
 1264 758 1264 758 1438 734 c 1,79,-1
 1454 618 l 1,80,-1
 1348 622 l 1,81,-1
 1198 624 l 1,82,83
 1164 470 1164 470 1164 414 c 1,84,85
 1224 446 1224 446 1278 464 c 128,-1,86
 1332 482 1332 482 1384 482 c 1,87,88
 1446 458 1446 458 1505 377 c 128,-1,89
 1564 296 1564 296 1598 174 c 1,0,1
724 200 m 0,90,91
 724 248 724 248 684 290 c 128,-1,92
 644 332 644 332 594 332 c 0,93,94
 554 332 554 332 524 286 c 128,-1,95
 494 240 494 240 494 192 c 0,96,97
 494 154 494 154 534 122 c 0,98,99
 570 98 570 98 620 88 c 1,100,101
 646 102 646 102 676 128 c 0,102,103
 722 170 722 170 724 200 c 0,90,91
EndSplineSet
EndChar

StartChar: tm_tta
Encoding: 2975 2975 67
Width: 1040
GlyphClass: 2
Flags: W
LayerCount: 2
Fore
SplineSet
1026 162 m 1,0,1
 1004 98 1004 98 976 -10 c 1,2,3
 908 -18 908 -18 804 -24 c 128,-1,4
 700 -30 700 -30 590 -30 c 0,5,6
 248 -30 248 -30 104 6 c 1,7,8
 96 16 96 16 87 117 c 128,-1,9
 78 218 78 218 74 289 c 128,-1,10
 70 360 70 360 70 436 c 0,11,12
 70 566 70 566 82 678 c 1,13,-1
 308 692 l 1,14,15
 298 682 298 682 274 528 c 0,16,17
 264 456 264 456 258 379 c 128,-1,18
 252 302 252 302 252 232 c 2,19,-1
 258 118 l 1,20,21
 276 106 276 106 428 106 c 0,22,23
 890 106 890 106 1026 162 c 1,0,1
EndSplineSet
EndChar

StartChar: tm_nna
Encoding: 2979 2979 68
Width: 1832
GlyphClass: 2
Flags: W
LayerCount: 2
Fore
SplineSet
1818 686 m 1,0,-1
 1798 590 l 1,1,-1
 1698 580 l 1,2,3
 1600 580 1600 580 1596 568 c 128,-1,4
 1592 556 1592 556 1586 469 c 128,-1,5
 1580 382 1580 382 1580 292 c 2,6,-1
 1572 4 l 1,7,8
 1538 -10 1538 -10 1454 -60 c 1,9,10
 1448 -46 1448 -46 1442 49 c 128,-1,11
 1436 144 1436 144 1436 218 c 0,12,13
 1436 358 1436 358 1433 415 c 128,-1,14
 1430 472 1430 472 1420 560 c 1,15,16
 1322 542 1322 542 1244 510 c 1,17,18
 1378 372 1378 372 1378 238 c 1,19,20
 1360 158 1360 158 1246 62 c 0,21,22
 1146 -22 1146 -22 1112 -22 c 0,23,24
 1022 -22 1022 -22 942 39 c 128,-1,25
 862 100 862 100 844 170 c 1,26,27
 844 148 844 148 762 80 c 2,28,-1
 660 0 l 1,29,30
 606 6 606 6 542 52 c 0,31,32
 486 88 486 88 470 118 c 1,33,34
 440 94 440 94 392 62 c 0,35,36
 328 20 328 20 290 -6 c 1,37,38
 30 44 30 44 30 328 c 1,39,40
 90 472 90 472 228 580 c 0,41,42
 340 668 340 668 436 686 c 1,43,44
 478 686 478 686 513 679 c 128,-1,45
 548 672 548 672 596 652 c 2,46,-1
 708 596 l 1,47,48
 782 632 782 632 926 680 c 1,49,50
 1046 662 1046 662 1112 604 c 1,51,52
 1128 620 1128 620 1154 637 c 128,-1,53
 1180 654 1180 654 1214 674 c 1,54,-1
 1818 686 l 1,0,-1
1040 538 m 1,55,56
 1012 550 1012 550 972 550 c 0,57,58
 920 550 920 550 870 536 c 128,-1,59
 820 522 820 522 810 510 c 1,60,61
 828 492 828 492 894 366 c 1,62,-1
 944 446 l 2,63,64
 992 516 992 516 1040 538 c 1,55,56
606 498 m 1,65,66
 574 548 574 548 414 548 c 0,67,68
 368 548 368 548 346 544 c 1,69,70
 300 516 300 516 252 452 c 0,71,72
 212 400 212 400 208 378 c 1,73,74
 212 382 212 382 254 393 c 128,-1,75
 296 404 296 404 332 404 c 1,76,-1
 376 398 l 1,77,78
 402 386 402 386 428 352 c 2,79,-1
 460 304 l 1,80,-1
 502 380 l 2,81,82
 548 456 548 456 606 498 c 1,65,66
760 222 m 1,83,-1
 730 308 l 1,84,85
 696 388 696 388 648 436 c 1,86,87
 580 344 580 344 580 248 c 0,88,89
 580 204 580 204 616 176 c 0,90,91
 626 168 626 168 647 159 c 128,-1,92
 668 150 668 150 696 150 c 0,93,94
 760 150 760 150 760 222 c 1,83,-1
1194 298 m 1,95,96
 1180 350 1180 350 1128 452 c 1,97,98
 1108 440 1108 440 1083 419 c 128,-1,99
 1058 398 1058 398 1034 374 c 0,100,101
 982 316 982 316 982 272 c 1,102,103
 988 216 988 216 1052 166 c 0,104,105
 1108 126 1108 126 1164 126 c 1,106,107
 1194 158 1194 158 1194 298 c 1,95,96
358 170 m 1,108,109
 358 214 358 214 348 250 c 128,-1,110
 338 286 338 286 306 298 c 1,111,-1
 282 302 l 1,112,113
 212 302 212 302 176 228 c 1,114,115
 176 162 176 162 252 138 c 0,116,117
 270 132 270 132 310 144 c 128,-1,118
 350 156 350 156 358 170 c 1,108,109
EndSplineSet
EndChar

StartChar: tm_ta
Encoding: 2980 2980 69
Width: 998
GlyphClass: 2
Flags: W
LayerCount: 2
Fore
SplineSet
968 72 m 1,0,1
 716 -210 716 -210 64 -536 c 1,2,-1
 -584 -836 l 1,3,-1
 -692 -774 l 1,4,5
 -298 -608 -298 -608 -90 -498 c 0,6,7
 440 -220 440 -220 768 92 c 1,8,9
 780 156 780 156 780 208 c 0,10,11
 780 262 780 262 766 302 c 1,12,13
 740 326 740 326 698 334 c 128,-1,14
 656 342 656 342 594 342 c 1,15,16
 576 258 576 258 534 132 c 0,17,18
 500 22 500 22 490 4 c 1,19,20
 286 -78 286 -78 268 -72 c 0,21,22
 30 52 30 52 30 288 c 1,23,24
 52 324 52 324 110 364 c 0,25,26
 154 390 154 390 180 396 c 1,27,28
 180 492 180 492 204 630 c 1,29,30
 232 658 232 658 419 702 c 128,-1,31
 606 746 606 746 808 746 c 0,32,33
 818 746 818 746 850 764 c 128,-1,34
 882 782 882 782 898 782 c 1,35,36
 918 776 918 776 926 726 c 1,37,-1
 930 608 l 1,38,39
 844 616 844 616 762 616 c 0,40,41
 730 616 730 616 706 616 c 128,-1,42
 682 616 682 616 644 608 c 1,43,44
 630 506 630 506 632 494 c 1,45,46
 696 494 696 494 812 462 c 1,47,48
 924 330 924 330 968 72 c 1,0,1
422 474 m 1,49,-1
 420 566 l 1,50,51
 366 572 366 572 322 512 c 0,52,53
 292 470 292 470 288 440 c 1,54,55
 306 444 306 444 348 454 c 128,-1,56
 390 464 390 464 422 474 c 1,49,-1
420 326 m 1,57,58
 394 326 394 326 302 291 c 128,-1,59
 210 256 210 256 194 228 c 1,60,-1
 200 162 l 1,61,62
 210 120 210 120 218 108 c 0,63,64
 234 84 234 84 356 60 c 1,65,66
 384 82 384 82 420 326 c 1,57,58
EndSplineSet
EndChar

StartChar: tm_na
Encoding: 2984 2984 70
Width: 922
GlyphClass: 2
Flags: W
LayerCount: 2
Fore
SplineSet
892 82 m 1,0,1
 750 -120 750 -120 406 -328 c 0,2,3
 166 -472 166 -472 -168 -612 c 1,4,-1
 -476 -734 l 1,5,-1
 -476 -536 l 1,6,7
 -420 -536 -420 -536 -302 -494 c 128,-1,8
 -184 -452 -184 -452 24 -354 c 0,9,10
 454 -154 454 -154 642 10 c 0,11,12
 672 38 672 38 701 115 c 128,-1,13
 730 192 730 192 724 238 c 1,14,15
 688 310 688 310 596 340 c 1,16,17
 506 310 506 310 466 244 c 0,18,19
 464 240 464 240 463 208 c 128,-1,20
 462 176 462 176 462 156 c 2,21,-1
 462 66 l 1,22,-1
 314 66 l 1,23,-1
 328 290 l 1,24,-1
 342 536 l 1,25,26
 304 530 304 530 276 516 c 1,27,28
 218 414 218 414 190 274 c 0,29,30
 178 208 178 208 173 168 c 128,-1,31
 168 128 168 128 168 74 c 2,32,-1
 168 -6 l 1,33,-1
 54 10 l 1,34,35
 44 26 44 26 44 110 c 0,36,37
 44 402 44 402 170 640 c 1,38,39
 264 684 264 684 494 728 c 1,40,41
 672 756 672 756 742 756 c 1,42,43
 742 722 742 722 756 672 c 2,44,-1
 772 614 l 1,45,46
 584 614 584 614 512 590 c 1,47,-1
 492 462 l 2,48,49
 486 424 486 424 483 414 c 128,-1,50
 480 404 480 404 478 398 c 1,51,52
 524 446 524 446 652 500 c 1,53,54
 758 458 758 458 826 334 c 0,55,56
 858 274 858 274 875 212 c 128,-1,57
 892 150 892 150 892 82 c 1,0,1
EndSplineSet
EndChar

StartChar: tm_nnna
Encoding: 2985 2985 71
Width: 1418
GlyphClass: 2
Flags: W
LayerCount: 2
Fore
SplineSet
1408 630 m 1,0,-1
 1240 602 l 1,1,2
 1230 508 1230 508 1220 405 c 128,-1,3
 1210 302 1210 302 1210 230 c 2,4,-1
 1202 54 l 1,5,-1
 1056 -18 l 1,6,7
 1056 22 1056 22 1054 109 c 128,-1,8
 1052 196 1052 196 1052 244 c 2,9,-1
 1050 582 l 1,10,11
 988 582 988 582 868 558 c 1,12,13
 980 352 980 352 980 228 c 1,14,15
 936 96 936 96 716 -12 c 1,16,17
 566 6 566 6 474 130 c 1,18,19
 372 16 372 16 274 -4 c 1,20,21
 196 20 196 20 122 108 c 0,22,23
 80 158 80 158 55 212 c 128,-1,24
 30 266 30 266 30 320 c 1,25,26
 54 448 54 448 176 566 c 0,27,28
 314 704 314 704 502 734 c 1,29,30
 618 716 618 716 748 648 c 1,31,-1
 862 730 l 1,32,-1
 1388 730 l 1,33,-1
 1408 630 l 1,0,-1
648 566 m 1,34,35
 640 580 640 580 542 580 c 0,36,37
 396 580 396 580 306 532 c 1,38,39
 270 500 270 500 232 442 c 0,40,41
 222 424 222 424 213 404 c 128,-1,42
 204 384 204 384 204 370 c 1,43,44
 254 422 254 422 390 422 c 1,45,46
 418 406 418 406 444 372 c 2,47,-1
 480 326 l 1,48,49
 488 342 488 342 497 358 c 128,-1,50
 506 374 506 374 541 425 c 128,-1,51
 576 476 576 476 600 509 c 128,-1,52
 624 542 624 542 648 566 c 1,34,35
792 194 m 1,53,54
 792 412 792 412 736 494 c 1,55,56
 666 432 666 432 625 342 c 128,-1,57
 584 252 584 252 590 214 c 1,58,59
 624 156 624 156 688 156 c 0,60,61
 742 156 742 156 792 194 c 1,53,54
390 238 m 0,62,63
 384 268 384 268 348 292 c 128,-1,64
 312 316 312 316 280 310 c 256,65,66
 248 304 248 304 226 276 c 0,67,68
 210 250 210 250 206 216 c 0,69,70
 206 190 206 190 220 174 c 0,71,72
 242 146 242 146 292 146 c 0,73,74
 332 146 332 146 356 162 c 0,75,76
 364 168 364 168 377 196 c 128,-1,77
 390 224 390 224 390 238 c 0,62,63
EndSplineSet
EndChar

StartChar: tm_pa
Encoding: 2986 2986 72
Width: 968
GlyphClass: 2
Flags: W
LayerCount: 2
Fore
SplineSet
908 1014 m 1,0,1
 916 974 916 974 920 934 c 128,-1,2
 924 894 924 894 924 836 c 0,3,4
 924 724 924 724 908 615 c 128,-1,5
 892 506 892 506 856 386 c 0,6,7
 784 136 784 136 658 -6 c 1,8,9
 564 -30 564 -30 458 -30 c 0,10,11
 268 -30 268 -30 132 32 c 1,12,13
 90 108 90 108 68 239 c 128,-1,14
 46 370 46 370 46 564 c 0,15,16
 46 672 46 672 54 742 c 1,17,-1
 258 780 l 1,18,19
 190 694 190 694 190 400 c 0,20,21
 190 234 190 234 214 194 c 1,22,23
 304 134 304 134 442 104 c 1,24,25
 576 134 576 134 668 214 c 1,26,27
 688 264 688 264 712 425 c 128,-1,28
 736 586 736 586 736 734 c 0,29,30
 736 944 736 944 686 1020 c 1,31,32
 760 1020 760 1020 811 1018 c 128,-1,33
 862 1016 862 1016 908 1014 c 1,0,1
EndSplineSet
EndChar

StartChar: tm_ma
Encoding: 2990 2990 73
Width: 1074
GlyphClass: 2
Flags: W
LayerCount: 2
Fore
SplineSet
1044 316 m 1,0,1
 1006 220 1006 220 854 84 c 0,2,3
 738 -18 738 -18 668 -56 c 1,4,-1
 618 -58 l 1,5,6
 500 -58 500 -58 366 -21 c 128,-1,7
 232 16 232 16 158 66 c 1,8,9
 130 100 130 100 84 336 c 0,10,11
 64 454 64 454 54 550 c 128,-1,12
 44 646 44 646 44 734 c 0,13,14
 44 786 44 786 48 810 c 1,15,16
 116 810 116 810 146 808 c 128,-1,17
 176 806 176 806 262 794 c 1,18,19
 244 710 244 710 234 608 c 128,-1,20
 224 506 224 506 224 386 c 0,21,22
 224 326 224 326 226 268 c 128,-1,23
 228 210 228 210 234 156 c 1,24,25
 334 102 334 102 436 102 c 1,26,27
 432 106 432 106 420 168 c 1,28,29
 412 234 412 234 411 265 c 128,-1,30
 410 296 410 296 410 314 c 0,31,32
 410 636 410 636 588 776 c 1,33,34
 742 776 742 776 868 742 c 1,35,36
 960 648 960 648 1002 544 c 128,-1,37
 1044 440 1044 440 1044 316 c 1,0,1
874 468 m 1,38,39
 802 602 802 602 616 602 c 1,40,41
 606 592 606 592 572 456 c 1,42,43
 540 300 540 300 540 200 c 0,44,45
 540 136 540 136 550 104 c 1,46,47
 604 104 604 104 643 107 c 128,-1,48
 682 110 682 110 722 120 c 1,49,50
 792 198 792 198 814 238 c 0,51,52
 874 340 874 340 874 468 c 1,38,39
EndSplineSet
EndChar

StartChar: tm_ya
Encoding: 2991 2991 74
Width: 1256
GlyphClass: 2
Flags: W
LayerCount: 2
Fore
SplineSet
1212 718 m 1,0,1
 1212 628 1212 628 1195 539 c 128,-1,2
 1178 450 1178 450 1136 304 c 0,3,4
 1070 56 1070 56 1012 16 c 0,5,6
 934 -32 934 -32 772 -32 c 0,7,8
 600 -32 600 -32 500 28 c 1,9,10
 466 92 466 92 466 206 c 1,11,12
 448 154 448 154 396 81 c 128,-1,13
 344 8 344 8 320 -4 c 1,14,15
 148 28 148 28 100 162 c 1,16,17
 76 214 76 214 60 374 c 128,-1,18
 44 534 44 534 44 678 c 1,19,20
 124 678 124 678 232 666 c 1,21,-1
 228 538 l 1,22,23
 228 172 228 172 318 172 c 1,24,-1
 338 176 l 1,25,26
 388 228 388 228 436 370 c 1,27,-1
 436 456 l 1,28,-1
 436 590 l 1,29,30
 488 600 488 600 547 607 c 128,-1,31
 606 614 606 614 640 618 c 1,32,33
 628 548 628 548 628 424 c 0,34,35
 628 200 628 200 680 108 c 1,36,-1
 760 102 l 2,37,38
 802 102 802 102 837 106 c 128,-1,39
 872 110 872 110 936 124 c 1,40,41
 940 146 940 146 944 162 c 0,42,43
 962 242 962 242 970 282 c 0,44,45
 1000 466 1000 466 1000 616 c 0,46,47
 1000 708 1000 708 988 780 c 1,48,-1
 1212 718 l 1,0,1
EndSplineSet
EndChar

StartChar: tm_ra
Encoding: 2992 2992 75
Width: 834
GlyphClass: 2
Flags: W
LayerCount: 2
Fore
SplineSet
820 658 m 1,0,1
 728 648 728 648 586 620 c 1,2,3
 586 404 586 404 576 249 c 128,-1,4
 566 94 566 94 554 -70 c 1,5,6
 508 -74 508 -74 442 -90 c 128,-1,7
 376 -106 376 -106 298 -134 c 0,8,9
 18 -226 18 -226 -164 -384 c 1,10,11
 -194 -342 -194 -342 -230 -228 c 1,12,13
 -172 -188 -172 -188 100 -94 c 0,14,15
 352 -10 352 -10 410 -4 c 1,16,-1
 400 250 l 1,17,18
 400 370 400 370 389 453 c 128,-1,19
 378 536 378 536 360 586 c 1,20,21
 332 584 332 584 306 576 c 0,22,23
 298 574 298 574 258 558 c 1,24,25
 252 548 252 548 244 508 c 0,26,27
 224 408 224 408 224 286 c 1,28,-1
 214 0 l 1,29,-1
 170 2 l 1,30,-1
 112 6 l 1,31,32
 112 76 112 76 109 156 c 128,-1,33
 106 236 106 236 104 286 c 0,34,35
 104 434 104 434 91 527 c 128,-1,36
 78 620 78 620 54 680 c 1,37,38
 160 714 160 714 414 742 c 0,39,40
 610 760 610 760 758 760 c 1,41,-1
 820 658 l 1,0,1
EndSplineSet
EndChar

StartChar: tm_rra
Encoding: 2993 2993 76
Width: 1020
GlyphClass: 2
Flags: W
LayerCount: 2
Fore
SplineSet
982 522 m 1,0,-1
 992 390 l 1,1,2
 992 280 992 280 952 126 c 1,3,4
 844 -52 844 -52 612 -254 c 0,5,6
 484 -366 484 -366 210 -570 c 0,7,8
 -18 -738 -18 -738 -68 -788 c 1,9,-1
 -134 -548 l 1,10,11
 -102 -534 -102 -534 -72 -522 c 0,12,13
 -16 -492 -16 -492 118 -410 c 0,14,15
 400 -236 400 -236 584 -64 c 0,16,17
 836 174 836 174 836 358 c 0,18,19
 836 442 836 442 782 512 c 0,20,21
 734 568 734 568 664 586 c 1,22,23
 474 492 474 492 474 -20 c 1,24,-1
 412 -20 l 1,25,-1
 346 -18 l 1,26,-1
 340 60 l 1,27,28
 340 194 340 194 324 274 c 0,29,30
 300 416 300 416 244 496 c 1,31,32
 166 400 166 400 166 226 c 0,33,34
 166 170 166 170 168 145 c 128,-1,35
 170 120 170 120 185 61 c 128,-1,36
 200 2 200 2 218 -16 c 1,37,-1
 70 6 l 1,38,39
 46 72 46 72 46 194 c 0,40,41
 46 460 46 460 168 656 c 1,42,43
 196 660 196 660 219 663 c 128,-1,44
 242 666 242 666 272 666 c 0,45,46
 312 666 312 666 346 656 c 1,47,48
 358 636 358 636 380 562 c 2,49,-1
 402 474 l 1,50,51
 436 568 436 568 460 610 c 0,52,53
 514 712 514 712 608 788 c 1,54,55
 686 788 686 788 799 714 c 128,-1,56
 912 640 912 640 982 522 c 1,0,-1
EndSplineSet
EndChar

StartChar: tm_la
Encoding: 2994 2994 77
Width: 1342
GlyphClass: 2
Flags: W
LayerCount: 2
Fore
SplineSet
1316 376 m 1,0,1
 1280 214 1280 214 1132 84 c 0,2,3
 1006 -26 1006 -26 900 -44 c 1,4,5
 722 4 722 4 606 108 c 1,6,-1
 598 236 l 1,7,-1
 606 436 l 2,8,9
 606 476 606 476 606 516 c 128,-1,10
 606 556 606 556 606 558 c 0,11,12
 540 598 540 598 420 620 c 1,13,14
 366 606 366 606 292 526 c 128,-1,15
 218 446 218 446 224 430 c 1,16,17
 270 456 270 456 348 456 c 0,18,19
 420 456 420 456 440 443 c 128,-1,20
 460 430 460 430 497 345 c 128,-1,21
 534 260 534 260 534 170 c 1,22,23
 528 142 528 142 435 74 c 128,-1,24
 342 6 342 6 300 0 c 1,25,26
 184 36 184 36 108 138 c 0,27,28
 72 188 72 188 51 243 c 128,-1,29
 30 298 30 298 30 358 c 1,30,31
 102 536 102 536 270 654 c 0,32,33
 380 730 380 730 482 754 c 1,34,35
 544 748 544 748 590 734 c 128,-1,36
 636 720 636 720 690 690 c 0,37,38
 786 638 786 638 824 566 c 1,39,40
 806 554 806 554 775 433 c 128,-1,41
 744 312 744 312 744 246 c 1,42,-1
 746 214 l 1,43,44
 778 166 778 166 868 134 c 0,45,46
 946 108 946 108 1002 108 c 1,47,48
 1024 120 1024 120 1067 212 c 128,-1,49
 1110 304 1110 304 1120 360 c 1,50,51
 1108 408 1108 408 1081 450 c 128,-1,52
 1054 492 1054 492 1002 542 c 0,53,54
 964 576 964 576 918 606 c 128,-1,55
 872 636 872 636 816 666 c 1,56,-1
 852 710 l 2,57,58
 890 752 890 752 898 754 c 0,59,60
 1196 682 1196 682 1316 376 c 1,0,1
372 316 m 0,61,62
 358 334 358 334 318 344 c 0,63,64
 308 346 308 346 286 346 c 0,65,66
 276 346 276 346 256 342 c 1,67,-1
 216 292 l 2,68,69
 194 260 194 260 188 234 c 1,70,71
 194 204 194 204 230 180 c 1,72,73
 270 160 270 160 310 160 c 0,74,75
 348 160 348 160 370 176 c 1,76,77
 390 202 390 202 390 258 c 0,78,79
 390 298 390 298 372 316 c 0,61,62
EndSplineSet
EndChar

StartChar: tm_lla
Encoding: 2995 2995 78
Width: 1368
GlyphClass: 2
Flags: W
LayerCount: 2
Fore
SplineSet
1354 586 m 1,0,1
 1322 586 1322 586 1279 584 c 128,-1,2
 1236 582 1236 582 1186 576 c 1,3,4
 1174 500 1174 500 1149 218 c 128,-1,5
 1124 -64 1124 -64 1120 -76 c 1,6,-1
 970 -156 l 1,7,8
 974 -108 974 -108 978 -13 c 128,-1,9
 982 82 982 82 982 202 c 0,10,11
 982 482 982 482 970 558 c 1,12,13
 942 564 942 564 900 564 c 1,14,15
 854 526 854 526 818 262 c 1,16,17
 808 140 808 140 804 105 c 128,-1,18
 800 70 800 70 790 -10 c 1,19,-1
 648 -64 l 1,20,21
 672 44 672 44 672 326 c 2,22,-1
 672 350 l 2,23,24
 672 394 672 394 672 440 c 1,25,26
 666 470 666 470 664 482 c 1,27,28
 604 568 604 568 540 598 c 1,29,30
 504 598 504 598 238 510 c 1,31,-1
 210 428 l 2,32,33
 204 408 204 408 200 388 c 128,-1,34
 196 368 196 368 194 358 c 1,35,36
 206 376 206 376 268 394 c 0,37,38
 306 404 306 404 342 406 c 128,-1,39
 378 408 378 408 444 408 c 1,40,41
 486 384 486 384 525 317 c 128,-1,42
 564 250 564 250 572 174 c 1,43,44
 542 84 542 84 448 22 c 0,45,46
 370 -28 370 -28 294 -28 c 1,47,48
 60 96 60 96 30 284 c 1,49,50
 30 338 30 338 72 431 c 128,-1,51
 114 524 114 524 172 582 c 0,52,53
 248 660 248 660 296 692 c 0,54,55
 358 732 358 732 452 744 c 1,56,57
 520 738 520 738 624 688 c 128,-1,58
 728 638 728 638 784 582 c 1,59,60
 798 634 798 634 798 704 c 1,61,62
 916 704 916 704 1055 706 c 128,-1,63
 1194 708 1194 708 1326 710 c 1,64,-1
 1354 586 l 1,0,1
410 250 m 1,65,66
 386 290 386 290 300 290 c 1,67,68
 272 280 272 280 248 248 c 2,69,-1
 220 206 l 1,70,-1
 242 156 l 2,71,72
 260 118 260 118 270 114 c 1,73,-1
 378 114 l 1,74,75
 398 144 398 144 404 174 c 128,-1,76
 410 204 410 204 410 250 c 1,65,66
EndSplineSet
EndChar

StartChar: tm_llla
Encoding: 2996 2996 79
Width: 1094
GlyphClass: 2
Flags: W
LayerCount: 2
Fore
SplineSet
1036 -86 m 1,0,-1
 982 -222 l 1,1,-1
 964 -224 l 1,2,3
 896 -224 896 -224 748 -194 c 1,4,-1
 658 -274 l 2,5,6
 598 -332 598 -332 540 -340 c 0,7,8
 480 -348 480 -348 376 -286 c 0,9,10
 264 -218 264 -218 232 -212 c 1,11,12
 130 -230 130 -230 30 -326 c 1,13,-1
 -72 -188 l 1,14,15
 -54 -166 -54 -166 22 -132 c 128,-1,16
 98 -98 98 -98 162 -86 c 1,17,18
 196 -90 196 -90 354 -146 c 0,19,20
 496 -194 496 -194 510 -190 c 0,21,22
 550 -184 550 -184 608 -158 c 1,23,24
 660 -140 660 -140 662 -132 c 1,25,26
 656 -118 656 -118 606 -86 c 0,27,28
 546 -48 546 -48 532 -34 c 1,29,30
 478 -40 478 -40 329 -1 c 128,-1,31
 180 38 180 38 130 72 c 1,32,33
 58 202 58 202 58 398 c 0,34,35
 58 590 58 590 114 760 c 1,36,37
 184 760 184 760 314 748 c 1,38,-1
 250 570 l 1,39,40
 198 408 198 408 198 310 c 0,41,42
 198 264 198 264 208 234 c 1,43,44
 234 192 234 192 328 140 c 0,45,46
 408 100 408 100 482 88 c 1,47,48
 460 122 460 122 426 264 c 0,49,50
 408 352 408 352 397 423 c 128,-1,51
 386 494 386 494 386 554 c 1,52,53
 470 692 470 692 720 788 c 1,54,55
 938 710 938 710 1036 610 c 1,56,57
 1048 550 1048 550 1048 480 c 0,58,59
 1048 312 1048 312 988 152 c 1,60,61
 944 98 944 98 844 40 c 2,62,-1
 720 -28 l 1,63,64
 780 -104 780 -104 920 -104 c 0,65,66
 1002 -104 1002 -104 1036 -86 c 1,0,-1
890 582 m 1,67,68
 844 618 844 618 720 618 c 0,69,70
 656 618 656 618 634 610 c 1,71,72
 586 570 586 570 564 500 c 0,73,74
 556 474 556 474 551 442 c 128,-1,75
 546 410 546 410 546 364 c 0,76,77
 546 316 546 316 548 284 c 128,-1,78
 550 252 550 252 565 187 c 128,-1,79
 580 122 580 122 616 88 c 1,80,-1
 768 132 l 2,81,82
 846 158 846 158 872 200 c 0,83,84
 884 212 884 212 898 282 c 0,85,86
 904 322 904 322 908 358 c 128,-1,87
 912 394 912 394 912 432 c 0,88,89
 912 526 912 526 890 582 c 1,67,68
EndSplineSet
EndChar

StartChar: tm_va
Encoding: 2997 2997 80
Width: 1188
GlyphClass: 2
Flags: W
LayerCount: 2
Fore
SplineSet
1176 932 m 1,0,1
 1120 868 1120 868 1090 799 c 128,-1,2
 1060 730 1060 730 1060 654 c 1,3,4
 1066 584 1066 584 1116 416 c 128,-1,5
 1166 248 1166 248 1160 184 c 1,6,7
 1124 28 1124 28 952 -120 c 1,8,9
 890 -120 890 -120 843 -116 c 128,-1,10
 796 -112 796 -112 739 -95 c 128,-1,11
 682 -78 682 -78 592 -35 c 128,-1,12
 502 8 502 8 452 16 c 1,13,14
 376 8 376 8 262 -44 c 1,15,-1
 180 82 l 1,16,-1
 202 82 l 2,17,18
 308 82 308 82 476 156 c 0,19,20
 680 246 680 246 692 338 c 1,21,-1
 696 390 l 1,22,23
 696 588 696 588 552 640 c 1,24,25
 488 640 488 640 393 610 c 128,-1,26
 298 580 298 580 274 536 c 1,27,-1
 382 536 l 1,28,29
 464 484 464 484 508 360 c 1,30,31
 476 274 476 274 346 162 c 1,32,-1
 296 156 l 1,33,34
 30 156 30 156 30 336 c 0,35,36
 30 452 30 452 145 590 c 128,-1,37
 260 728 260 728 436 786 c 1,38,39
 580 766 580 766 697 692 c 128,-1,40
 814 618 814 618 844 536 c 1,41,42
 844 436 844 436 839 373 c 128,-1,43
 834 310 834 310 810 234 c 1,44,45
 780 196 780 196 700 142 c 0,46,47
 664 120 664 120 638 106 c 128,-1,48
 612 92 612 92 590 82 c 1,49,50
 678 28 678 28 816 28 c 0,51,52
 884 28 884 28 920 38 c 1,53,54
 992 102 992 102 1022 214 c 1,55,56
 1022 242 1022 242 1012 284 c 128,-1,57
 1002 326 1002 326 974 412 c 0,58,59
 918 582 918 582 906 656 c 1,60,61
 906 802 906 802 964 952 c 1,62,63
 982 952 982 952 1013 950 c 128,-1,64
 1044 948 1044 948 1084 942 c 2,65,-1
 1176 932 l 1,0,1
318 272 m 1,66,67
 340 298 340 298 340 346 c 0,68,69
 340 400 340 400 312 422 c 0,70,71
 300 428 300 428 284 428 c 0,72,73
 254 428 254 428 208 408 c 1,74,75
 176 382 176 382 176 332 c 1,76,77
 186 314 186 314 226 290 c 1,78,79
 266 274 266 274 300 270 c 1,80,-1
 318 272 l 1,66,67
EndSplineSet
EndChar

StartChar: tm_ssa
Encoding: 2999 2999 81
Width: 1678
GlyphClass: 2
Flags: W
LayerCount: 2
Fore
SplineSet
1666 0 m 1,0,1
 1536 -28 1536 -28 1401 -42 c 128,-1,2
 1266 -56 1266 -56 1160 -56 c 1,3,-1
 486 -576 l 1,4,5
 462 -524 462 -524 400 -416 c 1,6,7
 696 -248 696 -248 948 -56 c 1,8,9
 888 -56 888 -56 836 -52 c 0,10,11
 764 -42 764 -42 720 -38 c 0,12,13
 538 -20 538 -20 444 4 c 1,14,15
 376 -24 376 -24 288 -86 c 1,16,-1
 186 70 l 1,17,18
 240 70 240 70 296 82 c 128,-1,19
 352 94 352 94 410 122 c 0,20,21
 572 192 572 192 692 336 c 1,22,23
 692 434 692 434 656 519 c 128,-1,24
 620 604 620 604 562 634 c 1,25,26
 520 634 520 634 484 630 c 128,-1,27
 448 626 448 626 384 601 c 128,-1,28
 320 576 320 576 274 532 c 1,29,30
 364 532 364 532 388 526 c 1,31,32
 448 482 448 482 498 320 c 1,33,34
 438 204 438 204 362 158 c 1,35,36
 236 158 236 158 158 190 c 128,-1,37
 80 222 80 222 30 304 c 1,38,39
 30 468 30 468 160 604 c 0,40,41
 264 718 264 718 428 780 c 1,42,43
 580 750 580 750 662 706 c 0,44,45
 790 638 790 638 844 512 c 1,46,47
 844 440 844 440 825 368 c 128,-1,48
 806 296 806 296 764 222 c 1,49,50
 732 202 732 202 693 174 c 128,-1,51
 654 146 654 146 602 104 c 1,52,53
 774 68 774 68 990 68 c 1,54,-1
 1094 70 l 1,55,-1
 1168 142 l 1,56,57
 1096 158 1096 158 1024 204 c 0,58,59
 942 252 942 252 914 304 c 1,60,61
 906 348 906 348 905 367 c 128,-1,62
 904 386 904 386 904 398 c 0,63,64
 904 442 904 442 914 498 c 1,65,66
 998 642 998 642 1188 722 c 1,67,68
 1386 684 1386 684 1490 570 c 1,69,70
 1502 482 1502 482 1502 414 c 0,71,72
 1502 344 1502 344 1490 290 c 1,73,74
 1434 206 1434 206 1294 70 c 1,75,76
 1388 82 1388 82 1446 94 c 128,-1,77
 1504 106 1504 106 1628 142 c 1,78,-1
 1666 0 l 1,0,1
1338 304 m 1,79,-1
 1346 374 l 1,80,81
 1346 426 1346 426 1338 468 c 128,-1,82
 1330 510 1330 510 1306 570 c 1,83,84
 1190 570 1190 570 1118 538 c 1,85,86
 1060 456 1060 456 1060 392 c 1,87,88
 1074 338 1074 338 1103 312 c 128,-1,89
 1132 286 1132 286 1252 222 c 1,90,-1
 1338 304 l 1,79,-1
338 290 m 1,91,-1
 344 322 l 1,92,93
 344 362 344 362 312 424 c 1,94,-1
 272 424 l 2,95,96
 250 424 250 424 226 428 c 1,97,98
 186 372 186 372 180 308 c 1,99,100
 198 256 198 256 266 256 c 0,101,102
 316 256 316 256 338 290 c 1,91,-1
EndSplineSet
EndChar

StartChar: tm_sa
Encoding: 3000 3000 82
Width: 1720
GlyphClass: 2
Flags: W
LayerCount: 2
Fore
SplineSet
1686 428 m 1,0,1
 1620 78 1620 78 1338 -42 c 1,2,3
 1038 4 1038 4 942 132 c 1,4,5
 966 276 966 276 1022 484 c 1,6,7
 1002 524 1002 524 994 532 c 0,8,9
 972 554 972 554 930 572 c 1,10,11
 848 560 848 560 828 508 c 1,12,-1
 816 444 l 1,13,-1
 816 0 l 1,14,15
 772 0 772 0 660 -48 c 1,16,17
 660 -20 660 -20 658 41 c 128,-1,18
 656 102 656 102 656 136 c 0,19,20
 656 258 656 258 622 456 c 1,21,22
 622 576 622 576 474 576 c 0,23,24
 442 576 442 576 318 558 c 1,25,26
 284 516 284 516 220 398 c 1,27,28
 254 404 254 404 281 408 c 128,-1,29
 308 412 308 412 338 412 c 0,30,31
 390 412 390 412 426 398 c 1,32,33
 460 378 460 378 496 306 c 0,34,35
 512 274 512 274 522 237 c 128,-1,36
 532 200 532 200 536 156 c 1,37,38
 536 98 536 98 450 34 c 0,39,40
 436 20 436 20 314 -50 c 1,41,42
 242 -38 242 -38 158 50 c 0,43,44
 64 146 64 146 36 250 c 0,45,46
 34 264 34 264 34 277 c 128,-1,47
 34 290 34 290 34 296 c 2,48,-1
 34 346 l 1,49,-1
 106 472 l 2,50,51
 146 540 146 540 214 602 c 0,52,53
 298 678 298 678 446 766 c 1,54,55
 564 750 564 750 642 690 c 1,56,-1
 724 604 l 1,57,-1
 782 676 l 1,58,59
 824 718 824 718 904 748 c 1,60,61
 958 742 958 742 1052 688 c 0,62,63
 1158 624 1158 624 1194 542 c 1,64,65
 1192 518 1192 518 1146 376 c 0,66,67
 1108 250 1108 250 1108 204 c 0,68,69
 1108 146 1108 146 1170 122 c 0,70,71
 1206 110 1206 110 1286 110 c 0,72,73
 1380 110 1380 110 1426 146 c 1,74,75
 1480 210 1480 210 1480 358 c 0,76,77
 1480 394 1480 394 1476 406 c 0,78,79
 1372 590 1372 590 1206 678 c 1,80,81
 1218 734 1218 734 1290 806 c 1,82,83
 1450 692 1450 692 1464 678 c 0,84,85
 1598 564 1598 564 1686 428 c 1,0,1
396 164 m 1,86,-1
 400 204 l 1,87,-1
 396 244 l 1,88,89
 382 278 382 278 347 290 c 128,-1,90
 312 302 312 302 248 302 c 1,91,92
 214 290 214 290 200 250 c 0,93,94
 196 230 196 230 196 216 c 0,95,96
 196 186 196 186 208 150 c 1,97,98
 252 100 252 100 298 100 c 0,99,100
 356 100 356 100 396 164 c 1,86,-1
EndSplineSet
EndChar

StartChar: tm_ha
Encoding: 3001 3001 83
Width: 1948
GlyphClass: 2
Flags: W
LayerCount: 2
Fore
SplineSet
1894 484 m 1,0,1
 1902 434 1902 434 1903 411 c 128,-1,2
 1904 388 1904 388 1904 362 c 0,3,4
 1904 118 1904 118 1778 -60 c 1,5,6
 1532 -238 1532 -238 892 -388 c 1,7,8
 696 -428 696 -428 502 -468 c 0,9,10
 424 -484 424 -484 112 -554 c 1,11,12
 106 -494 106 -494 68 -378 c 1,13,-1
 572 -304 l 2,14,15
 724 -284 724 -284 861 -257 c 128,-1,16
 998 -230 998 -230 1120 -194 c 0,17,18
 1376 -120 1376 -120 1432 -96 c 0,19,20
 1574 -36 1574 -36 1648 62 c 0,21,22
 1730 172 1730 172 1766 386 c 1,23,24
 1730 468 1730 468 1678 508 c 0,25,26
 1642 538 1642 538 1560 564 c 1,27,28
 1368 404 1368 404 1368 130 c 0,29,30
 1368 62 1368 62 1382 0 c 1,31,32
 1346 0 1346 0 1315 1 c 128,-1,33
 1284 2 1284 2 1264 12 c 1,34,35
 1264 176 1264 176 1232 289 c 128,-1,36
 1200 402 1200 402 1156 446 c 1,37,38
 1090 344 1090 344 1090 124 c 0,39,40
 1090 96 1090 96 1090 72 c 128,-1,41
 1090 48 1090 48 1094 12 c 1,42,43
 1010 -54 1010 -54 896 -54 c 0,44,45
 808 -54 808 -54 656 -4 c 0,46,47
 586 18 586 18 541 26 c 128,-1,48
 496 34 496 34 466 34 c 1,49,50
 430 22 430 22 382 -8 c 2,51,-1
 314 -50 l 1,52,-1
 210 60 l 1,53,54
 566 162 566 162 682 352 c 0,55,56
 688 362 688 362 691 376 c 128,-1,57
 694 390 694 390 694 410 c 2,58,-1
 698 474 l 1,59,60
 684 526 684 526 626 588 c 0,61,62
 550 670 550 670 458 680 c 1,63,64
 428 672 428 672 391 655 c 128,-1,65
 354 638 354 638 314 610 c 0,66,67
 236 560 236 560 224 526 c 1,68,-1
 280 540 l 2,69,70
 304 548 304 548 342 548 c 0,71,72
 386 548 386 548 440 489 c 128,-1,73
 494 430 494 430 494 370 c 0,74,75
 494 316 494 316 452 256 c 1,76,-1
 370 168 l 1,77,78
 328 156 328 156 284 156 c 0,79,80
 122 156 122 156 34 276 c 1,81,-1
 30 318 l 1,82,83
 30 448 30 448 130 593 c 128,-1,84
 230 738 230 738 378 792 c 1,85,86
 444 792 444 792 512 777 c 128,-1,87
 580 762 580 762 656 724 c 0,88,89
 804 650 804 650 824 580 c 1,90,91
 832 530 832 530 833 507 c 128,-1,92
 834 484 834 484 834 460 c 0,93,94
 834 336 834 336 790 262 c 0,95,96
 758 208 758 208 694 172 c 2,97,-1
 606 124 l 1,98,99
 758 86 758 86 816 86 c 0,100,101
 898 86 898 86 970 118 c 1,102,103
 968 126 968 126 966 143 c 128,-1,104
 964 160 964 160 964 174 c 0,105,106
 964 278 964 278 991 411 c 128,-1,107
 1018 544 1018 544 1074 608 c 1,108,109
 1114 618 1114 618 1162 618 c 2,110,-1
 1194 618 l 1,111,-1
 1250 620 l 1,112,113
 1268 584 1268 584 1302 418 c 1,114,115
 1326 518 1326 518 1390 612 c 2,116,-1
 1500 762 l 1,117,118
 1620 744 1620 744 1710 680 c 0,119,120
 1772 638 1772 638 1834 566 c 1,121,-1
 1894 484 l 1,0,1
332 330 m 0,122,123
 332 412 332 412 276 436 c 1,124,125
 228 442 228 442 197 408 c 128,-1,126
 166 374 166 374 166 336 c 0,127,128
 166 262 166 262 264 262 c 2,129,-1
 288 262 l 2,130,131
 302 262 302 262 310 266 c 0,132,133
 332 278 332 278 332 330 c 0,122,123
EndSplineSet
EndChar

StartChar: tm_aakaar
Encoding: 3006 3006 84
Width: 840
GlyphClass: 2
Flags: W
LayerCount: 2
Fore
SplineSet
826 648 m 1,0,-1
 612 630 l 1,1,-1
 522 -44 l 1,2,3
 438 -80 438 -80 406 -80 c 1,4,-1
 418 604 l 1,5,6
 412 604 412 604 400 604 c 128,-1,7
 388 604 388 604 322 593 c 128,-1,8
 256 582 256 582 243 570 c 128,-1,9
 230 558 230 558 210 357 c 128,-1,10
 190 156 190 156 190 -20 c 1,11,12
 112 -56 112 -56 80 -60 c 1,13,-1
 70 -56 l 1,14,15
 70 -2 70 -2 72 108 c 128,-1,16
 74 218 74 218 74 276 c 0,17,18
 74 390 74 390 74 499 c 128,-1,19
 74 608 74 608 76 712 c 1,20,21
 186 764 186 764 540 764 c 0,22,23
 752 764 752 764 788 750 c 1,24,-1
 826 648 l 1,0,-1
EndSplineSet
EndChar

StartChar: tm_ikaar
Encoding: 3007 3007 85
Width: 530
GlyphClass: 2
Flags: W
LayerCount: 2
Fore
SplineSet
258 20 m 1,0,-1
 100 20 l 1,1,-1
 100 1022 l 2,2,3
 100 1362 100 1362 -106 1362 c 2,4,-1
 -172 1362 l 2,5,6
 -256 1362 -256 1362 -316 1296 c 128,-1,7
 -376 1230 -376 1230 -376 1136 c 2,8,-1
 -376 1088 l 2,9,10
 -376 1016 -376 1016 -332 974 c 1,11,-1
 -492 974 l 1,12,13
 -510 992 -510 992 -522 1024 c 1,14,-1
 -536 1088 l 1,15,-1
 -536 1136 l 2,16,17
 -536 1280 -536 1280 -438 1378 c 128,-1,18
 -340 1476 -340 1476 -172 1476 c 2,19,-1
 -106 1476 l 2,20,21
 62 1476 62 1476 160 1347 c 128,-1,22
 258 1218 258 1218 258 1022 c 2,23,-1
 258 20 l 1,0,-1
EndSplineSet
EndChar

StartChar: tm_iikaar
Encoding: 3008 3008 86
Width: 0
GlyphClass: 4
Flags: W
LayerCount: 2
Fore
SplineSet
-130 1342 m 2,0,1
 -130 1300 -130 1300 -180 1248 c 1,2,3
 -230 1204 -230 1204 -290 1204 c 2,4,-1
 -380 1204 l 2,5,6
 -454 1204 -454 1204 -508 1258 c 1,7,8
 -556 1312 -556 1312 -556 1390 c 2,9,-1
 -554 1434 l 2,10,11
 -554 1448 -554 1448 -540 1478 c 1,12,13
 -588 1478 -588 1478 -644 1428 c 128,-1,14
 -700 1378 -700 1378 -700 1318 c 2,15,-1
 -700 1270 l 2,16,17
 -700 1226 -700 1226 -681 1179 c 128,-1,18
 -662 1132 -662 1132 -630 1090 c 1,19,-1
 -790 1090 l 1,20,-1
 -812 1132 l 1,21,-1
 -832 1178 l 2,22,23
 -856 1242 -856 1242 -856 1270 c 2,24,-1
 -856 1342 l 2,25,26
 -856 1438 -856 1438 -758 1516 c 0,27,28
 -708 1556 -708 1556 -657 1576 c 128,-1,29
 -606 1596 -606 1596 -546 1596 c 2,30,-1
 -414 1596 l 2,31,32
 -318 1596 -318 1596 -224 1541 c 128,-1,33
 -130 1486 -130 1486 -130 1408 c 2,34,-1
 -130 1342 l 2,0,1
-290 1388 m 2,35,-1
 -290 1430 l 2,36,37
 -290 1456 -290 1456 -300 1466 c 2,38,-1
 -324 1488 l 1,39,-1
 -358 1496 l 1,40,41
 -384 1496 -384 1496 -402 1480 c 0,42,43
 -420 1468 -420 1468 -428 1430 c 1,44,-1
 -428 1388 l 2,45,46
 -428 1358 -428 1358 -411 1341 c 128,-1,47
 -394 1324 -394 1324 -358 1318 c 0,48,49
 -334 1318 -334 1318 -310 1336 c 1,50,51
 -290 1356 -290 1356 -290 1388 c 2,35,-1
EndSplineSet
EndChar

StartChar: tm_ukaar
Encoding: 3009 3009 87
Width: 774
GlyphClass: 4
Flags: W
LayerCount: 2
Fore
SplineSet
-222 783 m 1,0,1
 -198 789 -198 789 -116 789 c 2,2,-1
 130 785 l 1,3,-1
 512 781 l 1,4,5
 614 745 614 745 688 647 c 1,6,-1
 694 613 l 1,7,-1
 700 539 l 1,8,-1
 700 495 l 2,9,10
 700 435 700 435 694 417 c 1,11,12
 634 333 634 333 506 267 c 1,13,14
 362 267 362 267 232 321 c 1,15,16
 184 375 184 375 152 511 c 1,17,18
 170 555 170 555 256 647 c 1,19,-1
 202 649 l 1,20,-1
 146 651 l 1,21,-1
 -74 645 l 2,22,23
 -204 645 -204 645 -212 637 c 1,24,-1
 -212 829 l 1,25,-1
 -222 783 l 1,0,1
554 525 m 1,26,27
 560 573 560 573 522 610 c 128,-1,28
 484 647 484 647 430 647 c 2,29,-1
 400 645 l 2,30,31
 388 645 388 645 344 596 c 128,-1,32
 300 547 300 547 304 525 c 1,33,34
 304 473 304 473 356 439 c 0,35,36
 400 407 400 407 446 407 c 0,37,38
 554 407 554 407 554 525 c 1,26,27
EndSplineSet
EndChar

StartChar: tm_uukaar
Encoding: 3010 3010 88
Width: 710
GlyphClass: 4
Flags: W
LayerCount: 2
Fore
SplineSet
-138 798 m 2,0,-1
 128 796 l 1,1,2
 132 828 132 828 174 890 c 0,3,4
 238 982 238 982 346 1046 c 1,5,6
 466 1070 466 1070 540 1070 c 2,7,-1
 578 1070 l 1,8,-1
 632 1062 l 1,9,10
 632 1008 632 1008 644 878 c 1,11,12
 630 876 630 876 548 891 c 128,-1,13
 466 906 466 906 424 906 c 0,14,15
 300 906 300 906 282 798 c 1,16,-1
 290 796 l 1,17,-1
 390 790 l 1,18,19
 512 742 512 742 586 578 c 1,20,21
 544 444 544 444 440 346 c 1,22,-1
 362 340 l 1,23,24
 284 340 284 340 146 370 c 1,25,26
 116 406 116 406 90 488 c 1,27,28
 70 574 70 574 70 616 c 0,29,30
 70 638 70 638 76 650 c 1,31,32
 54 656 54 656 14 656 c 2,33,-1
 -16 656 l 1,34,-1
 -136 648 l 1,35,36
 -194 730 -194 730 -194 762 c 0,37,38
 -194 798 -194 798 -138 798 c 2,0,-1
418 518 m 1,39,-1
 422 556 l 1,40,-1
 418 590 l 1,41,42
 374 658 374 658 280 658 c 0,43,44
 254 658 254 658 238 650 c 1,45,46
 210 622 210 622 210 572 c 2,47,-1
 210 548 l 1,48,-1
 206 504 l 1,49,50
 272 450 272 450 334 450 c 0,51,52
 368 450 368 450 390 460 c 1,53,-1
 418 518 l 1,39,-1
EndSplineSet
EndChar

StartChar: tm_ekaar
Encoding: 3014 3014 89
Width: 1160
GlyphClass: 2
Flags: W
LayerCount: 2
Fore
SplineSet
1132 642 m 1,0,1
 1132 554 1132 554 978 -6 c 1,2,-1
 836 -32 l 1,3,-1
 876 182 l 2,4,5
 912 392 912 392 912 530 c 0,6,7
 912 666 912 666 876 730 c 0,8,9
 870 748 870 748 804 770 c 0,10,11
 770 780 770 780 727 786 c 128,-1,12
 684 792 684 792 632 792 c 0,13,14
 556 792 556 792 478 778 c 128,-1,15
 400 764 400 764 322 734 c 1,16,17
 294 686 294 686 260 600 c 0,18,19
 242 550 242 550 233 515 c 128,-1,20
 224 480 224 480 220 444 c 1,21,22
 280 492 280 492 346 526 c 1,23,-1
 436 554 l 1,24,25
 608 492 608 492 686 252 c 1,26,27
 686 232 686 232 587 114 c 128,-1,28
 488 -4 488 -4 456 -10 c 0,29,30
 412 -22 412 -22 262 43 c 128,-1,31
 112 108 112 108 88 152 c 0,32,33
 82 162 82 162 60 318 c 1,34,35
 44 478 44 478 44 544 c 0,36,37
 44 572 44 572 48 576 c 0,38,39
 132 736 132 736 354 864 c 0,40,41
 540 972 540 972 648 972 c 0,42,43
 712 972 712 972 890 851 c 128,-1,44
 1068 730 1068 730 1132 642 c 1,0,1
522 278 m 0,45,46
 492 398 492 398 358 398 c 1,47,48
 330 392 330 392 294 350 c 0,49,50
 262 308 262 308 252 278 c 1,51,52
 254 264 254 264 260 244 c 128,-1,53
 266 224 266 224 282 194 c 128,-1,54
 298 164 298 164 308 156 c 1,55,-1
 460 142 l 1,56,57
 528 246 528 246 522 278 c 0,45,46
EndSplineSet
EndChar

StartChar: tm_eekaar
Encoding: 3015 3015 90
Width: 1080
GlyphClass: 2
Flags: W
LayerCount: 2
Fore
SplineSet
1050 336 m 1,0,1
 1002 140 1002 140 850 24 c 0,2,3
 754 -48 754 -48 688 -60 c 1,4,5
 594 -60 594 -60 511 -46 c 128,-1,6
 428 -32 428 -32 356 -8 c 0,7,8
 264 22 264 22 202 68 c 2,9,-1
 154 104 l 1,10,11
 120 154 120 154 80 272 c 0,12,13
 30 428 30 428 30 570 c 0,14,15
 30 702 30 702 164 868 c 0,16,17
 284 1016 284 1016 448 1114 c 1,18,-1
 526 1120 l 1,19,20
 672 1120 672 1120 856 1050 c 1,21,22
 926 922 926 922 926 826 c 0,23,24
 926 814 926 814 879 754 c 128,-1,25
 832 694 832 694 778 662 c 1,26,-1
 656 662 l 2,27,28
 602 662 602 662 567 678 c 128,-1,29
 532 694 532 694 488 744 c 128,-1,30
 444 794 444 794 444 820 c 0,31,32
 444 928 444 928 508 992 c 1,33,34
 388 956 388 956 326 880 c 0,35,36
 274 816 274 816 236 680 c 0,37,38
 210 576 210 576 210 464 c 0,39,40
 210 446 210 446 212 408 c 128,-1,41
 214 370 214 370 220 310 c 1,42,-1
 262 392 l 1,43,44
 314 482 314 482 390 534 c 1,45,46
 468 558 468 558 630 577 c 128,-1,47
 792 596 792 596 822 592 c 0,48,49
 884 584 884 584 974 464 c 0,50,51
 1046 366 1046 366 1050 336 c 1,0,1
784 924 m 1,52,53
 700 976 700 976 634 966 c 1,54,55
 584 928 584 928 584 872 c 0,56,57
 584 842 584 842 594 826 c 1,58,59
 626 794 626 794 692 794 c 0,60,61
 724 794 724 794 740 798 c 1,62,63
 744 808 744 808 757 847 c 128,-1,64
 770 886 770 886 784 924 c 1,52,53
878 282 m 1,65,-1
 834 406 l 1,66,67
 740 430 740 430 640 430 c 0,68,69
 494 430 494 430 396 378 c 1,70,71
 368 316 368 316 368 242 c 0,72,73
 368 206 368 206 370 188 c 128,-1,74
 372 170 372 170 384 138 c 1,75,76
 496 90 496 90 610 90 c 0,77,78
 754 90 754 90 818 140 c 1,79,80
 878 266 878 266 878 282 c 1,65,-1
EndSplineSet
EndChar

StartChar: tm_aikaar
Encoding: 3016 3016 91
Width: 1374
GlyphClass: 2
Flags: W
LayerCount: 2
Fore
SplineSet
1340 244 m 1,0,1
 1274 72 1274 72 952 -72 c 1,2,-1
 882 80 l 1,3,4
 916 80 916 80 1022 134 c 0,5,6
 1158 204 1158 204 1170 298 c 0,7,8
 1176 314 1176 314 1176 428 c 1,9,10
 1164 462 1164 462 1144 492 c 0,11,12
 1092 558 1092 558 996 570 c 1,13,14
 940 570 940 570 904 561 c 128,-1,15
 868 552 868 552 840 534 c 1,16,-1
 902 442 l 1,17,18
 964 342 964 342 970 282 c 1,19,20
 970 194 970 194 850 68 c 0,21,22
 758 -24 758 -24 704 -48 c 1,23,24
 676 -48 676 -48 586 6 c 0,25,26
 480 72 480 72 480 132 c 1,27,-1
 388 28 l 1,28,-1
 322 8 l 2,29,30
 272 -4 272 -4 252 0 c 1,31,-1
 192 30 l 2,32,33
 158 48 158 48 132 72 c 128,-1,34
 106 96 106 96 84 130 c 0,35,36
 30 216 30 216 30 358 c 1,37,-1
 64 414 l 2,38,39
 104 480 104 480 174 544 c 0,40,41
 266 630 266 630 420 698 c 1,42,43
 586 698 586 698 728 608 c 1,44,-1
 794 648 l 1,45,46
 876 688 876 688 990 706 c 1,47,48
 1198 634 1198 634 1286 486 c 0,49,50
 1342 386 1342 386 1342 282 c 1,51,-1
 1340 244 l 1,0,1
612 510 m 1,52,53
 522 564 522 564 352 564 c 1,54,55
 208 438 208 438 208 392 c 1,56,57
 244 416 244 416 312 416 c 2,58,-1
 358 414 l 2,59,60
 410 408 410 408 486 302 c 1,61,62
 490 320 490 320 495 339 c 128,-1,63
 500 358 500 358 508 376 c 0,64,65
 544 456 544 456 612 510 c 1,52,53
742 112 m 1,66,67
 782 148 782 148 782 234 c 0,68,69
 782 362 782 362 710 450 c 1,70,71
 626 362 626 362 626 276 c 0,72,73
 626 192 626 192 660 156 c 0,74,75
 684 130 684 130 742 112 c 1,66,67
352 198 m 0,76,77
 352 226 352 226 334 270 c 128,-1,78
 316 314 316 314 300 314 c 0,79,80
 274 316 274 316 223 296 c 128,-1,81
 172 276 172 276 170 252 c 0,82,83
 170 220 170 220 194 184 c 128,-1,84
 218 148 218 148 238 142 c 1,85,-1
 314 154 l 2,86,87
 352 160 352 160 352 198 c 0,76,77
EndSplineSet
EndChar

StartChar: tm_halant
Encoding: 3021 3021 95
Width: 0
GlyphClass: 4
Flags: W
LayerCount: 2
Fore
SplineSet
-496 1388 m 0,0,1
 -496 1326 -496 1326 -536 1285 c 128,-1,2
 -576 1244 -576 1244 -646 1244 c 0,3,4
 -712 1244 -712 1244 -750 1284 c 0,5,6
 -784 1324 -784 1324 -784 1394 c 0,7,8
 -784 1460 -784 1460 -742 1496 c 128,-1,9
 -700 1532 -700 1532 -640 1532 c 0,10,11
 -574 1532 -574 1532 -532 1484 c 0,12,13
 -496 1442 -496 1442 -496 1388 c 0,0,1
EndSplineSet
EndChar

StartChar: tm_two
Encoding: 3048 3048 98
Width: 1425
GlyphClass: 2
Flags: W
LayerCount: 2
Fore
SplineSet
1244 70 m 1,0,-1
 1226 0 l 1,1,-1
 586 0 l 2,2,3
 429 0 429 0 429 106 c 0,4,5
 429 153 429 153 478 181.5 c 128,-1,6
 527 210 527 210 586 210 c 2,7,-1
 779 210 l 2,8,9
 867 210 867 210 928 271.5 c 128,-1,10
 989 333 989 333 989 420 c 0,11,12
 989 500 989 500 945 560.5 c 128,-1,13
 901 621 901 621 831 621 c 0,14,15
 793 621 793 621 744 595 c 1,16,17
 814 555 814 555 814 437 c 0,18,19
 814 382 814 382 772.5 344.5 c 128,-1,20
 731 307 731 307 675 307 c 0,21,22
 618 307 618 307 580 351 c 128,-1,23
 542 395 542 395 542 455 c 0,24,25
 542 565 542 565 646.5 632.5 c 128,-1,26
 751 700 751 700 884 700 c 0,27,28
 987 700 987 700 1058 629 c 128,-1,29
 1129 558 1129 558 1129 455 c 0,30,31
 1129 321 1129 321 1025.5 230.5 c 128,-1,32
 922 140 922 140 779 140 c 2,33,-1
 595 140 l 2,34,35
 551 140 551 140 551 106 c 0,36,37
 551 70 551 70 604 70 c 2,38,-1
 1244 70 l 1,0,-1
675 560 m 1,39,40
 621 516 621 516 621 473 c 0,41,42
 621 386 621 386 666 386 c 0,43,44
 709 386 709 386 709 473 c 0,45,46
 709 518 709 518 675 560 c 1,39,40
EndSplineSet
EndChar

StartChar: tm_three
Encoding: 3049 3049 99
Width: 1424
GlyphClass: 2
Flags: W
LayerCount: 2
Fore
SplineSet
1270 70 m 1,0,-1
 1252 0 l 1,1,-1
 640 0 l 1,2,-1
 657 70 l 1,3,-1
 780 70 l 2,4,5
 874 70 874 70 941 130.5 c 128,-1,6
 1008 191 1008 191 1008 280 c 0,7,8
 1008 317 1008 317 982.5 342.5 c 128,-1,9
 957 368 957 368 920 368 c 0,10,11
 890 368 890 368 865 341 c 128,-1,12
 840 314 840 314 833 280 c 2,13,-1
 815 193 l 1,14,-1
 675 193 l 1,15,-1
 764 630 l 1,16,-1
 571 630 l 1,17,-1
 444 0 l 1,18,-1
 378 0 l 1,19,-1
 517 700 l 1,20,-1
 1095 700 l 1,21,-1
 1077 630 l 1,22,-1
 902 630 l 1,23,-1
 859 403 l 1,24,25
 918 455 918 455 990 455 c 0,26,27
 1057 455 1057 455 1102.5 403.5 c 128,-1,28
 1148 352 1148 352 1148 280 c 0,29,30
 1148 209 1148 209 1090 151 c 128,-1,31
 1032 93 1032 93 947 70 c 1,32,-1
 1270 70 l 1,0,-1
EndSplineSet
EndChar

StartChar: tm_four
Encoding: 3050 3050 100
Width: 1427
GlyphClass: 2
Flags: W
LayerCount: 2
Fore
SplineSet
915 316 m 1,0,-1
 644 316 l 2,1,2
 601 316 601 316 570.5 291 c 128,-1,3
 540 266 540 266 540 228 c 0,4,5
 540 158 540 158 609.5 114 c 128,-1,6
 679 70 679 70 766 70 c 0,7,8
 811 70 811 70 844 99.5 c 128,-1,9
 877 129 877 129 887 175 c 2,10,-1
 915 316 l 1,0,-1
979 630 m 1,11,-1
 784 630 l 1,12,-1
 735 386 l 1,13,-1
 930 386 l 1,14,-1
 979 630 l 1,11,-1
1042 245 m 2,15,16
 1017 125 1017 125 940 62.5 c 128,-1,17
 863 0 863 0 766 0 c 0,18,19
 651 0 651 0 559.5 64 c 128,-1,20
 468 128 468 128 468 228 c 0,21,22
 468 294 468 294 520.5 340 c 128,-1,23
 573 386 573 386 644 386 c 2,24,-1
 669 386 l 1,25,-1
 731 700 l 1,26,-1
 1344 700 l 1,27,-1
 1329 630 l 1,28,-1
 1118 630 l 1,29,-1
 1068 386 l 1,30,-1
 1232 386 l 1,31,-1
 1248 464 l 1,32,-1
 1309 464 l 1,33,-1
 1279 316 l 1,34,-1
 1055 316 l 1,35,-1
 1042 245 l 2,15,16
EndSplineSet
EndChar

StartChar: tm_five
Encoding: 3051 3051 101
Width: 1424
GlyphClass: 2
Flags: W
LayerCount: 2
Fore
SplineSet
1412 517 m 1,0,-1
 1359 526 l 1,1,2
 1369 563 1369 563 1369 598 c 0,3,4
 1369 723 1369 723 1253.5 825.5 c 128,-1,5
 1138 928 1138 928 965 928 c 0,6,7
 728 928 728 928 575.5 716 c 128,-1,8
 423 504 423 504 423 228 c 0,9,10
 423 -43 423 -43 515 -179.5 c 128,-1,11
 607 -316 607 -316 790 -316 c 0,12,13
 979 -316 979 -316 1103.5 -163.5 c 128,-1,14
 1228 -11 1228 -11 1228 193 c 0,15,16
 1228 257 1228 257 1200 304.5 c 128,-1,17
 1172 352 1172 352 1126 352 c 0,18,19
 1099 352 1099 352 1072.5 336.5 c 128,-1,20
 1046 321 1046 321 1039 298 c 2,21,-1
 980 0 l 1,22,-1
 840 0 l 1,23,-1
 965 630 l 1,24,-1
 759 630 l 1,25,-1
 634 0 l 1,26,-1
 566 0 l 1,27,-1
 706 700 l 1,28,-1
 1237 700 l 1,29,-1
 1219 630 l 1,30,-1
 1105 630 l 1,31,-1
 1057 386 l 1,32,33
 1101 437 1101 437 1171 437 c 0,34,35
 1261 437 1261 437 1314.5 368.5 c 128,-1,36
 1368 300 1368 300 1368 193 c 0,37,38
 1368 -47 1368 -47 1202.5 -216 c 128,-1,39
 1037 -385 1037 -385 799 -385 c 0,40,41
 589 -385 589 -385 471.5 -223 c 128,-1,42
 354 -61 354 -61 354 193 c 0,43,44
 354 513 354 513 519 764 c 128,-1,45
 684 1015 684 1015 948 1015 c 0,46,47
 1152 1015 1152 1015 1288.5 889.5 c 128,-1,48
 1425 764 1425 764 1425 613 c 0,49,50
 1425 566 1425 566 1412 517 c 1,0,-1
EndSplineSet
EndChar

StartChar: tm_six
Encoding: 3052 3052 102
Width: 1424
GlyphClass: 2
Flags: W
LayerCount: 2
Fore
SplineSet
784 316 m 1,0,-1
 513 316 l 2,1,2
 469 316 469 316 438 291 c 128,-1,3
 407 266 407 266 407 228 c 0,4,5
 407 158 407 158 477 114 c 128,-1,6
 547 70 547 70 635 70 c 0,7,8
 680 70 680 70 713 99.5 c 128,-1,9
 746 129 746 129 756 175 c 2,10,-1
 784 316 l 1,0,-1
846 630 m 1,11,-1
 653 630 l 1,12,-1
 603 386 l 1,13,-1
 798 386 l 1,14,-1
 846 630 l 1,11,-1
910 245 m 2,15,16
 884 125 884 125 808 62.5 c 128,-1,17
 732 0 732 0 635 0 c 0,18,19
 518 0 518 0 428 64 c 128,-1,20
 338 128 338 128 338 228 c 0,21,22
 338 294 338 294 389.5 340 c 128,-1,23
 441 386 441 386 513 386 c 2,24,-1
 537 386 l 1,25,-1
 600 700 l 1,26,-1
 1229 700 l 1,27,-1
 1213 630 l 1,28,-1
 988 630 l 1,29,-1
 938 386 l 1,30,-1
 1422 386 l 1,31,-1
 1410 316 l 1,32,-1
 1353 316 l 1,33,-1
 1291 0 l 1,34,-1
 1151 0 l 1,35,-1
 1213 316 l 1,36,-1
 1116 316 l 1,37,-1
 1055 0 l 1,38,-1
 967 0 l 1,39,-1
 1028 316 l 1,40,-1
 924 316 l 1,41,-1
 910 245 l 2,15,16
EndSplineSet
EndChar

StartChar: tm_seven
Encoding: 3053 3053 103
Width: 1425
GlyphClass: 2
Flags: W
LayerCount: 2
Fore
SplineSet
643 88 m 1,0,1
 706 88 706 88 753 128 c 128,-1,2
 800 168 800 168 800 228 c 0,3,4
 800 269 800 269 781 301 c 128,-1,5
 762 333 762 333 729 333 c 0,6,7
 684 333 684 333 654.5 296.5 c 128,-1,8
 625 260 625 260 625 210 c 0,9,10
 625 135 625 135 643 88 c 1,0,1
1042 0 m 1,11,-1
 1167 630 l 1,12,-1
 852 630 l 2,13,14
 704 630 704 630 594.5 540.5 c 128,-1,15
 485 451 485 451 485 316 c 0,16,17
 485 247 485 247 507 194.5 c 128,-1,18
 529 142 529 142 572 106 c 1,19,20
 555 135 555 135 555 228 c 256,21,22
 555 321 555 321 614.5 388 c 128,-1,23
 674 455 674 455 765 455 c 0,24,25
 837 455 837 455 884 398 c 128,-1,26
 931 341 931 341 931 263 c 0,27,28
 931 155 931 155 863 77.5 c 128,-1,29
 795 0 795 0 695 0 c 0,30,31
 576 0 576 0 495.5 94 c 128,-1,32
 415 188 415 188 415 316 c 0,33,34
 415 481 415 481 545.5 590.5 c 128,-1,35
 676 700 676 700 852 700 c 2,36,-1
 1430 700 l 1,37,-1
 1412 630 l 1,38,-1
 1307 630 l 1,39,-1
 1181 0 l 1,40,-1
 1042 0 l 1,11,-1
EndSplineSet
EndChar

StartChar: tm_eight
Encoding: 3054 3054 104
Width: 1427
GlyphClass: 2
Flags: W
LayerCount: 2
Fore
SplineSet
849 629 m 1,0,1
 745 611 745 611 670 548.5 c 128,-1,2
 595 486 595 486 595 402 c 0,3,4
 595 338 595 338 638.5 291 c 128,-1,5
 682 244 682 244 744 244 c 0,6,7
 817 244 817 244 864 307.5 c 128,-1,8
 911 371 911 371 911 454 c 0,9,10
 911 580 911 580 849 629 c 1,0,1
1024 140 m 1,11,-1
 411 140 l 2,12,13
 381 140 381 140 357 125 c 128,-1,14
 333 110 333 110 333 87 c 0,15,16
 333 43 333 43 412 -13.5 c 128,-1,17
 491 -70 491 -70 639 -70 c 0,18,19
 743 -70 743 -70 839.5 -18 c 128,-1,20
 936 34 936 34 1024 140 c 1,11,-1
1414 -245 m 1,21,-1
 1269 -245 l 1,22,-1
 1348 140 l 1,23,-1
 1164 140 l 1,24,25
 1051 4 1051 4 915 -63.5 c 128,-1,26
 779 -131 779 -131 621 -131 c 0,27,28
 421 -131 421 -131 311.5 -52.5 c 128,-1,29
 202 26 202 26 202 123 c 0,30,31
 202 160 202 160 233 184.5 c 128,-1,32
 264 209 264 209 307 209 c 2,33,-1
 666 209 l 1,34,35
 604 231 604 231 565 284.5 c 128,-1,36
 526 338 526 338 526 402 c 0,37,38
 526 534 526 534 652 617 c 128,-1,39
 778 700 778 700 937 700 c 0,40,41
 1069 700 1069 700 1169 620.5 c 128,-1,42
 1269 541 1269 541 1269 420 c 0,43,44
 1269 306 1269 306 1213 209 c 1,45,-1
 1364 209 l 1,46,-1
 1463 700 l 1,47,-1
 1603 700 l 1,48,-1
 1414 -245 l 1,21,-1
989 620 m 1,49,50
 1042 530 1042 530 1042 411 c 0,51,52
 1042 267 1042 267 919 209 c 1,53,-1
 1077 209 l 1,54,55
 1146 308 1146 308 1146 402 c 0,56,57
 1146 486 1146 486 1103 553 c 128,-1,58
 1060 620 1060 620 989 620 c 1,49,50
EndSplineSet
EndChar

StartChar: tm_nine
Encoding: 3055 3055 105
Width: 1427
GlyphClass: 2
Flags: W
LayerCount: 2
Fore
SplineSet
692 316 m 1,0,-1
 422 316 l 2,1,2
 379 316 379 316 348 291 c 128,-1,3
 317 266 317 266 317 228 c 0,4,5
 317 158 317 158 387 114 c 128,-1,6
 457 70 457 70 544 70 c 0,7,8
 589 70 589 70 622 99.5 c 128,-1,9
 655 129 655 129 665 175 c 2,10,-1
 692 316 l 1,0,-1
756 630 m 1,11,-1
 562 630 l 1,12,-1
 513 386 l 1,13,-1
 707 386 l 1,14,-1
 756 630 l 1,11,-1
1157 175 m 0,15,16
 1157 259 1157 259 1052 298 c 1,17,18
 982 240 982 240 982 158 c 0,19,20
 982 121 982 121 1007.5 95.5 c 128,-1,21
 1033 70 1033 70 1068 70 c 0,22,23
 1107 70 1107 70 1132 101.5 c 128,-1,24
 1157 133 1157 133 1157 175 c 0,15,16
1297 0 m 1,25,26
 1375 93 1375 93 1375 193 c 0,27,28
 1375 263 1375 263 1332.5 315.5 c 128,-1,29
 1290 368 1290 368 1226 368 c 0,30,31
 1163 368 1163 368 1113 342 c 1,32,33
 1167 322 1167 322 1201 276.5 c 128,-1,34
 1235 231 1235 231 1235 175 c 0,35,36
 1235 104 1235 104 1187 52 c 128,-1,37
 1139 0 1139 0 1068 0 c 0,38,39
 1005 0 1005 0 958.5 46.5 c 128,-1,40
 912 93 912 93 912 158 c 0,41,42
 912 257 912 257 982 316 c 1,43,-1
 833 316 l 1,44,-1
 819 245 l 2,45,46
 795 125 795 125 718.5 62.5 c 128,-1,47
 642 0 642 0 544 0 c 0,48,49
 428 0 428 0 337 64 c 128,-1,50
 246 128 246 128 246 228 c 0,51,52
 246 294 246 294 299 340 c 128,-1,53
 352 386 352 386 422 386 c 2,54,-1
 446 386 l 1,55,-1
 508 700 l 1,56,-1
 1122 700 l 1,57,-1
 1104 630 l 1,58,-1
 896 630 l 1,59,-1
 847 386 l 1,60,-1
 947 386 l 2,61,62
 1014 386 1014 386 1052 368 c 1,63,64
 1111 420 1111 420 1226 420 c 0,65,66
 1327 420 1327 420 1399.5 354.5 c 128,-1,67
 1472 289 1472 289 1472 193 c 0,68,69
 1472 109 1472 109 1410 0 c 1,70,-1
 1297 0 l 1,25,26
EndSplineSet
EndChar

StartChar: tm_ten
Encoding: 3056 3056 106
Width: 1260
GlyphClass: 2
Flags: W
LayerCount: 2
Fore
SplineSet
597 149 m 1,0,1
 558 74 558 74 508 37 c 128,-1,2
 458 0 458 0 395 0 c 0,3,4
 302 0 302 0 242 64 c 128,-1,5
 182 128 182 128 182 200 c 0,6,7
 182 224 182 224 186 244 c 2,8,-1
 279 700 l 1,9,-1
 419 700 l 1,10,-1
 325 244 l 2,11,12
 320 223 320 223 320 205 c 0,13,14
 320 155 320 155 346.5 112.5 c 128,-1,15
 373 70 373 70 413 70 c 0,16,17
 472 70 472 70 525 146 c 128,-1,18
 578 222 578 222 606 359 c 2,19,-1
 675 700 l 1,20,-1
 815 700 l 1,21,-1
 746 351 l 2,22,23
 728 262 728 262 728 204 c 0,24,25
 728 150 728 150 760.5 110 c 128,-1,26
 793 70 793 70 841 70 c 0,27,28
 957 70 957 70 1026 204 c 128,-1,29
 1095 338 1095 338 1095 500 c 0,30,31
 1095 691 1095 691 995.5 840 c 128,-1,32
 896 989 896 989 737 989 c 1,33,-1
 755 1042 l 1,34,35
 960 1042 960 1042 1097.5 880.5 c 128,-1,36
 1235 719 1235 719 1235 500 c 0,37,38
 1235 300 1235 300 1118.5 150 c 128,-1,39
 1002 0 1002 0 824 0 c 0,40,41
 739 0 739 0 673.5 40.5 c 128,-1,42
 608 81 608 81 597 149 c 1,0,1
EndSplineSet
EndChar

StartChar: tm_hundred
Encoding: 3057 3057 107
Width: 1166
GlyphClass: 2
Flags: W
LayerCount: 2
Fore
SplineSet
1284 700 m 1,0,-1
 1267 629 l 1,1,-1
 1117 629 l 1,2,-1
 991 0 l 1,3,-1
 851 0 l 1,4,-1
 977 629 l 1,5,-1
 770 629 l 1,6,-1
 644 0 l 1,7,-1
 504 0 l 1,8,-1
 599 472 l 2,9,10
 606 507 606 507 606 534 c 0,11,12
 606 579 606 579 589 613 c 128,-1,13
 572 647 572 647 540 647 c 0,14,15
 483 647 483 647 440 595.5 c 128,-1,16
 397 544 397 544 382 472 c 2,17,-1
 285 0 l 1,18,-1
 146 0 l 1,19,-1
 242 472 l 2,20,21
 263 577 263 577 336.5 647 c 128,-1,22
 410 717 410 717 503 717 c 0,23,24
 567 717 567 717 614 679.5 c 128,-1,25
 661 642 661 642 661 585 c 1,26,-1
 685 700 l 1,27,-1
 1284 700 l 1,0,-1
EndSplineSet
EndChar

StartChar: tm_thousand
Encoding: 3058 3058 108
Width: 1256
GlyphClass: 2
Flags: W
LayerCount: 2
Fore
SplineSet
551 316 m 1,0,-1
 280 316 l 2,1,2
 237 316 237 316 206 291 c 128,-1,3
 175 266 175 266 175 228 c 0,4,5
 175 158 175 158 245.5 114 c 128,-1,6
 316 70 316 70 402 70 c 0,7,8
 447 70 447 70 480 99.5 c 128,-1,9
 513 129 513 129 523 175 c 2,10,-1
 551 316 l 1,0,-1
615 630 m 1,11,-1
 420 630 l 1,12,-1
 371 386 l 1,13,-1
 565 386 l 1,14,-1
 615 630 l 1,11,-1
677 245 m 2,15,16
 653 125 653 125 576 62.5 c 128,-1,17
 499 0 499 0 402 0 c 0,18,19
 285 0 285 0 195 64 c 128,-1,20
 105 128 105 128 105 228 c 0,21,22
 105 294 105 294 156.5 340 c 128,-1,23
 208 386 208 386 280 386 c 2,24,-1
 304 386 l 1,25,-1
 367 700 l 1,26,-1
 997 700 l 1,27,-1
 983 630 l 1,28,-1
 755 630 l 1,29,-1
 705 386 l 1,30,-1
 1120 386 l 1,31,-1
 1105 316 l 1,32,-1
 971 316 l 1,33,-1
 945 175 l 1,34,35
 990 228 990 228 1067 228 c 0,36,37
 1134 228 1134 228 1179.5 176 c 128,-1,38
 1225 124 1225 124 1225 53 c 0,39,40
 1225 -78 1225 -78 1108 -161 c 128,-1,41
 991 -244 991 -244 840 -244 c 0,42,43
 740 -244 740 -244 542 -205 c 0,44,45
 346 -167 346 -167 244 -167 c 0,46,47
 181 -167 181 -167 134 -206.5 c 128,-1,48
 87 -246 87 -246 87 -307 c 0,49,50
 87 -384 87 -384 158 -411 c 1,51,-1
 149 -445 l 1,52,53
 82 -433 82 -433 36.5 -387 c 128,-1,54
 -9 -341 -9 -341 -9 -280 c 0,55,56
 -9 -205 -9 -205 70.5 -159.5 c 128,-1,57
 150 -114 150 -114 244 -114 c 0,58,59
 346 -114 346 -114 542 -153 c 0,60,61
 740 -192 740 -192 840 -192 c 0,62,63
 938 -192 938 -192 1011.5 -135 c 128,-1,64
 1085 -78 1085 -78 1085 9 c 0,65,66
 1085 61 1085 61 1061 100.5 c 128,-1,67
 1037 140 1037 140 997 140 c 256,68,69
 957 140 957 140 927 88 c 1,70,-1
 910 0 l 1,71,-1
 769 0 l 1,72,-1
 831 316 l 1,73,-1
 691 316 l 1,74,-1
 677 245 l 2,15,16
EndSplineSet
EndChar

StartChar: zerowidthnonjoiner
Encoding: 8204 8204 109
Width: 0
GlyphClass: 2
Flags: W
LayerCount: 2
Fore
SplineSet
315 1225 m 1,0,-1
 -34 -516 l 1,1,-1
 -103 -516 l 1,2,-1
 244 1225 l 1,3,-1
 315 1225 l 1,0,-1
EndSplineSet
EndChar

StartChar: zerowidthjoiner
Encoding: 8205 8205 110
Width: 0
GlyphClass: 2
Flags: W
LayerCount: 2
Fore
SplineSet
415 997 m 1,0,-1
 363 953 l 1,1,-1
 270 1073 l 1,2,-1
 -24 -441 l 1,3,-1
 -87 -441 l 1,4,-1
 206 1073 l 1,5,-1
 65 953 l 1,6,-1
 32 997 l 1,7,-1
 210 1145 l 1,8,-1
 89 1292 l 1,9,-1
 140 1334 l 1,10,-1
 260 1185 l 1,11,-1
 437 1334 l 1,12,-1
 472 1292 l 1,13,-1
 294 1145 l 1,14,-1
 415 997 l 1,0,-1
EndSplineSet
EndChar

StartChar: u2013
Encoding: 8211 8211 111
Width: 722
GlyphClass: 2
Flags: W
LayerCount: 2
Fore
SplineSet
733 319 m 1,0,-1
 -12 319 l 1,1,-1
 -12 370 l 1,2,-1
 733 370 l 1,3,-1
 733 319 l 1,0,-1
EndSplineSet
EndChar

StartChar: u2014
Encoding: 8212 8212 112
Width: 1284
GlyphClass: 2
Flags: W
LayerCount: 2
Fore
SplineSet
1296 318 m 1,0,-1
 -13 319 l 1,1,-1
 -13 371 l 1,2,-1
 1296 370 l 1,3,-1
 1296 318 l 1,0,-1
EndSplineSet
EndChar

StartChar: u2018
Encoding: 65539 -1 113
Width: 444
GlyphClass: 2
Flags: W
LayerCount: 2
Fore
SplineSet
314 1192 m 1,0,-1
 314 988 l 1,1,-1
 126 988 l 1,2,-1
 126 1148 l 2,3,4
 126 1214 126 1214 132 1258 c 128,-1,5
 138 1302 138 1302 156 1338 c 0,6,7
 198 1406 198 1406 286 1456 c 1,8,-1
 330 1388 l 1,9,10
 278 1370 278 1370 250 1319 c 128,-1,11
 222 1268 222 1268 222 1192 c 1,12,-1
 314 1192 l 1,0,-1
EndSplineSet
EndChar

StartChar: u2019
Encoding: 65540 -1 114
Width: 444
GlyphClass: 2
Flags: W
LayerCount: 2
Fore
SplineSet
122 1242 m 1,0,-1
 122 1446 l 1,1,-1
 310 1446 l 1,2,-1
 310 1286 l 2,3,4
 310 1166 310 1166 280 1096 c 0,5,6
 246 1026 246 1026 148 978 c 1,7,-1
 106 1046 l 1,8,9
 148 1062 148 1062 180 1111 c 128,-1,10
 212 1160 212 1160 212 1242 c 1,11,-1
 122 1242 l 1,0,-1
EndSplineSet
EndChar

StartChar: u201C
Encoding: 65541 -1 115
Width: 666
GlyphClass: 2
Flags: W
LayerCount: 2
Fore
SplineSet
270 1192 m 1,0,-1
 270 988 l 1,1,-1
 82 988 l 1,2,-1
 82 1148 l 2,3,4
 82 1214 82 1214 88 1258 c 128,-1,5
 94 1302 94 1302 112 1338 c 0,6,7
 154 1406 154 1406 242 1456 c 1,8,-1
 286 1388 l 1,9,10
 234 1370 234 1370 206 1319 c 128,-1,11
 178 1268 178 1268 178 1192 c 1,12,-1
 270 1192 l 1,0,-1
572 1192 m 1,13,-1
 572 988 l 1,14,-1
 384 988 l 1,15,-1
 384 1148 l 2,16,17
 384 1290 384 1290 419 1347 c 128,-1,18
 454 1404 454 1404 544 1456 c 1,19,-1
 588 1388 l 1,20,21
 536 1370 536 1370 508 1319 c 128,-1,22
 480 1268 480 1268 480 1192 c 1,23,-1
 572 1192 l 1,13,-1
EndSplineSet
EndChar

StartChar: u201D
Encoding: 65542 -1 116
Width: 666
GlyphClass: 2
Flags: W
LayerCount: 2
Fore
SplineSet
84 1242 m 1,0,-1
 84 1446 l 1,1,-1
 274 1446 l 1,2,-1
 274 1286 l 2,3,4
 274 1166 274 1166 244 1096 c 0,5,6
 210 1026 210 1026 112 978 c 1,7,-1
 70 1046 l 1,8,9
 112 1062 112 1062 144 1111 c 128,-1,10
 176 1160 176 1160 176 1242 c 1,11,-1
 84 1242 l 1,0,-1
388 1242 m 1,12,-1
 388 1446 l 1,13,-1
 576 1446 l 1,14,-1
 576 1286 l 2,15,16
 576 1166 576 1166 546 1096 c 1,17,18
 504 1026 504 1026 416 978 c 1,19,-1
 372 1046 l 1,20,21
 422 1064 422 1064 451 1116 c 128,-1,22
 480 1168 480 1168 480 1242 c 1,23,-1
 388 1242 l 1,12,-1
EndSplineSet
EndChar

StartChar: u2026
Encoding: 8230 8230 117
Width: 1283
GlyphClass: 2
Flags: W
LayerCount: 2
Fore
SplineSet
265 136 m 0,0,1
 298 136 298 136 320.5 114 c 128,-1,2
 343 92 343 92 343 58 c 0,3,4
 343 26 343 26 320.5 3 c 128,-1,5
 298 -20 298 -20 265 -20 c 0,6,7
 233 -20 233 -20 210 3 c 128,-1,8
 187 26 187 26 187 58 c 0,9,10
 187 92 187 92 210 114 c 128,-1,11
 233 136 233 136 265 136 c 0,0,1
638 136 m 256,12,13
 670 136 670 136 693 114 c 128,-1,14
 716 92 716 92 716 58 c 0,15,16
 716 26 716 26 692.5 3 c 128,-1,17
 669 -20 669 -20 638 -20 c 0,18,19
 606 -20 606 -20 583 3 c 128,-1,20
 560 26 560 26 560 58 c 0,21,22
 560 92 560 92 583 114 c 128,-1,23
 606 136 606 136 638 136 c 256,12,13
1010 136 m 0,24,25
 1043 136 1043 136 1066 114 c 128,-1,26
 1089 92 1089 92 1089 58 c 0,27,28
 1089 26 1089 26 1065.5 3 c 128,-1,29
 1042 -20 1042 -20 1010 -20 c 256,30,31
 978 -20 978 -20 955.5 3 c 128,-1,32
 933 26 933 26 933 58 c 0,33,34
 933 92 933 92 955.5 114 c 128,-1,35
 978 136 978 136 1010 136 c 0,24,25
EndSplineSet
EndChar

StartChar: u2212
Encoding: 8722 8722 118
Width: 974
GlyphClass: 2
Flags: W
LayerCount: 2
Fore
SplineSet
133 450 m 1,0,-1
 133 508 l 1,1,-1
 894 508 l 1,2,-1
 894 450 l 1,3,-1
 133 450 l 1,0,-1
EndSplineSet
EndChar

StartChar: u25CC
Encoding: 9676 9676 119
Width: 1167
GlyphClass: 2
Flags: W
LayerCount: 2
Fore
SplineSet
654 665 m 0,0,1
 626 665 626 665 612 679 c 128,-1,2
 598 693 598 693 598 724 c 0,3,4
 598 746 598 746 615 762.5 c 128,-1,5
 632 779 632 779 654 779 c 0,6,7
 683 779 683 779 697.5 765 c 128,-1,8
 712 751 712 751 712 724 c 0,9,10
 712 693 712 693 697.5 679 c 128,-1,11
 683 665 683 665 654 665 c 0,0,1
840 616 m 0,12,13
 811 616 811 616 796.5 630.5 c 128,-1,14
 782 645 782 645 782 674 c 0,15,16
 782 701 782 701 796.5 715 c 128,-1,17
 811 729 811 729 840 729 c 0,18,19
 862 729 862 729 879 713 c 128,-1,20
 896 697 896 697 896 674 c 0,21,22
 896 645 896 645 882 630.5 c 128,-1,23
 868 616 868 616 840 616 c 0,12,13
470 616 m 0,24,25
 442 616 442 616 428 630.5 c 128,-1,26
 414 645 414 645 414 674 c 0,27,28
 414 697 414 697 431 713 c 128,-1,29
 448 729 448 729 470 729 c 0,30,31
 494 729 494 729 510 713 c 128,-1,32
 526 697 526 697 526 674 c 0,33,34
 526 645 526 645 512.5 630.5 c 128,-1,35
 499 616 499 616 470 616 c 0,24,25
973 482 m 0,36,37
 951 482 951 482 933.5 498 c 128,-1,38
 916 514 916 514 916 538 c 0,39,40
 916 567 916 567 930.5 581 c 128,-1,41
 945 595 945 595 973 595 c 256,42,43
 1001 595 1001 595 1014.5 581 c 128,-1,44
 1028 567 1028 567 1028 538 c 0,45,46
 1028 514 1028 514 1012 498 c 128,-1,47
 996 482 996 482 973 482 c 0,36,37
336 482 m 0,48,49
 307 482 307 482 293 495.5 c 128,-1,50
 279 509 279 509 279 538 c 256,51,52
 279 567 279 567 293 581 c 128,-1,53
 307 595 307 595 336 595 c 0,54,55
 364 595 364 595 378 581 c 128,-1,56
 392 567 392 567 392 538 c 0,57,58
 392 514 392 514 375 498 c 128,-1,59
 358 482 358 482 336 482 c 0,48,49
1024 298 m 0,60,61
 994 298 994 298 979.5 311.5 c 128,-1,62
 965 325 965 325 965 354 c 0,63,64
 965 382 965 382 979.5 396 c 128,-1,65
 994 410 994 410 1024 410 c 0,66,67
 1046 410 1046 410 1063 393 c 128,-1,68
 1080 376 1080 376 1080 354 c 0,69,70
 1080 331 1080 331 1063 314.5 c 128,-1,71
 1046 298 1046 298 1024 298 c 0,60,61
287 298 m 0,72,73
 257 298 257 298 243 311.5 c 128,-1,74
 229 325 229 325 229 354 c 0,75,76
 229 382 229 382 243 396 c 128,-1,77
 257 410 257 410 287 410 c 0,78,79
 310 410 310 410 326.5 393 c 128,-1,80
 343 376 343 376 343 354 c 0,81,82
 343 331 343 331 326.5 314.5 c 128,-1,83
 310 298 310 298 287 298 c 0,72,73
973 112 m 256,84,85
 945 112 945 112 930.5 126.5 c 128,-1,86
 916 141 916 141 916 169 c 0,87,88
 916 193 916 193 933.5 209.5 c 128,-1,89
 951 226 951 226 973 226 c 0,90,91
 996 226 996 226 1012 209.5 c 128,-1,92
 1028 193 1028 193 1028 169 c 0,93,94
 1028 141 1028 141 1014.5 126.5 c 128,-1,95
 1001 112 1001 112 973 112 c 256,84,85
336 112 m 0,96,97
 307 112 307 112 293 126.5 c 128,-1,98
 279 141 279 141 279 169 c 0,99,100
 279 198 279 198 293 212 c 128,-1,101
 307 226 307 226 336 226 c 0,102,103
 358 226 358 226 375 209.5 c 128,-1,104
 392 193 392 193 392 169 c 0,105,106
 392 141 392 141 378 126.5 c 128,-1,107
 364 112 364 112 336 112 c 0,96,97
840 -22 m 0,108,109
 811 -22 811 -22 796.5 -8 c 128,-1,110
 782 6 782 6 782 34 c 0,111,112
 782 63 782 63 796.5 78 c 128,-1,113
 811 93 811 93 840 93 c 0,114,115
 863 93 863 93 879.5 75 c 128,-1,116
 896 57 896 57 896 34 c 256,117,118
 896 11 896 11 879 -5.5 c 128,-1,119
 862 -22 862 -22 840 -22 c 0,108,109
470 -22 m 0,120,121
 448 -22 448 -22 431 -5.5 c 128,-1,122
 414 11 414 11 414 34 c 256,123,124
 414 57 414 57 430.5 75 c 128,-1,125
 447 93 447 93 470 93 c 0,126,127
 495 93 495 93 510.5 75 c 128,-1,128
 526 57 526 57 526 34 c 256,129,130
 526 11 526 11 510 -5.5 c 128,-1,131
 494 -22 494 -22 470 -22 c 0,120,121
654 -72 m 0,132,133
 632 -72 632 -72 615 -55 c 128,-1,134
 598 -38 598 -38 598 -16 c 0,135,136
 598 14 598 14 612 28.5 c 128,-1,137
 626 43 626 43 654 43 c 0,138,139
 683 43 683 43 697.5 28.5 c 128,-1,140
 712 14 712 14 712 -16 c 0,141,142
 712 -44 712 -44 697.5 -58 c 128,-1,143
 683 -72 683 -72 654 -72 c 0,132,133
EndSplineSet
EndChar

StartChar: tm_k_ikaar
Encoding: 65543 -1 120
Width: 1004
GlyphClass: 2
Flags: W
LayerCount: 2
Fore
SplineSet
1154 1240 m 1,0,1
 1120 1182 1120 1182 1120 1050 c 1,2,3
 1078 1130 1078 1130 954 1178 c 0,4,5
 844 1218 844 1218 698 1218 c 0,6,7
 544 1218 544 1218 418 1170 c 128,-1,8
 292 1122 292 1122 274 1038 c 1,9,10
 322 898 322 898 594 836 c 1,11,-1
 894 792 l 1,12,-1
 906 674 l 2,13,14
 902 678 902 678 854 678 c 2,15,-1
 788 678 l 2,16,17
 680 678 680 678 622 652 c 1,18,-1
 610 534 l 1,19,20
 626 534 626 534 690 530 c 128,-1,21
 754 526 754 526 804 526 c 1,22,23
 940 356 940 356 974 142 c 1,24,25
 942 88 942 88 861 9 c 128,-1,26
 780 -70 780 -70 748 -86 c 1,27,-1
 590 -66 l 2,28,29
 552 -60 552 -60 486 -28 c 1,30,31
 500 -14 500 -14 546 66 c 1,32,-1
 574 54 l 1,33,-1
 692 54 l 1,34,-1
 786 150 l 1,35,36
 786 234 786 234 766 360 c 1,37,38
 746 380 746 380 701 389 c 128,-1,39
 656 398 656 398 634 398 c 256,40,41
 612 398 612 398 594 392 c 1,42,43
 584 340 584 340 578 312 c 128,-1,44
 572 284 572 284 548 202 c 1,45,46
 518 78 518 78 504 50 c 1,47,48
 380 -32 380 -32 286 -54 c 1,49,50
 160 6 160 6 95 95 c 128,-1,51
 30 184 30 184 30 304 c 1,52,53
 94 392 94 392 170 418 c 1,54,55
 166 428 166 428 166 474 c 0,56,57
 166 502 166 502 168 546 c 128,-1,58
 170 590 170 590 176 648 c 1,59,60
 204 672 204 672 336 718 c 0,61,62
 446 754 446 754 490 760 c 1,63,64
 440 768 440 768 398 775 c 128,-1,65
 356 782 356 782 316 794 c 0,66,67
 202 822 202 822 144 864 c 1,68,69
 74 970 74 970 74 1120 c 1,70,-1
 80 1190 l 1,71,72
 126 1240 126 1240 284 1288 c 0,73,74
 464 1342 464 1342 662 1342 c 0,75,76
 928 1342 928 1342 1154 1240 c 1,0,1
408 504 m 1,77,78
 408 562 408 562 394 598 c 1,79,80
 346 586 346 586 324 570 c 1,81,82
 282 512 282 512 282 466 c 1,83,84
 326 472 326 472 408 504 c 1,77,78
410 364 m 1,85,86
 388 358 388 358 339 335 c 128,-1,87
 290 312 290 312 198 264 c 0,88,89
 196 260 196 260 196 242 c 2,90,-1
 200 196 l 2,91,92
 206 142 206 142 226 130 c 0,93,94
 238 120 238 120 300 98 c 1,95,-1
 372 100 l 2,96,97
 410 100 410 100 410 364 c 1,85,86
EndSplineSet
Ligature2: "'psts' Post Base Substitutions lookup 8 subtable" tm_ka tm_ikaar
EndChar

StartChar: tm_ng_ikaar
Encoding: 65544 -1 121
Width: 1466
GlyphClass: 2
Flags: W
LayerCount: 2
Fore
SplineSet
1094 98 m 1,0,1
 1180 194 1180 194 1204 276 c 1,2,3
 1214 332 1214 332 1158 508 c 2,4,-1
 1094 718 l 1,5,-1
 1102 792 l 1,6,-1
 924 840 l 2,7,8
 726 894 726 894 632 966 c 1,9,10
 582 1066 582 1066 582 1188 c 0,11,12
 582 1238 582 1238 590 1276 c 1,13,14
 680 1334 680 1334 800 1364 c 128,-1,15
 920 1394 920 1394 1074 1394 c 0,16,17
 1224 1394 1224 1394 1384 1364 c 0,18,19
 1588 1326 1588 1326 1666 1244 c 1,20,21
 1662 1240 1662 1240 1640 1160 c 2,22,-1
 1618 1068 l 1,23,24
 1600 1142 1600 1142 1466 1204 c 0,25,26
 1400 1234 1400 1234 1330 1250 c 128,-1,27
 1260 1266 1260 1266 1182 1266 c 0,28,29
 1034 1266 1034 1266 928 1236 c 0,30,31
 786 1196 786 1196 786 1112 c 0,32,33
 786 1050 786 1050 866 988 c 1,34,35
 930 944 930 944 1017 912 c 128,-1,36
 1104 880 1104 880 1110 890 c 2,37,-1
 1154 1022 l 1,38,-1
 1262 1010 l 1,39,-1
 1366 994 l 1,40,41
 1248 834 1248 834 1248 716 c 0,42,43
 1248 658 1248 658 1304 478 c 0,44,45
 1326 402 1326 402 1335 345 c 128,-1,46
 1344 288 1344 288 1344 246 c 1,47,48
 1308 100 1308 100 1138 -48 c 1,49,50
 1088 -58 1088 -58 1046 -58 c 0,51,52
 934 -58 934 -58 837 -29 c 128,-1,53
 740 0 740 0 718 0 c 0,54,55
 516 -30 516 -30 458 -56 c 1,56,57
 446 -20 446 -20 396 48 c 1,58,59
 406 64 406 64 560 94 c 2,60,-1
 736 130 l 1,61,62
 776 164 776 164 792 214 c 0,63,64
 798 236 798 236 798 260 c 256,65,66
 798 284 798 284 788 320 c 1,67,68
 754 344 754 344 705 354 c 128,-1,69
 656 364 656 364 586 364 c 1,70,71
 506 334 506 334 466 258 c 1,72,73
 460 236 460 236 458 215 c 128,-1,74
 456 194 456 194 456 174 c 0,75,76
 456 164 456 164 456 154 c 0,77,78
 460 142 460 142 460 138 c 2,79,-1
 314 92 l 1,80,-1
 328 548 l 1,81,82
 310 542 310 542 305 539 c 128,-1,83
 300 536 300 536 272 520 c 1,84,85
 192 406 192 406 170 196 c 1,86,-1
 162 4 l 1,87,-1
 56 16 l 1,88,89
 42 24 42 24 42 124 c 0,90,91
 42 416 42 416 158 642 c 1,92,93
 328 730 328 730 788 772 c 1,94,95
 812 696 812 696 812 672 c 1,96,97
 800 680 800 680 682 656 c 128,-1,98
 564 632 564 632 510 602 c 1,99,100
 474 524 474 524 474 412 c 1,101,-1
 550 472 l 2,102,103
 590 500 590 500 640 510 c 1,104,105
 718 510 718 510 780 489 c 128,-1,106
 842 468 842 468 896 428 c 1,107,108
 926 360 926 360 956 246 c 1,109,110
 956 224 956 224 903 163 c 128,-1,111
 850 102 850 102 826 94 c 1,112,113
 872 74 872 74 938 74 c 0,114,115
 1052 74 1052 74 1094 98 c 1,0,1
EndSplineSet
Ligature2: "'psts' Post Base Substitutions lookup 8 subtable" tm_nga tm_ikaar
EndChar

StartChar: tm_c_ikaar
Encoding: 65545 -1 122
Width: 976
GlyphClass: 2
Flags: W
LayerCount: 2
Fore
SplineSet
1212 1138 m 1,0,1
 1194 1106 1194 1106 1185 1039 c 128,-1,2
 1176 972 1176 972 1170 960 c 1,3,4
 1056 1146 1056 1146 742 1146 c 0,5,6
 576 1146 576 1146 452 1095 c 128,-1,7
 328 1044 328 1044 340 978 c 0,8,9
 356 894 356 894 486 822 c 0,10,11
 592 766 592 766 634 766 c 2,12,-1
 760 770 l 1,13,-1
 910 774 l 1,14,15
 904 746 904 746 899 711 c 128,-1,16
 894 676 894 676 894 652 c 1,17,18
 890 654 890 654 872 654 c 0,19,20
 812 654 812 654 650 628 c 1,21,-1
 650 520 l 1,22,-1
 776 526 l 1,23,-1
 964 534 l 1,24,25
 942 484 942 484 942 412 c 1,26,27
 868 412 868 412 790 404 c 128,-1,28
 712 396 712 396 634 378 c 1,29,30
 634 284 634 284 620 210 c 128,-1,31
 606 136 606 136 574 48 c 1,32,33
 442 -28 442 -28 286 -60 c 1,34,35
 214 -30 214 -30 178 -6 c 0,36,37
 106 38 106 38 64 100 c 1,38,39
 30 206 30 206 30 268 c 0,40,41
 30 316 30 316 40 346 c 1,42,43
 68 374 68 374 118 394 c 2,44,-1
 188 422 l 1,45,-1
 188 500 l 2,46,47
 188 596 188 596 214 686 c 1,48,49
 278 692 278 692 464 736 c 1,50,-1
 394 754 l 2,51,52
 280 782 280 782 192 830 c 1,53,54
 140 940 140 940 140 1054 c 0,55,56
 140 1108 140 1108 150 1146 c 1,57,58
 412 1266 412 1266 686 1266 c 0,59,60
 1004 1266 1004 1266 1212 1138 c 1,0,1
446 478 m 1,61,62
 448 486 448 486 448 504 c 0,63,64
 448 530 448 530 438 580 c 1,65,66
 382 580 382 580 338 558 c 1,67,68
 306 518 306 518 300 452 c 1,69,70
 358 452 358 452 446 478 c 1,61,62
460 130 m 1,71,72
 460 174 460 174 459 218 c 128,-1,73
 458 262 458 262 458 308 c 2,74,-1
 458 348 l 1,75,76
 418 348 418 348 337 318 c 128,-1,77
 256 288 256 288 218 250 c 1,78,79
 216 232 216 232 216 222 c 0,80,81
 216 214 216 214 221 180 c 128,-1,82
 226 146 226 146 236 138 c 0,83,84
 286 116 286 116 354 116 c 0,85,86
 418 116 418 116 460 130 c 1,71,72
EndSplineSet
Ligature2: "'psts' Post Base Substitutions lookup 8 subtable" tm_ca tm_ikaar
EndChar

StartChar: tm_j_ikaar
Encoding: 65546 -1 123
Width: 1258
GlyphClass: 2
Flags: W
LayerCount: 2
Fore
SplineSet
1552 1182 m 1,0,-1
 1478 1014 l 1,1,2
 1448 1058 1448 1058 1312 1116 c 0,3,4
 1238 1150 1238 1150 1169 1170 c 128,-1,5
 1100 1190 1100 1190 1044 1190 c 0,6,7
 958 1190 958 1190 896 1182 c 128,-1,8
 834 1174 834 1174 780 1152 c 0,9,10
 644 1098 644 1098 626 976 c 1,11,12
 656 902 656 902 784 848 c 2,13,-1
 1022 752 l 1,14,15
 1160 680 1160 680 1214 558 c 1,16,17
 1214 498 1214 498 1166 408 c 1,18,-1
 1112 316 l 1,19,20
 1062 306 1062 306 978 272 c 1,21,22
 1008 272 1008 272 1022 270 c 128,-1,23
 1036 268 1036 268 1074 256 c 0,24,25
 1150 238 1150 238 1188 206 c 1,26,27
 1200 164 1200 164 1200 112 c 0,28,29
 1200 38 1200 38 1178 -22 c 1,30,31
 1098 -110 1098 -110 938 -190 c 1,32,33
 742 -154 742 -154 652 -94 c 1,34,35
 652 -44 652 -44 674 0 c 1,36,37
 692 -12 692 -12 748 -30 c 0,38,39
 782 -40 782 -40 818 -46 c 128,-1,40
 854 -52 854 -52 888 -52 c 0,41,42
 942 -52 942 -52 984 -38 c 1,43,44
 1012 28 1012 28 1022 112 c 1,45,46
 1012 128 1012 128 924 140 c 1,47,-1
 850 140 l 2,48,49
 802 140 802 140 780 136 c 0,50,51
 694 124 694 124 630 -6 c 1,52,53
 578 -102 578 -102 570 -170 c 1,54,-1
 498 -174 l 1,55,56
 286 -174 286 -174 78 -26 c 1,57,58
 68 14 68 14 68 46 c 0,59,60
 68 104 68 104 114 228 c 1,61,62
 138 250 138 250 212 268 c 128,-1,63
 286 286 286 286 296 294 c 1,64,65
 290 292 290 292 274 292 c 0,66,67
 248 292 248 292 200 302 c 128,-1,68
 152 312 152 312 116 340 c 1,69,70
 72 398 72 398 40 484 c 1,71,72
 58 560 58 560 144 648 c 0,73,74
 238 746 238 746 342 776 c 1,75,76
 472 776 472 776 555 763 c 128,-1,77
 638 750 638 750 672 728 c 1,78,79
 684 704 684 704 690 656 c 1,80,81
 690 610 690 610 700 596 c 1,82,83
 734 640 734 640 818 712 c 1,84,85
 802 722 802 722 786 734 c 0,86,87
 732 766 732 766 676 794 c 0,88,89
 500 882 500 882 442 940 c 1,90,91
 442 1026 442 1026 475 1102 c 128,-1,92
 508 1178 508 1178 578 1246 c 1,93,94
 698 1290 698 1290 900 1290 c 0,95,96
 1092 1290 1092 1290 1296 1254 c 0,97,98
 1486 1224 1486 1224 1552 1182 c 1,0,-1
1056 494 m 2,99,-1
 1056 520 l 2,100,101
 1056 528 1056 528 1056 536 c 0,102,103
 1052 546 1052 546 1050 561 c 128,-1,104
 1048 576 1048 576 1031 599 c 128,-1,105
 1014 622 1014 622 948 622 c 0,106,107
 862 622 862 622 810 590 c 1,108,109
 806 578 806 578 793 533 c 128,-1,110
 780 488 780 488 776 474 c 0,111,112
 764 410 764 410 768 390 c 1,113,-1
 682 398 l 1,114,-1
 588 398 l 1,115,116
 588 442 588 442 556 530 c 1,117,118
 520 646 520 646 468 668 c 1,119,-1
 430 672 l 1,120,121
 390 672 390 672 338 654 c 1,122,123
 296 624 296 624 296 602 c 1,124,125
 304 606 304 606 334 613 c 128,-1,126
 364 620 364 620 392 624 c 1,127,128
 412 618 412 618 427 610 c 128,-1,129
 442 602 442 602 470 578 c 0,130,131
 522 538 522 538 534 494 c 1,132,133
 534 440 534 440 490 382 c 1,134,-1
 422 310 l 1,135,136
 762 340 762 340 828 354 c 0,137,138
 1056 396 1056 396 1056 494 c 2,99,-1
366 456 m 0,139,140
 366 498 366 498 341 516 c 128,-1,141
 316 534 316 534 278 528 c 0,142,143
 260 526 260 526 240 500 c 128,-1,144
 220 474 220 474 220 450 c 0,145,146
 220 404 220 404 284 390 c 0,147,148
 296 390 296 390 311 391 c 128,-1,149
 326 392 326 392 345 408 c 128,-1,150
 364 424 364 424 366 456 c 0,139,140
754 244 m 1,151,-1
 722 248 l 1,152,153
 556 248 556 248 430 218 c 1,154,155
 282 164 282 164 246 72 c 1,156,157
 300 -6 300 -6 410 -66 c 1,158,159
 466 16 466 16 520 72 c 0,160,161
 646 214 646 214 754 244 c 1,151,-1
EndSplineSet
Ligature2: "'psts' Post Base Substitutions lookup 8 subtable" tm_ja tm_ikaar
EndChar

StartChar: tm_ny_ikaar
Encoding: 65547 -1 124
Width: 1626
GlyphClass: 2
Flags: W
LayerCount: 2
Fore
SplineSet
724 200 m 0,0,1
 724 248 724 248 684 290 c 128,-1,2
 644 332 644 332 594 332 c 0,3,4
 554 332 554 332 524 286 c 128,-1,5
 494 240 494 240 494 192 c 0,6,7
 494 154 494 154 534 122 c 0,8,9
 570 98 570 98 620 88 c 1,10,11
 646 102 646 102 676 128 c 0,12,13
 722 170 722 170 724 200 c 0,0,1
768 744 m 1,14,15
 728 764 728 764 688 784 c 0,16,17
 654 804 654 804 618 830 c 1,18,19
 560 946 560 946 560 1046 c 0,20,21
 560 1104 560 1104 574 1166 c 1,22,23
 776 1278 776 1278 1088 1278 c 0,24,25
 1282 1278 1282 1278 1447 1236 c 128,-1,26
 1612 1194 1612 1194 1650 1140 c 1,27,28
 1636 1112 1636 1112 1616 1046 c 0,29,30
 1612 1024 1612 1024 1609 1002 c 128,-1,31
 1606 980 1606 980 1606 968 c 1,32,33
 1574 1054 1574 1054 1438 1107 c 128,-1,34
 1302 1160 1302 1160 1148 1160 c 0,35,36
 1012 1160 1012 1160 905 1120 c 128,-1,37
 798 1080 798 1080 760 1006 c 1,38,39
 786 900 786 900 922 830 c 0,40,41
 1022 782 1022 782 1164 758 c 1,42,43
 1246 758 1246 758 1283 754 c 128,-1,44
 1320 750 1320 750 1438 734 c 1,45,-1
 1454 618 l 1,46,-1
 1348 622 l 1,47,-1
 1198 624 l 1,48,49
 1164 470 1164 470 1164 414 c 1,50,51
 1224 446 1224 446 1278 464 c 128,-1,52
 1332 482 1332 482 1384 482 c 1,53,54
 1446 458 1446 458 1505 377 c 128,-1,55
 1564 296 1564 296 1598 174 c 1,56,57
 1560 34 1560 34 1502 -82 c 1,58,59
 1398 -164 1398 -164 1254 -240 c 0,60,61
 1168 -284 1168 -284 1088 -314 c 128,-1,62
 1008 -344 1008 -344 924 -364 c 1,63,64
 858 -364 858 -364 764 -351 c 128,-1,65
 670 -338 670 -338 550 -314 c 0,66,67
 324 -272 324 -272 256 -240 c 1,68,69
 124 -128 124 -128 30 60 c 1,70,71
 30 118 30 118 35 149 c 128,-1,72
 40 180 40 180 54 228 c 0,73,74
 96 396 96 396 224 634 c 1,75,76
 252 628 252 628 302 604 c 1,77,78
 286 584 286 584 244 452 c 0,79,80
 196 290 196 290 196 156 c 0,81,82
 196 90 196 90 206 48 c 1,83,84
 262 -96 262 -96 486 -170 c 0,85,86
 578 -198 578 -198 834 -240 c 1,87,88
 1002 -226 1002 -226 1194 -126 c 0,89,90
 1368 -34 1368 -34 1408 38 c 1,91,92
 1414 74 1414 74 1414 126 c 0,93,94
 1414 176 1414 176 1408 246 c 1,95,96
 1356 320 1356 320 1264 320 c 1,97,98
 1176 298 1176 298 1144 222 c 1,99,100
 1132 144 1132 144 1124 61 c 128,-1,101
 1116 -22 1116 -22 1116 -76 c 1,102,103
 1072 -76 1072 -76 1028 -70 c 128,-1,104
 984 -64 984 -64 958 -60 c 1,105,-1
 966 214 l 1,106,-1
 980 624 l 1,107,-1
 938 626 l 1,108,-1
 874 628 l 2,109,110
 746 628 746 628 574 586 c 1,111,112
 538 542 538 542 497 459 c 128,-1,113
 456 376 456 376 460 354 c 1,114,115
 514 404 514 404 580 433 c 128,-1,116
 646 462 646 462 722 462 c 1,117,118
 840 418 840 418 894 218 c 1,119,120
 868 48 868 48 716 -20 c 1,121,-1
 642 -28 l 1,122,123
 528 -28 528 -28 420 32 c 1,124,125
 344 138 344 138 322 272 c 0,126,127
 312 332 312 332 312 472 c 1,128,129
 408 646 408 646 650 744 c 1,130,-1
 768 744 l 1,14,15
EndSplineSet
Ligature2: "'psts' Post Base Substitutions lookup 8 subtable" tm_nya tm_ikaar
EndChar

StartChar: tm_tt_ikaar
Encoding: 65548 -1 125
Width: 1170
GlyphClass: 2
Flags: W
LayerCount: 2
Fore
SplineSet
1158 32 m 1,0,1
 1060 10 1060 10 892 -9 c 128,-1,2
 724 -28 724 -28 652 -28 c 0,3,4
 628 -28 628 -28 -24 -554 c 1,5,-1
 -106 -396 l 1,6,7
 -28 -352 -28 -352 210 -192 c 0,8,9
 320 -118 320 -118 384 -70 c 1,10,11
 406 -48 406 -48 430 -28 c 1,12,13
 218 -28 218 -28 134 4 c 0,14,15
 112 16 112 16 92 150 c 0,16,17
 82 214 82 214 76 293 c 128,-1,18
 70 372 70 372 70 458 c 0,19,20
 70 508 70 508 71 567 c 128,-1,21
 72 626 72 626 86 716 c 1,22,-1
 304 738 l 1,23,24
 292 726 292 726 268 559 c 128,-1,25
 244 392 244 392 244 258 c 0,26,27
 244 220 244 220 246 188 c 128,-1,28
 248 156 248 156 254 130 c 1,29,30
 308 94 308 94 486 94 c 1,31,-1
 576 100 l 2,32,33
 600 102 600 102 650 168 c 1,34,35
 592 188 592 188 549 208 c 128,-1,36
 506 228 506 228 482 244 c 0,37,38
 442 270 442 270 398 326 c 1,39,40
 386 368 386 368 386 418 c 0,41,42
 386 460 386 460 396 526 c 1,43,44
 444 612 444 612 546 684 c 0,45,46
 622 736 622 736 678 750 c 1,47,48
 724 750 724 750 769 735 c 128,-1,49
 814 720 814 720 864 690 c 0,50,51
 934 652 934 652 976 604 c 1,52,53
 994 514 994 514 994 444 c 0,54,55
 994 398 994 398 992 379 c 128,-1,56
 990 360 990 360 978 326 c 1,57,58
 930 244 930 244 782 98 c 1,59,60
 990 130 990 130 1118 174 c 1,61,62
 1120 150 1120 150 1142 92 c 1,63,-1
 1158 32 l 1,0,1
830 346 m 1,64,-1
 834 400 l 1,65,66
 834 506 834 506 800 576 c 1,67,68
 764 590 764 590 716 590 c 0,69,70
 652 590 652 590 624 572 c 1,71,72
 574 512 574 512 552 386 c 1,73,74
 574 352 574 352 642 306 c 0,75,76
 692 272 692 272 738 256 c 1,77,78
 778 284 778 284 830 346 c 1,64,-1
EndSplineSet
Ligature2: "'psts' Post Base Substitutions lookup 8 subtable" tm_tta tm_ikaar
EndChar

StartChar: tm_nn_ikaar
Encoding: 65549 -1 126
Width: 1826
GlyphClass: 2
Flags: W
LayerCount: 2
Fore
SplineSet
2138 1050 m 1,0,1
 2116 996 2116 996 2102 947 c 128,-1,2
 2088 898 2088 898 2088 870 c 1,3,4
 2046 964 2046 964 1906 1024 c 0,5,6
 1846 1048 1846 1048 1771 1058 c 128,-1,7
 1696 1068 1696 1068 1614 1068 c 0,8,9
 1550 1068 1550 1068 1499 1059 c 128,-1,10
 1448 1050 1448 1050 1392 1030 c 0,11,12
 1280 992 1280 992 1264 922 c 1,13,14
 1264 832 1264 832 1416 746 c 0,15,16
 1540 678 1540 678 1596 678 c 0,17,18
 1644 678 1644 678 1694 678 c 128,-1,19
 1744 678 1744 678 1796 680 c 2,20,-1
 1818 680 l 1,21,-1
 1798 582 l 1,22,23
 1760 582 1760 582 1720 578 c 128,-1,24
 1680 574 1680 574 1600 560 c 1,25,26
 1582 472 1582 472 1572 333 c 128,-1,27
 1562 194 1562 194 1562 0 c 1,28,-1
 1448 -66 l 1,29,30
 1448 8 1448 8 1434 214 c 128,-1,31
 1420 420 1420 420 1420 554 c 1,32,33
 1322 536 1322 536 1244 504 c 1,34,35
 1372 372 1372 372 1372 232 c 1,36,37
 1354 152 1354 152 1257 62 c 128,-1,38
 1160 -28 1160 -28 1100 -28 c 0,39,40
 1010 -28 1010 -28 936 34 c 1,41,42
 864 88 864 88 840 168 c 1,43,44
 840 128 840 128 658 0 c 1,45,46
 606 6 606 6 545 47 c 128,-1,47
 484 88 484 88 470 118 c 1,48,49
 422 78 422 78 290 -6 c 1,50,51
 150 24 150 24 92 118 c 0,52,53
 46 188 46 188 30 328 c 1,54,55
 90 468 90 468 230 582 c 0,56,57
 348 676 348 676 436 690 c 1,58,59
 512 690 512 690 602 652 c 0,60,61
 666 626 666 626 708 590 c 1,62,63
 732 610 732 610 801 639 c 128,-1,64
 870 668 870 668 930 678 c 1,65,66
 1050 654 1050 654 1112 604 c 1,67,68
 1136 624 1136 624 1214 672 c 1,69,-1
 1364 672 l 1,70,-1
 1364 674 l 1,71,72
 1348 680 1348 680 1334 686 c 2,73,-1
 1226 718 l 1,74,-1
 1122 750 l 1,75,76
 1066 830 1066 830 1066 978 c 0,77,78
 1066 1008 1066 1008 1066 1040 c 1,79,80
 1072 1070 1072 1070 1074 1082 c 1,81,82
 1212 1152 1212 1152 1386 1176 c 1,83,-1
 1622 1190 l 1,84,85
 1788 1190 1788 1190 1924 1150 c 0,86,87
 2038 1116 2038 1116 2138 1050 c 1,0,1
1036 538 m 1,88,89
 1010 548 1010 548 972 548 c 0,90,91
 938 548 938 548 921 546 c 128,-1,92
 904 544 904 544 868 532 c 0,93,94
 814 520 814 520 806 506 c 1,95,96
 828 490 828 490 894 360 c 1,97,-1
 936 436 l 1,98,99
 980 502 980 502 1036 538 c 1,88,89
612 498 m 1,100,101
 588 552 588 552 424 552 c 0,102,103
 404 552 404 552 386 552 c 128,-1,104
 368 552 368 552 346 548 c 1,105,106
 304 520 304 520 252 456 c 0,107,108
 212 406 212 406 204 386 c 1,109,-1
 246 398 l 2,110,111
 290 408 290 408 324 408 c 1,112,-1
 372 402 l 1,113,114
 400 390 400 390 426 350 c 2,115,-1
 460 298 l 1,116,-1
 496 380 l 1,117,118
 540 462 540 462 612 498 c 1,100,101
758 228 m 1,119,120
 726 350 726 350 648 430 c 1,121,122
 622 404 622 404 600 346 c 128,-1,123
 578 288 578 288 578 244 c 1,124,-1
 584 208 l 1,125,126
 618 150 618 150 690 150 c 0,127,128
 758 150 758 150 758 228 c 1,119,120
1164 120 m 1,129,130
 1192 158 1192 158 1192 230 c 0,131,132
 1192 368 1192 368 1128 446 c 1,133,134
 1104 434 1104 434 1082 417 c 128,-1,135
 1060 400 1060 400 1032 370 c 0,136,137
 976 314 976 314 976 266 c 0,138,139
 976 240 976 240 994 214 c 128,-1,140
 1012 188 1012 188 1048 162 c 0,141,142
 1114 114 1114 114 1164 120 c 1,129,130
358 168 m 1,143,-1
 346 234 l 2,144,145
 334 288 334 288 302 302 c 1,146,147
 274 308 274 308 228 284 c 128,-1,148
 182 260 182 260 172 232 c 1,149,150
 178 164 178 164 248 140 c 1,151,152
 280 140 280 140 307 143 c 128,-1,153
 334 146 334 146 358 168 c 1,143,-1
EndSplineSet
Ligature2: "'psts' Post Base Substitutions lookup 8 subtable" tm_nna tm_ikaar
EndChar

StartChar: tm_t_ikaar
Encoding: 65550 -1 127
Width: 998
GlyphClass: 2
Flags: W
LayerCount: 2
Fore
SplineSet
1198 1146 m 1,0,1
 1164 1030 1164 1030 1156 962 c 1,2,3
 1130 1050 1130 1050 980 1110 c 0,4,5
 848 1162 848 1162 688 1162 c 0,6,7
 516 1162 516 1162 422 1123 c 128,-1,8
 328 1084 328 1084 312 1006 c 1,9,10
 366 862 366 862 618 790 c 0,11,12
 694 770 694 770 762 759 c 128,-1,13
 830 748 830 748 900 748 c 1,14,15
 906 718 906 718 908 696 c 128,-1,16
 910 674 910 674 910 624 c 1,17,18
 840 624 840 624 771 623 c 128,-1,19
 702 622 702 622 634 604 c 1,20,21
 616 506 616 506 620 488 c 1,22,23
 636 492 636 492 670 492 c 2,24,-1
 700 492 l 2,25,26
 774 492 774 492 806 482 c 1,27,28
 860 420 860 420 912 300 c 0,29,30
 938 236 938 236 953 183 c 128,-1,31
 968 130 968 130 968 80 c 1,32,33
 716 -212 716 -212 90 -562 c 1,34,-1
 -530 -886 l 1,35,-1
 -642 -830 l 1,36,37
 -292 -670 -292 -670 -60 -534 c 0,38,39
 450 -238 450 -238 778 100 c 1,40,-1
 778 196 l 2,41,42
 778 274 778 274 766 308 c 1,43,44
 724 350 724 350 642 350 c 0,45,46
 630 350 630 350 618 350 c 0,47,48
 598 346 598 346 590 346 c 1,49,50
 590 300 590 300 570 226 c 0,51,52
 560 188 560 188 542 132 c 2,53,-1
 496 0 l 1,54,55
 308 -82 308 -82 274 -82 c 1,56,57
 148 -16 148 -16 95 66 c 128,-1,58
 42 148 42 148 30 270 c 1,59,60
 52 304 52 304 110 346 c 0,61,62
 148 372 148 372 176 380 c 1,63,64
 176 528 176 528 192 614 c 1,65,66
 208 632 208 632 341 674 c 128,-1,67
 474 716 474 716 496 710 c 1,68,69
 478 718 478 718 464 722 c 0,70,71
 400 746 400 746 362 758 c 0,72,73
 212 802 212 802 168 856 c 1,74,75
 118 956 118 956 118 1056 c 0,76,77
 118 1114 118 1114 132 1176 c 1,78,79
 188 1222 188 1222 332 1256 c 0,80,81
 408 1272 408 1272 479 1280 c 128,-1,82
 550 1288 550 1288 640 1288 c 0,83,84
 994 1288 994 1288 1198 1146 c 1,0,1
416 466 m 1,85,86
 416 544 416 544 408 558 c 1,87,88
 350 558 350 558 314 502 c 0,89,90
 290 460 290 460 290 428 c 1,91,92
 360 440 360 440 416 466 c 1,85,86
416 316 m 1,93,94
 392 316 392 316 300 284 c 128,-1,95
 208 252 208 252 194 222 c 1,96,-1
 202 148 l 2,97,98
 210 102 210 102 221 89 c 128,-1,99
 232 76 232 76 267 68 c 128,-1,100
 302 60 302 60 368 60 c 1,101,102
 392 82 392 82 416 316 c 1,93,94
EndSplineSet
Ligature2: "'psts' Post Base Substitutions lookup 8 subtable" tm_ta tm_ikaar
EndChar

StartChar: tm_n_ikaar
Encoding: 65551 -1 128
Width: 912
GlyphClass: 2
Flags: W
LayerCount: 2
Fore
SplineSet
1034 1144 m 1,0,1
 1020 1116 1020 1116 1000 1050 c 0,2,3
 996 1028 996 1028 993 1006 c 128,-1,4
 990 984 990 984 990 972 c 1,5,6
 958 1058 958 1058 822 1111 c 128,-1,7
 686 1164 686 1164 532 1164 c 0,8,9
 396 1164 396 1164 289 1124 c 128,-1,10
 182 1084 182 1084 144 1010 c 1,11,12
 170 904 170 904 306 834 c 0,13,14
 406 786 406 786 548 762 c 0,15,16
 582 758 582 758 609 755 c 128,-1,17
 636 752 636 752 662 752 c 0,18,19
 682 752 682 752 688 754 c 1,20,21
 688 734 688 734 690 722 c 128,-1,22
 692 710 692 710 702 674 c 2,23,-1
 716 620 l 2,24,25
 712 622 712 622 690 622 c 0,26,27
 662 622 662 622 585 613 c 128,-1,28
 508 604 508 604 490 586 c 1,29,-1
 472 484 l 1,30,-1
 458 396 l 1,31,32
 494 434 494 434 553 467 c 128,-1,33
 612 500 612 500 638 504 c 1,34,35
 744 456 744 456 812 334 c 0,36,37
 870 228 870 228 882 86 c 1,38,39
 682 -196 682 -196 68 -498 c 1,40,-1
 -524 -762 l 1,41,42
 -524 -630 -524 -630 -540 -566 c 1,43,44
 -396 -548 -396 -548 -48 -388 c 1,45,46
 384 -196 384 -196 628 12 c 0,47,48
 658 36 658 36 684 104 c 0,49,50
 688 116 688 116 699 154 c 128,-1,51
 710 192 710 192 710 218 c 0,52,53
 710 302 710 302 578 342 c 1,54,55
 556 336 556 336 513 308 c 128,-1,56
 470 280 470 280 446 246 c 1,57,58
 444 234 444 234 444 202 c 0,59,60
 444 168 444 168 444 138 c 128,-1,61
 444 108 444 108 446 80 c 1,62,63
 420 70 420 70 306 70 c 1,64,65
 306 84 306 84 318 320 c 0,66,67
 324 438 324 438 324 538 c 1,68,-1
 256 520 l 1,69,70
 174 370 174 370 154 162 c 1,71,72
 154 100 154 100 152 65 c 128,-1,73
 150 30 150 30 148 -6 c 1,74,-1
 36 6 l 1,75,76
 32 18 32 18 30 39 c 128,-1,77
 28 60 28 60 28 110 c 0,78,79
 28 410 28 410 150 636 c 1,80,-1
 358 704 l 1,81,-1
 222 732 l 1,82,83
 98 764 98 764 2 836 c 1,84,85
 -28 896 -28 896 -42 946 c 128,-1,86
 -56 996 -56 996 -56 1050 c 0,87,88
 -56 1108 -56 1108 -42 1170 c 1,89,90
 160 1282 160 1282 472 1282 c 0,91,92
 666 1282 666 1282 831 1240 c 128,-1,93
 996 1198 996 1198 1034 1144 c 1,0,1
EndSplineSet
Ligature2: "'psts' Post Base Substitutions lookup 8 subtable" tm_na tm_ikaar
EndChar

StartChar: tm_nnn_ikaar
Encoding: 65552 -1 129
Width: 1416
GlyphClass: 2
Flags: W
LayerCount: 2
Fore
SplineSet
1672 1102 m 1,0,1
 1642 1058 1642 1058 1614 924 c 1,2,3
 1578 1026 1578 1026 1420 1092 c 0,4,5
 1276 1148 1276 1148 1106 1148 c 0,6,7
 972 1148 972 1148 885 1113 c 128,-1,8
 798 1078 798 1078 786 1010 c 0,9,10
 774 914 774 914 978 816 c 0,11,12
 1154 734 1154 734 1236 734 c 1,13,-1
 1378 716 l 1,14,15
 1398 664 1398 664 1404 614 c 1,16,17
 1360 614 1360 614 1232 598 c 1,18,19
 1218 554 1218 554 1209 475 c 128,-1,20
 1200 396 1200 396 1200 284 c 2,21,-1
 1192 56 l 1,22,23
 1172 44 1172 44 1142 28 c 128,-1,24
 1112 12 1112 12 1042 -20 c 1,25,-1
 1040 256 l 2,26,27
 1040 348 1040 348 1040 428 c 128,-1,28
 1040 508 1040 508 1042 576 c 1,29,30
 992 576 992 576 946 570 c 0,31,32
 940 570 940 570 862 554 c 1,33,34
 968 366 968 366 968 232 c 1,35,36
 920 86 920 86 708 -16 c 1,37,38
 568 2 568 2 470 130 c 1,39,-1
 384 54 l 2,40,41
 328 8 328 8 268 -4 c 1,42,43
 196 20 196 20 119 115 c 128,-1,44
 42 210 42 210 30 320 c 1,45,46
 54 448 54 448 178 566 c 0,47,48
 314 700 314 700 502 730 c 1,49,50
 592 706 592 706 748 646 c 1,51,52
 762 668 762 668 860 722 c 1,53,-1
 902 722 l 2,54,55
 958 722 958 722 968 730 c 1,56,-1
 920 742 l 2,57,58
 838 760 838 760 768 784 c 0,59,60
 674 816 674 816 626 864 c 1,61,62
 584 948 584 948 584 1040 c 0,63,64
 584 1110 584 1110 606 1188 c 1,65,66
 786 1270 786 1270 1046 1270 c 0,67,68
 1428 1270 1428 1270 1672 1102 c 1,0,1
644 560 m 1,69,70
 634 578 634 578 532 578 c 0,71,72
 390 578 390 578 302 528 c 1,73,74
 262 498 262 498 231 444 c 128,-1,75
 200 390 200 390 200 370 c 1,76,77
 246 422 246 422 384 422 c 1,78,79
 412 408 412 408 442 372 c 1,80,-1
 474 326 l 1,81,82
 474 338 474 338 539 428 c 128,-1,83
 604 518 604 518 644 560 c 1,69,70
780 188 m 1,84,-1
 784 248 l 1,85,86
 784 404 784 404 730 488 c 1,87,88
 672 436 672 436 624 348 c 0,89,90
 586 272 586 272 586 232 c 1,91,-1
 588 218 l 1,92,93
 628 148 628 148 688 148 c 0,94,95
 738 148 738 148 780 188 c 1,84,-1
382 238 m 0,96,97
 382 268 382 268 344 294 c 0,98,99
 336 300 336 300 316 310 c 128,-1,100
 296 320 296 320 276 320 c 1,101,102
 206 302 206 302 206 218 c 0,103,104
 206 194 206 194 222 172 c 128,-1,105
 238 150 238 150 294 150 c 0,106,107
 330 150 330 150 352 162 c 1,108,109
 382 190 382 190 382 238 c 0,96,97
EndSplineSet
Ligature2: "'psts' Post Base Substitutions lookup 8 subtable" tm_nnna tm_ikaar
EndChar

StartChar: tm_p_ikaar
Encoding: 65553 -1 130
Width: 860
GlyphClass: 2
Flags: W
LayerCount: 2
Fore
SplineSet
1162 1168 m 1,0,1
 1120 1116 1120 1116 1092 1004 c 1,2,3
 880 1174 880 1174 614 1174 c 0,4,5
 380 1174 380 1174 276 1058 c 1,6,7
 240 992 240 992 240 932 c 1,8,9
 294 848 294 848 424 792 c 0,10,11
 520 750 520 750 582 750 c 1,12,-1
 592 754 l 1,13,14
 592 802 592 802 582 814 c 1,15,16
 632 804 632 804 683 790 c 128,-1,17
 734 776 734 776 816 750 c 1,18,-1
 766 434 l 1,19,20
 720 210 720 210 624 38 c 1,21,22
 492 -4 492 -4 364 -4 c 0,23,24
 216 -4 216 -4 130 48 c 1,25,26
 104 106 104 106 75 265 c 128,-1,27
 46 424 46 424 46 532 c 0,28,29
 46 588 46 588 54 620 c 1,30,-1
 252 654 l 1,31,32
 246 614 246 614 242 554 c 128,-1,33
 238 494 238 494 238 412 c 0,34,35
 238 302 238 302 244 239 c 128,-1,36
 250 176 250 176 266 152 c 1,37,38
 310 130 310 130 376 130 c 0,39,40
 418 130 418 130 458 136 c 128,-1,41
 498 142 498 142 544 158 c 1,42,43
 566 206 566 206 590 376 c 0,44,45
 598 458 598 458 601 549 c 128,-1,46
 604 640 604 640 604 672 c 1,47,-1
 502 674 l 2,48,49
 442 674 442 674 388 686 c 128,-1,50
 334 698 334 698 280 720 c 0,51,52
 136 774 136 774 54 892 c 1,53,-1
 52 934 l 1,54,55
 52 1074 52 1074 174 1222 c 1,56,57
 304 1278 304 1278 532 1278 c 0,58,59
 622 1278 622 1278 714 1270 c 128,-1,60
 806 1262 806 1262 902 1244 c 0,61,62
 1086 1214 1086 1214 1162 1168 c 1,0,1
EndSplineSet
Ligature2: "'psts' Post Base Substitutions lookup 8 subtable" tm_pa tm_ikaar
EndChar

StartChar: tm_m_ikaar
Encoding: 65554 -1 131
Width: 1080
GlyphClass: 2
Flags: W
LayerCount: 2
Fore
SplineSet
1360 1108 m 1,0,-1
 1328 1010 l 2,1,2
 1310 948 1310 948 1314 928 c 1,3,4
 1270 1022 1270 1022 1130 1082 c 0,5,6
 1072 1104 1072 1104 999 1118 c 128,-1,7
 926 1132 926 1132 850 1132 c 0,8,9
 718 1132 718 1132 622 1097 c 128,-1,10
 526 1062 526 1062 494 1000 c 1,11,12
 494 974 494 974 493 952 c 128,-1,13
 492 930 492 930 492 912 c 0,14,15
 492 902 492 902 492 892 c 0,16,17
 496 880 496 880 496 876 c 0,18,19
 550 804 550 804 702 766 c 0,20,21
 798 742 798 742 864 742 c 1,22,23
 956 670 956 670 1008 534 c 0,24,25
 1052 420 1052 420 1052 336 c 0,26,27
 1052 314 1052 314 1048 302 c 0,28,29
 1008 226 1008 226 874 97 c 128,-1,30
 740 -32 740 -32 672 -56 c 1,31,-1
 612 -58 l 2,32,33
 496 -58 496 -58 365 -26 c 128,-1,34
 234 6 234 6 158 66 c 1,35,36
 124 110 124 110 78 378 c 0,37,38
 58 506 58 506 51 605 c 128,-1,39
 44 704 44 704 44 804 c 1,40,-1
 258 786 l 1,41,42
 234 672 234 672 234 374 c 0,43,44
 234 154 234 154 262 126 c 1,45,46
 406 98 406 98 440 98 c 1,47,48
 414 172 414 172 414 312 c 0,49,50
 414 568 414 568 540 716 c 1,51,-1
 454 758 l 2,52,53
 374 794 374 794 338 830 c 1,54,55
 292 866 292 866 292 1044 c 0,56,57
 292 1112 292 1112 302 1152 c 1,58,59
 464 1256 464 1256 772 1256 c 0,60,61
 962 1256 962 1256 1132 1214 c 128,-1,62
 1302 1172 1302 1172 1360 1108 c 1,0,-1
874 456 m 1,63,64
 818 568 818 568 664 596 c 1,65,66
 556 434 556 434 556 208 c 0,67,68
 556 180 556 180 556 163 c 128,-1,69
 556 146 556 146 564 98 c 1,70,-1
 646 98 l 1,71,72
 706 104 706 104 718 114 c 0,73,74
 874 238 874 238 874 456 c 1,63,64
EndSplineSet
Ligature2: "'psts' Post Base Substitutions lookup 8 subtable" tm_ma tm_ikaar
EndChar

StartChar: tm_y_ikaar
Encoding: 65555 -1 132
Width: 1250
GlyphClass: 2
Flags: W
LayerCount: 2
Fore
SplineSet
1564 1130 m 1,0,-1
 1524 1064 l 2,1,2
 1516 1050 1516 1050 1505 1020 c 128,-1,3
 1494 990 1494 990 1490 968 c 1,4,-1
 1356 1052 l 1,5,6
 1198 1130 1198 1130 1022 1146 c 1,7,8
 954 1146 954 1146 896 1135 c 128,-1,9
 838 1124 838 1124 778 1100 c 0,10,11
 652 1052 652 1052 634 966 c 0,12,13
 632 956 632 956 632 938 c 0,14,15
 632 916 632 916 634 906 c 0,16,17
 664 832 664 832 794 774 c 0,18,19
 902 726 902 726 966 726 c 0,20,21
 976 726 976 726 982 728 c 2,22,-1
 984 730 l 1,23,-1
 982 792 l 1,24,-1
 1206 716 l 1,25,-1
 1170 478 l 1,26,27
 1128 242 1128 242 1020 18 c 1,28,29
 924 -30 924 -30 782 -30 c 0,30,31
 688 -30 688 -30 618 -16 c 128,-1,32
 548 -2 548 -2 500 28 c 1,33,34
 484 56 484 56 473 102 c 128,-1,35
 462 148 462 148 462 202 c 1,36,37
 448 162 448 162 404 98 c 0,38,39
 350 16 350 16 320 0 c 1,40,41
 258 0 258 0 189 51 c 128,-1,42
 120 102 120 102 88 168 c 0,43,44
 78 188 78 188 60 370 c 1,45,46
 60 438 60 438 52 528 c 128,-1,47
 44 618 44 618 44 642 c 0,48,49
 44 680 44 680 48 686 c 1,50,-1
 228 672 l 1,51,52
 224 662 224 662 222 644 c 128,-1,53
 220 626 220 626 220 586 c 0,54,55
 220 476 220 476 235 349 c 128,-1,56
 250 222 250 222 272 190 c 1,57,58
 298 174 298 174 332 174 c 1,59,-1
 378 244 l 2,60,61
 400 282 400 282 415 312 c 128,-1,62
 430 342 430 342 436 370 c 1,63,-1
 436 482 l 1,64,-1
 434 598 l 1,65,66
 488 598 488 598 634 630 c 1,67,68
 622 594 622 594 622 368 c 0,69,70
 622 138 622 138 654 124 c 0,71,72
 696 100 696 100 770 100 c 0,73,74
 866 100 866 100 938 136 c 1,75,-1
 966 292 l 2,76,77
 996 464 996 464 996 566 c 1,78,-1
 990 646 l 1,79,-1
 946 644 l 1,80,81
 810 644 810 644 686 688 c 0,82,83
 508 748 508 748 442 884 c 0,84,85
 440 896 440 896 440 920 c 0,86,87
 440 1060 440 1060 572 1190 c 1,88,89
 698 1244 698 1244 936 1244 c 0,90,91
 1030 1244 1030 1244 1126 1236 c 128,-1,92
 1222 1228 1222 1228 1316 1210 c 0,93,94
 1502 1176 1502 1176 1564 1130 c 1,0,-1
EndSplineSet
Ligature2: "'psts' Post Base Substitutions lookup 8 subtable" tm_ya tm_ikaar
EndChar

StartChar: tm_r_ikaar
Encoding: 65556 -1 133
Width: 832
GlyphClass: 2
Flags: W
LayerCount: 2
Fore
SplineSet
556 -70 m 1,0,1
 448 -82 448 -82 302 -134 c 1,2,3
 24 -224 24 -224 -162 -384 c 1,4,5
 -176 -360 -176 -360 -192 -322 c 128,-1,6
 -208 -284 -208 -284 -226 -228 c 1,7,8
 -166 -186 -166 -186 102 -94 c 0,9,10
 354 -10 354 -10 414 -4 c 1,11,-1
 400 292 l 1,12,13
 400 578 400 578 380 592 c 1,14,15
 350 592 350 592 238 566 c 1,16,17
 216 474 216 474 200 368 c 0,18,19
 174 186 174 186 174 -10 c 1,20,21
 156 -10 156 -10 132 -2 c 2,22,-1
 90 6 l 1,23,24
 90 72 90 72 80 300 c 128,-1,25
 70 528 70 528 70 694 c 1,26,-1
 226 718 l 2,27,28
 276 724 276 724 292 726 c 0,29,30
 300 730 300 730 310 734 c 1,31,32
 210 760 210 760 74 842 c 1,33,34
 26 938 26 938 26 1044 c 0,35,36
 26 1092 26 1092 38 1152 c 1,37,38
 158 1218 158 1218 300 1242 c 1,39,-1
 560 1266 l 1,40,41
 732 1266 732 1266 870 1228 c 0,42,43
 988 1196 988 1196 1092 1130 c 1,44,45
 1086 1122 1086 1122 1064 1046 c 0,46,47
 1062 1036 1062 1036 1055 994 c 128,-1,48
 1048 952 1048 952 1048 944 c 1,49,50
 996 1044 996 1044 877 1089 c 128,-1,51
 758 1134 758 1134 566 1134 c 0,52,53
 510 1134 510 1134 460 1125 c 128,-1,54
 410 1116 410 1116 352 1098 c 0,55,56
 246 1066 246 1066 222 1004 c 1,57,-1
 222 930 l 1,58,59
 258 798 258 798 596 748 c 1,60,61
 634 748 634 748 671 748 c 128,-1,62
 708 748 708 748 762 742 c 1,63,64
 798 656 798 656 820 646 c 1,65,66
 788 646 788 646 726 635 c 128,-1,67
 664 624 664 624 596 610 c 1,68,69
 576 536 576 536 564 423 c 128,-1,70
 552 310 552 310 552 218 c 0,71,72
 552 170 552 170 554 76 c 128,-1,73
 556 -18 556 -18 556 -70 c 1,0,1
EndSplineSet
Ligature2: "'psts' Post Base Substitutions lookup 8 subtable" tm_ra tm_ikaar
EndChar

StartChar: tm_rr_ikaar
Encoding: 65557 -1 134
Width: 1040
GlyphClass: 2
Flags: W
LayerCount: 2
Fore
SplineSet
1296 1052 m 1,0,1
 1282 1024 1282 1024 1262 958 c 2,2,-1
 1240 880 l 1,3,4
 1240 942 1240 942 1118 1010 c 0,5,6
 1046 1048 1046 1048 979 1067 c 128,-1,7
 912 1086 912 1086 832 1086 c 0,8,9
 744 1086 744 1086 688 1081 c 128,-1,10
 632 1076 632 1076 574 1060 c 0,11,12
 434 1024 434 1024 422 944 c 1,13,14
 422 878 422 878 494 820 c 1,15,-1
 610 738 l 1,16,17
 856 694 856 694 984 460 c 1,18,-1
 998 310 l 1,19,20
 998 234 998 234 966 124 c 0,21,22
 926 -26 926 -26 692 -232 c 0,23,24
 556 -352 556 -352 246 -572 c 0,25,26
 -26 -764 -26 -764 -86 -824 c 1,27,28
 -100 -762 -100 -762 -116 -706 c 128,-1,29
 -132 -650 -132 -650 -156 -586 c 1,30,-1
 88 -472 l 1,31,32
 308 -362 308 -362 458 -258 c 0,33,34
 842 6 842 6 842 294 c 0,35,36
 842 462 842 462 664 534 c 1,37,38
 520 436 520 436 476 218 c 0,39,40
 468 182 468 182 464 138 c 128,-1,41
 460 94 460 94 460 60 c 0,42,43
 460 28 460 28 462 12 c 1,44,-1
 342 -12 l 1,45,-1
 336 68 l 1,46,47
 336 136 336 136 332 172 c 128,-1,48
 328 208 328 208 318 266 c 0,49,50
 298 392 298 392 246 446 c 1,51,52
 162 356 162 356 162 162 c 0,53,54
 162 32 162 32 184 -4 c 1,55,-1
 66 4 l 1,56,57
 42 58 42 58 42 150 c 0,58,59
 42 370 42 370 174 614 c 1,60,-1
 272 618 l 2,61,62
 328 618 328 618 348 614 c 1,63,64
 366 590 366 590 386 520 c 0,65,66
 390 502 390 502 397 470 c 128,-1,67
 404 438 404 438 404 424 c 1,68,-1
 454 534 l 1,69,70
 498 618 498 618 554 674 c 1,71,72
 532 684 532 684 512 696 c 0,73,74
 474 712 474 712 436 730 c 0,75,76
 286 790 286 790 262 806 c 1,77,78
 226 878 226 878 226 996 c 0,79,80
 226 1062 226 1062 240 1112 c 1,81,82
 442 1210 442 1210 704 1210 c 0,83,84
 900 1210 900 1210 1070 1160 c 0,85,86
 1230 1116 1230 1116 1296 1052 c 1,0,1
EndSplineSet
Ligature2: "'psts' Post Base Substitutions lookup 8 subtable" tm_rra tm_ikaar
EndChar

StartChar: tm_l_ikaar
Encoding: 65558 -1 135
Width: 1348
GlyphClass: 2
Flags: W
LayerCount: 2
Fore
SplineSet
1410 1152 m 1,0,1
 1400 1134 1400 1134 1382 1052 c 2,2,-1
 1364 966 l 1,3,4
 1328 1062 1328 1062 1188 1116 c 0,5,6
 1062 1162 1062 1162 902 1162 c 0,7,8
 754 1162 754 1162 648 1123 c 128,-1,9
 542 1084 542 1084 542 1022 c 0,10,11
 542 928 542 928 704 850 c 1,12,13
 1014 712 1014 712 1040 694 c 0,14,15
 1242 570 1242 570 1320 348 c 1,16,17
 1282 186 1282 186 1128 60 c 0,18,19
 996 -52 996 -52 892 -60 c 1,20,21
 714 -10 714 -10 606 98 c 1,22,-1
 598 212 l 1,23,24
 598 292 598 292 612 416 c 1,25,-1
 616 538 l 1,26,27
 552 602 552 602 420 614 c 1,28,29
 366 602 366 602 286 516 c 0,30,31
 216 440 216 440 218 422 c 1,32,33
 266 452 266 452 344 452 c 0,34,35
 414 452 414 452 441 434 c 128,-1,36
 468 416 468 416 498 344 c 0,37,38
 514 304 514 304 521 260 c 128,-1,39
 528 216 528 216 528 164 c 1,40,41
 520 130 520 130 426 62 c 128,-1,42
 332 -6 332 -6 294 -6 c 1,43,44
 178 36 178 36 104 134 c 0,45,46
 68 184 68 184 49 236 c 128,-1,47
 30 288 30 288 30 348 c 1,48,49
 94 522 94 522 258 642 c 0,50,51
 376 726 376 726 486 750 c 1,52,53
 596 736 596 736 696 680 c 128,-1,54
 796 624 796 624 834 554 c 1,55,56
 818 534 818 534 780 400 c 0,57,58
 760 328 760 328 751 283 c 128,-1,59
 742 238 742 238 742 208 c 1,60,61
 772 154 772 154 859 120 c 128,-1,62
 946 86 946 86 1002 86 c 1,63,64
 1032 106 1032 106 1076 204 c 0,65,66
 1102 258 1102 258 1115 303 c 128,-1,67
 1128 348 1128 348 1128 384 c 1,68,69
 1086 560 1086 560 808 688 c 1,70,-1
 396 852 l 1,71,72
 336 942 336 942 336 1096 c 0,73,74
 336 1154 336 1154 346 1184 c 1,75,76
 502 1292 502 1292 836 1292 c 0,77,78
 1172 1292 1172 1292 1410 1152 c 1,0,1
366 322 m 0,79,80
 344 344 344 344 294 344 c 0,81,82
 284 344 284 344 252 340 c 1,83,84
 236 328 236 328 214 291 c 128,-1,85
 192 254 192 254 192 228 c 0,86,87
 192 196 192 196 231 174 c 128,-1,88
 270 152 270 152 312 152 c 0,89,90
 346 152 346 152 368 170 c 1,91,92
 390 196 390 196 390 250 c 0,93,94
 390 294 390 294 366 322 c 0,79,80
EndSplineSet
Ligature2: "'psts' Post Base Substitutions lookup 8 subtable" tm_la tm_ikaar
EndChar

StartChar: tm_ll_ikaar
Encoding: 65559 -1 136
Width: 1352
GlyphClass: 2
Flags: W
LayerCount: 2
Fore
SplineSet
1610 1096 m 1,0,-1
 1552 922 l 1,1,2
 1510 1024 1510 1024 1366 1083 c 128,-1,3
 1222 1142 1222 1142 1028 1142 c 0,4,5
 770 1142 770 1142 728 1022 c 1,6,7
 728 982 728 982 751 944 c 128,-1,8
 774 906 774 906 828 868 c 0,9,10
 900 816 900 816 1032 764 c 1,11,-1
 1154 722 l 1,12,-1
 1316 730 l 1,13,-1
 1340 614 l 1,14,-1
 1276 606 l 1,15,-1
 1176 598 l 1,16,17
 1158 478 1158 478 1154 426 c 0,18,19
 1144 318 1144 318 1144 254 c 1,20,-1
 1120 -56 l 1,21,-1
 974 -138 l 1,22,-1
 976 216 l 2,23,24
 976 340 976 340 972 436 c 128,-1,25
 968 532 968 532 964 570 c 1,26,-1
 898 572 l 1,27,28
 848 540 848 540 816 274 c 2,29,-1
 786 -4 l 1,30,31
 756 -12 756 -12 725 -24 c 128,-1,32
 694 -36 694 -36 664 -50 c 1,33,-1
 668 80 l 1,34,-1
 668 302 l 2,35,36
 668 430 668 430 650 496 c 1,37,38
 592 570 592 570 526 598 c 1,39,40
 510 598 510 598 477 589 c 128,-1,41
 444 580 444 580 388 560 c 2,42,-1
 242 510 l 1,43,-1
 198 354 l 1,44,45
 210 374 210 374 268 392 c 0,46,47
 332 408 332 408 444 408 c 1,48,49
 486 384 486 384 526 317 c 128,-1,50
 566 250 566 250 578 178 c 1,51,52
 546 90 546 90 450 24 c 0,53,54
 370 -28 370 -28 296 -28 c 1,55,56
 62 96 62 96 26 282 c 1,57,58
 32 338 32 338 76 432 c 128,-1,59
 120 526 120 526 180 598 c 1,60,61
 250 668 250 668 298 696 c 0,62,63
 356 726 356 726 446 744 c 1,64,65
 514 738 514 738 615 690 c 128,-1,66
 716 642 716 642 772 590 c 1,67,68
 790 644 790 644 790 716 c 1,69,-1
 948 716 l 1,70,-1
 800 758 l 2,71,72
 618 812 618 812 566 876 c 1,73,74
 532 944 532 944 532 1046 c 0,75,76
 532 1092 532 1092 536 1125 c 128,-1,77
 540 1158 540 1158 552 1200 c 1,78,79
 746 1270 746 1270 964 1270 c 256,80,81
 1182 1270 1182 1270 1390 1204 c 0,82,83
 1558 1150 1558 1150 1610 1096 c 1,0,-1
408 250 m 1,84,85
 380 290 380 290 312 290 c 1,86,87
 282 284 282 284 252 248 c 2,88,-1
 218 206 l 1,89,90
 248 122 248 122 268 114 c 1,91,-1
 318 110 l 1,92,-1
 344 110 l 2,93,94
 362 110 362 110 378 114 c 1,95,96
 410 154 410 154 410 216 c 0,97,98
 410 238 410 238 408 250 c 1,84,85
EndSplineSet
Ligature2: "'psts' Post Base Substitutions lookup 8 subtable" tm_lla tm_ikaar
EndChar

StartChar: tm_lll_ikaar
Encoding: 65560 -1 137
Width: 1090
GlyphClass: 2
Flags: W
LayerCount: 2
Fore
SplineSet
1228 1156 m 1,0,1
 1218 1132 1218 1132 1184 972 c 1,2,3
 1146 1060 1146 1060 1004 1120 c 0,4,5
 944 1144 944 1144 873 1156 c 128,-1,6
 802 1168 802 1168 730 1168 c 0,7,8
 370 1168 370 1168 348 1006 c 1,9,10
 348 966 348 966 389 927 c 128,-1,11
 430 888 430 888 520 844 c 0,12,13
 682 766 682 766 748 772 c 1,14,-1
 884 708 l 2,15,16
 982 658 982 658 1030 604 c 1,17,18
 1046 534 1046 534 1046 460 c 0,19,20
 1046 384 1046 384 1032 306 c 128,-1,21
 1018 228 1018 228 988 150 c 1,22,23
 944 92 944 92 846 38 c 2,24,-1
 720 -28 l 1,25,26
 780 -104 780 -104 924 -104 c 0,27,28
 1008 -104 1008 -104 1042 -86 c 1,29,-1
 988 -222 l 1,30,-1
 972 -224 l 1,31,32
 896 -224 896 -224 748 -194 c 1,33,-1
 666 -280 l 1,34,35
 596 -340 596 -340 542 -340 c 0,36,37
 468 -340 468 -340 377 -284 c 128,-1,38
 286 -228 286 -228 248 -222 c 1,39,40
 158 -240 158 -240 38 -340 c 1,41,-1
 -60 -196 l 1,42,43
 -28 -170 -28 -170 34 -142 c 0,44,45
 118 -100 118 -100 176 -94 c 1,46,-1
 358 -152 l 2,47,48
 498 -196 498 -196 510 -194 c 0,49,50
 526 -190 526 -190 542 -186 c 0,51,52
 576 -176 576 -176 623 -158 c 128,-1,53
 670 -140 670 -140 672 -132 c 1,54,-1
 532 -34 l 1,55,-1
 502 -36 l 1,56,57
 430 -36 430 -36 304 -2 c 128,-1,58
 178 32 178 32 130 66 c 1,59,60
 58 204 58 204 58 408 c 0,61,62
 58 588 58 588 106 736 c 1,63,-1
 314 730 l 1,64,65
 284 692 284 692 246 552 c 0,66,67
 226 476 226 476 214 409 c 128,-1,68
 202 342 202 342 202 290 c 0,69,70
 202 244 202 244 210 218 c 1,71,72
 272 124 272 124 486 82 c 1,73,74
 458 134 458 134 426 260 c 0,75,76
 384 416 384 416 384 544 c 1,77,78
 470 656 470 656 584 716 c 1,79,-1
 448 760 l 2,80,81
 356 786 356 786 297 808 c 128,-1,82
 238 830 238 830 196 852 c 1,83,84
 146 948 146 948 146 1062 c 0,85,86
 146 1116 146 1116 158 1176 c 1,87,88
 314 1290 314 1290 672 1290 c 0,89,90
 1022 1290 1022 1290 1228 1156 c 1,0,1
878 202 m 1,91,92
 908 230 908 230 908 384 c 0,93,94
 908 504 908 504 878 576 c 1,95,96
 840 610 840 610 730 610 c 0,97,98
 652 610 652 610 628 598 c 1,99,100
 544 516 544 516 544 340 c 0,101,102
 544 162 544 162 616 86 c 1,103,104
 692 96 692 96 779 131 c 128,-1,105
 866 166 866 166 878 202 c 1,91,92
EndSplineSet
Ligature2: "'psts' Post Base Substitutions lookup 8 subtable" tm_llla tm_ikaar
EndChar

StartChar: tm_v_ikaar
Encoding: 65561 -1 138
Width: 1194
GlyphClass: 2
Flags: W
LayerCount: 2
Fore
SplineSet
1486 1168 m 1,0,1
 1482 1164 1482 1164 1460 1084 c 2,2,-1
 1438 992 l 1,3,4
 1420 1066 1420 1066 1286 1128 c 0,5,6
 1220 1158 1220 1158 1150 1174 c 128,-1,7
 1080 1190 1080 1190 1002 1190 c 0,8,9
 854 1190 854 1190 748 1160 c 0,10,11
 606 1120 606 1120 606 1036 c 0,12,13
 606 974 606 974 686 912 c 1,14,15
 750 868 750 868 837 836 c 128,-1,16
 924 804 924 804 930 814 c 2,17,-1
 974 946 l 1,18,-1
 1082 934 l 1,19,-1
 1186 918 l 1,20,21
 1068 758 1068 758 1068 640 c 0,22,23
 1068 582 1068 582 1124 402 c 0,24,25
 1146 326 1146 326 1155 269 c 128,-1,26
 1164 212 1164 212 1164 170 c 1,27,28
 1128 24 1128 24 958 -124 c 1,29,30
 892 -124 892 -124 845 -119 c 128,-1,31
 798 -114 798 -114 744 -98 c 0,32,33
 722 -92 722 -92 683 -76 c 128,-1,34
 644 -60 644 -60 582 -30 c 0,35,36
 496 12 496 12 444 18 c 1,37,38
 382 10 382 10 262 -42 c 1,39,40
 246 -36 246 -36 176 82 c 1,41,42
 186 80 186 80 206 80 c 0,43,44
 304 80 304 80 472 152 c 0,45,46
 676 238 676 238 692 332 c 1,47,-1
 696 392 l 1,48,49
 696 588 696 588 558 640 c 1,50,-1
 536 640 l 2,51,52
 478 640 478 640 398 614 c 0,53,54
 292 578 292 578 268 536 c 1,55,-1
 388 536 l 1,56,57
 460 494 460 494 504 360 c 1,58,59
 474 272 474 272 352 164 c 1,60,-1
 294 158 l 1,61,62
 30 158 30 158 30 342 c 0,63,64
 30 462 30 462 144 594 c 0,65,66
 268 732 268 732 442 786 c 1,67,68
 590 758 590 758 707 683 c 128,-1,69
 824 608 824 608 850 522 c 1,70,71
 850 444 850 444 841 371 c 128,-1,72
 832 298 832 298 810 228 c 1,73,74
 780 192 780 192 708 142 c 128,-1,75
 636 92 636 92 600 82 c 1,76,77
 712 22 712 22 914 22 c 1,78,79
 1000 118 1000 118 1024 200 c 1,80,81
 1034 256 1034 256 978 432 c 2,82,-1
 914 642 l 1,83,-1
 922 716 l 1,84,-1
 744 764 l 2,85,86
 546 818 546 818 452 890 c 1,87,88
 402 990 402 990 402 1112 c 0,89,90
 402 1162 402 1162 410 1200 c 1,91,92
 500 1258 500 1258 620 1288 c 128,-1,93
 740 1318 740 1318 894 1318 c 0,94,95
 1044 1318 1044 1318 1204 1288 c 0,96,97
 1408 1250 1408 1250 1486 1168 c 1,0,1
314 272 m 1,98,99
 340 298 340 298 340 356 c 0,100,101
 340 410 340 410 319 419 c 128,-1,102
 298 428 298 428 290 428 c 0,103,104
 234 428 234 428 198 406 c 1,105,106
 168 360 168 360 172 332 c 1,107,108
 184 312 184 312 232 288 c 1,109,110
 274 272 274 272 314 272 c 1,98,99
EndSplineSet
Ligature2: "'psts' Post Base Substitutions lookup 8 subtable" tm_va tm_ikaar
EndChar

StartChar: tm_ss_ikaar
Encoding: 65562 -1 139
Width: 1686
GlyphClass: 2
Flags: W
LayerCount: 2
Fore
SplineSet
1804 1120 m 1,0,1
 1760 1074 1760 1074 1718 962 c 1,2,3
 1654 1020 1654 1020 1508 1085 c 128,-1,4
 1362 1150 1362 1150 1264 1150 c 0,5,6
 1178 1150 1178 1150 1111 1136 c 128,-1,7
 1044 1122 1044 1122 994 1098 c 1,8,9
 856 1044 856 1044 868 918 c 1,10,11
 896 842 896 842 1010 784 c 0,12,13
 1100 738 1100 738 1198 728 c 1,14,15
 1386 692 1386 692 1500 576 c 1,16,17
 1506 544 1506 544 1510 514 c 128,-1,18
 1514 484 1514 484 1514 450 c 0,19,20
 1514 366 1514 366 1492 288 c 1,21,22
 1446 222 1446 222 1290 72 c 1,23,24
 1386 86 1386 86 1632 140 c 1,25,-1
 1672 4 l 1,26,27
 1544 -22 1544 -22 1422 -33 c 128,-1,28
 1300 -44 1300 -44 1156 -44 c 1,29,-1
 766 -326 l 2,30,31
 526 -498 526 -498 466 -554 c 1,32,33
 454 -522 454 -522 437 -485 c 128,-1,34
 420 -448 420 -448 390 -390 c 1,35,-1
 616 -258 l 2,36,37
 784 -160 784 -160 948 -42 c 1,38,39
 930 -44 930 -44 918 -44 c 0,40,41
 890 -44 890 -44 837 -38 c 128,-1,42
 784 -32 784 -32 714 -22 c 0,43,44
 534 2 534 2 442 28 c 1,45,46
 404 16 404 16 282 -60 c 1,47,48
 268 -34 268 -34 240 10 c 0,49,50
 204 68 204 68 186 94 c 1,51,52
 332 94 332 94 459 159 c 128,-1,53
 586 224 586 224 692 342 c 1,54,55
 692 454 692 454 661 535 c 128,-1,56
 630 616 630 616 568 652 c 1,57,58
 556 654 556 654 532 654 c 0,59,60
 470 654 470 654 397 625 c 128,-1,61
 324 596 324 596 280 552 c 1,62,63
 368 552 368 552 394 542 c 1,64,65
 466 494 466 494 498 342 c 1,66,67
 444 244 444 244 350 176 c 1,68,69
 338 174 338 174 316 174 c 0,70,71
 236 174 236 174 152 216 c 0,72,73
 50 266 50 266 30 328 c 1,74,75
 30 490 30 490 166 630 c 0,76,77
 272 742 272 742 442 800 c 1,78,79
 598 760 598 760 670 718 c 0,80,81
 798 650 798 650 848 528 c 1,82,83
 848 454 848 454 829 388 c 128,-1,84
 810 322 810 322 764 240 c 1,85,86
 736 210 736 210 674 172 c 2,87,-1
 600 124 l 1,88,89
 712 100 712 100 841 90 c 128,-1,90
 970 80 970 80 1094 80 c 1,91,92
 1124 112 1124 112 1168 146 c 1,93,94
 1098 164 1098 164 1020 216 c 128,-1,95
 942 268 942 268 914 314 c 1,96,97
 908 354 908 354 908 394 c 0,98,99
 908 448 908 448 920 506 c 1,100,101
 980 614 980 614 1066 658 c 1,102,-1
 872 728 l 1,103,104
 722 790 722 790 678 874 c 1,105,-1
 674 918 l 1,106,107
 674 1046 674 1046 810 1202 c 1,108,109
 882 1224 882 1224 969 1236 c 128,-1,110
 1056 1248 1056 1248 1156 1248 c 0,111,112
 1358 1248 1358 1248 1568 1200 c 0,113,114
 1746 1160 1746 1160 1804 1120 c 1,0,1
1338 308 m 1,115,116
 1350 350 1350 350 1350 402 c 0,117,118
 1350 496 1350 496 1316 576 c 1,119,120
 1256 576 1256 576 1210 570 c 128,-1,121
 1164 564 1164 564 1122 548 c 1,122,123
 1066 472 1066 472 1066 400 c 0,124,125
 1066 384 1066 384 1068 376 c 2,126,-1
 1114 320 l 1,127,128
 1154 284 1154 284 1256 228 c 1,129,-1
 1338 308 l 1,115,116
338 308 m 1,130,131
 344 326 344 326 344 348 c 0,132,133
 344 392 344 392 318 446 c 1,134,-1
 264 450 l 1,135,-1
 224 456 l 1,136,137
 208 420 208 420 180 332 c 1,138,139
 202 276 202 276 272 276 c 0,140,141
 314 276 314 276 338 308 c 1,130,131
EndSplineSet
Ligature2: "'psts' Post Base Substitutions lookup 8 subtable" tm_ssa tm_ikaar
EndChar

StartChar: tm_s_ikaar
Encoding: 65563 -1 140
Width: 1716
GlyphClass: 2
Flags: W
LayerCount: 2
Fore
SplineSet
1898 1146 m 1,0,-1
 1860 1080 l 2,1,2
 1840 1042 1840 1042 1822 976 c 1,3,4
 1748 1042 1748 1042 1620 1096 c 128,-1,5
 1492 1150 1492 1150 1378 1162 c 1,6,7
 1162 1140 1162 1140 1064 1086 c 0,8,9
 994 1048 994 1048 978 990 c 1,10,-1
 968 928 l 1,11,12
 992 898 992 898 1170 806 c 0,13,14
 1372 702 1372 702 1480 626 c 0,15,16
 1648 504 1648 504 1686 378 c 1,17,18
 1602 40 1602 40 1318 -76 c 1,19,20
 1026 -22 1026 -22 926 120 c 1,21,22
 968 306 968 306 1024 472 c 1,23,-1
 1000 518 l 1,24,25
 978 546 978 546 938 566 c 1,26,27
 878 554 878 554 854 530 c 2,28,-1
 828 500 l 1,29,30
 812 384 812 384 810 366 c 0,31,32
 802 308 802 308 788 230 c 0,33,34
 778 156 778 156 776 112 c 128,-1,35
 774 68 774 68 774 18 c 1,36,37
 736 18 736 18 715 14 c 128,-1,38
 694 10 694 10 638 -6 c 1,39,40
 638 36 638 36 638 82 c 128,-1,41
 638 128 638 128 640 176 c 2,42,-1
 640 208 l 2,43,44
 640 320 640 320 628 456 c 1,45,46
 628 592 628 592 460 592 c 1,47,-1
 328 580 l 1,48,49
 290 534 290 534 220 428 c 1,50,51
 274 438 274 438 316 438 c 0,52,53
 384 438 384 438 421 416 c 128,-1,54
 458 394 458 394 492 318 c 0,55,56
 508 282 508 282 517 242 c 128,-1,57
 526 202 526 202 526 164 c 1,58,59
 520 110 520 110 434 48 c 1,60,-1
 290 -32 l 1,61,62
 220 -20 220 -20 136 74 c 128,-1,63
 52 168 52 168 34 282 c 1,64,-1
 30 384 l 1,65,66
 106 508 106 508 162 570 c 0,67,68
 294 714 294 714 474 780 c 1,69,70
 592 756 592 756 662 692 c 1,71,-1
 734 604 l 1,72,-1
 796 676 l 1,73,74
 842 716 842 716 924 736 c 1,75,76
 978 736 978 736 1068 672 c 0,77,78
 1170 600 1170 600 1206 516 c 1,79,-1
 1140 334 l 2,80,81
 1098 210 1098 210 1098 160 c 0,82,83
 1098 102 1098 102 1164 84 c 0,84,85
 1188 78 1188 78 1284 78 c 0,86,87
 1376 78 1376 78 1411 112 c 128,-1,88
 1446 146 1446 146 1468 238 c 0,89,90
 1480 292 1480 292 1480 332 c 0,91,92
 1480 354 1480 354 1478 364 c 0,93,94
 1424 486 1424 486 1278 598 c 0,95,96
 1190 664 1190 664 1004 768 c 0,97,98
 834 862 834 862 780 906 c 1,99,-1
 778 928 l 1,100,101
 778 980 778 980 810 1056 c 128,-1,102
 842 1132 842 1132 910 1200 c 1,103,104
 1060 1258 1060 1258 1292 1258 c 0,105,106
 1636 1258 1636 1258 1898 1146 c 1,0,-1
388 260 m 1,107,108
 366 326 366 326 248 326 c 1,109,110
 208 310 208 310 194 276 c 0,111,112
 190 266 190 266 188 258 c 128,-1,113
 186 250 186 250 186 234 c 0,114,115
 186 222 186 222 188 207 c 128,-1,116
 190 192 190 192 194 178 c 1,117,118
 236 124 236 124 284 124 c 0,119,120
 336 124 336 124 382 184 c 1,121,-1
 388 260 l 1,107,108
EndSplineSet
Ligature2: "'psts' Post Base Substitutions lookup 8 subtable" tm_sa tm_ikaar
EndChar

StartChar: tm_h_ikaar
Encoding: 65564 -1 141
Width: 1946
GlyphClass: 2
Flags: W
LayerCount: 2
Fore
SplineSet
2132 1164 m 1,0,1
 2106 1046 2106 1046 2086 994 c 1,2,3
 2018 1050 2018 1050 1884 1104 c 128,-1,4
 1750 1158 1750 1158 1626 1170 c 1,5,6
 1380 1146 1380 1146 1268 1048 c 1,7,8
 1236 988 1236 988 1236 946 c 2,9,-1
 1238 914 l 1,10,11
 1272 844 1272 844 1388 790 c 0,12,13
 1486 746 1486 746 1528 754 c 1,14,15
 1576 754 1576 754 1625 731 c 128,-1,16
 1674 708 1674 708 1738 658 c 0,17,18
 1836 580 1836 580 1886 484 c 1,19,20
 1892 454 1892 454 1896 426 c 128,-1,21
 1900 398 1900 398 1900 360 c 0,22,23
 1900 254 1900 254 1864 138 c 128,-1,24
 1828 22 1828 22 1772 -50 c 1,25,26
 1532 -234 1532 -234 894 -384 c 1,27,-1
 112 -548 l 1,28,29
 94 -436 94 -436 62 -366 c 1,30,31
 1132 -252 1132 -252 1572 -16 c 1,32,-1
 1642 54 l 1,33,34
 1714 156 1714 156 1756 364 c 1,35,36
 1756 490 1756 490 1560 570 c 1,37,38
 1466 494 1466 494 1408 366 c 0,39,40
 1360 252 1360 252 1360 134 c 0,41,42
 1360 100 1360 100 1363 69 c 128,-1,43
 1366 38 1366 38 1382 0 c 1,44,45
 1362 0 1362 0 1344 0 c 0,46,47
 1312 4 1312 4 1258 20 c 1,48,49
 1258 136 1258 136 1224 278 c 128,-1,50
 1190 420 1190 420 1150 452 c 1,51,52
 1086 348 1086 348 1086 124 c 0,53,54
 1086 96 1086 96 1086 70 c 128,-1,55
 1086 44 1086 44 1090 6 c 1,56,57
 970 -48 970 -48 860 -48 c 0,58,59
 814 -48 814 -48 767 -38 c 128,-1,60
 720 -28 720 -28 652 -2 c 0,61,62
 524 42 524 42 466 42 c 1,63,64
 410 18 410 18 312 -50 c 1,65,66
 282 -8 282 -8 210 64 c 1,67,68
 338 96 338 96 466 166 c 0,69,70
 614 248 614 248 682 352 c 1,71,-1
 690 410 l 1,72,-1
 696 474 l 1,73,74
 598 672 598 672 452 686 c 1,75,76
 420 680 420 680 387 664 c 128,-1,77
 354 648 354 648 312 616 c 0,78,79
 236 564 236 564 224 526 c 1,80,-1
 280 540 l 2,81,82
 304 548 304 548 342 548 c 0,83,84
 368 548 368 548 391 533 c 128,-1,85
 414 518 414 518 444 486 c 0,86,87
 494 430 494 430 494 370 c 0,88,89
 494 318 494 318 448 258 c 1,90,-1
 370 168 l 1,91,-1
 290 160 l 1,92,93
 118 160 118 160 34 276 c 1,94,-1
 30 318 l 1,95,96
 30 450 30 450 131 596 c 128,-1,97
 232 742 232 742 378 792 c 1,98,99
 446 792 446 792 514 777 c 128,-1,100
 582 762 582 762 658 724 c 0,101,102
 804 650 804 650 824 582 c 1,103,-1
 830 482 l 1,104,105
 830 366 830 366 810 304 c 1,106,107
 774 256 774 256 700 200 c 2,108,-1
 600 124 l 1,109,-1
 694 104 l 2,110,111
 728 98 728 98 757 94 c 128,-1,112
 786 90 786 90 810 90 c 0,113,114
 896 90 896 90 964 124 c 1,115,-1
 960 162 l 1,116,117
 960 262 960 262 988 403 c 128,-1,118
 1016 544 1016 544 1074 614 c 1,119,120
 1100 620 1100 620 1141 624 c 128,-1,121
 1182 628 1182 628 1244 628 c 1,122,123
 1264 554 1264 554 1280 498 c 128,-1,124
 1296 442 1296 442 1302 424 c 1,125,126
 1314 504 1314 504 1416 672 c 1,127,128
 1338 672 1338 672 1204 741 c 128,-1,129
 1070 810 1070 810 1046 880 c 1,130,131
 1046 940 1046 940 1051 978 c 128,-1,132
 1056 1016 1056 1016 1075 1063 c 128,-1,133
 1094 1110 1094 1110 1168 1202 c 1,134,135
 1370 1264 1370 1264 1588 1264 c 0,136,137
 1780 1264 1780 1264 1952 1224 c 0,138,139
 2088 1194 2088 1194 2132 1164 c 1,0,1
336 330 m 0,140,141
 336 438 336 438 262 446 c 1,142,143
 228 440 228 440 194 404 c 1,144,145
 170 370 170 370 166 336 c 1,146,147
 166 260 166 260 266 260 c 0,148,149
 304 260 304 260 314 268 c 0,150,151
 336 280 336 280 336 330 c 0,140,141
EndSplineSet
Ligature2: "'psts' Post Base Substitutions lookup 8 subtable" tm_ha tm_ikaar
EndChar

StartChar: tm_k_iikaar
Encoding: 65565 -1 142
Width: 1004
GlyphClass: 2
Flags: W
LayerCount: 2
Fore
SplineSet
974 142 m 1,0,1
 958 116 958 116 930 83 c 128,-1,2
 902 50 902 50 862 10 c 0,3,4
 786 -60 786 -60 748 -82 c 1,5,6
 692 -82 692 -82 590 -64 c 0,7,8
 558 -58 558 -58 486 -26 c 1,9,-1
 550 66 l 1,10,-1
 572 54 l 1,11,-1
 688 54 l 1,12,-1
 784 150 l 2,13,14
 786 154 786 154 786 204 c 2,15,-1
 786 236 l 2,16,17
 786 308 786 308 766 364 c 1,18,19
 732 394 732 394 652 394 c 0,20,21
 616 394 616 394 594 392 c 1,22,23
 584 338 584 338 575 300 c 128,-1,24
 566 262 566 262 548 200 c 0,25,26
 518 72 518 72 504 48 c 1,27,28
 380 -32 380 -32 286 -50 c 1,29,30
 160 4 160 4 95 93 c 128,-1,31
 30 182 30 182 30 304 c 1,32,33
 88 382 88 382 170 416 c 1,34,35
 164 432 164 432 164 482 c 0,36,37
 164 558 164 558 176 642 c 1,38,39
 204 670 204 670 334 718 c 1,40,41
 438 752 438 752 486 760 c 1,42,43
 308 786 308 786 208 856 c 1,44,45
 196 886 196 886 196 954 c 0,46,47
 196 1058 196 1058 220 1182 c 1,48,49
 374 1318 374 1318 582 1358 c 1,50,51
 754 1342 754 1342 894 1252 c 1,52,53
 914 1186 914 1186 914 1118 c 0,54,55
 914 1092 914 1092 913 1063 c 128,-1,56
 912 1034 912 1034 898 982 c 1,57,58
 732 888 732 888 646 888 c 1,59,-1
 622 890 l 1,60,61
 478 956 478 956 448 1086 c 1,62,63
 454 1124 454 1124 500 1172 c 2,64,-1
 564 1232 l 1,65,66
 518 1232 518 1232 453 1196 c 128,-1,67
 388 1160 388 1160 352 1106 c 1,68,69
 346 1066 346 1066 346 1030 c 0,70,71
 346 990 346 990 356 940 c 1,72,73
 464 840 464 840 670 810 c 1,74,75
 716 810 716 810 793 805 c 128,-1,76
 870 800 870 800 888 800 c 1,77,78
 900 712 900 712 900 672 c 1,79,80
 864 678 864 678 774 678 c 0,81,82
 678 678 678 678 620 652 c 1,83,-1
 612 534 l 1,84,-1
 802 526 l 1,85,86
 852 470 852 470 909 356 c 128,-1,87
 966 242 966 242 974 142 c 1,0,1
786 1098 m 0,88,89
 786 1134 786 1134 760 1162 c 128,-1,90
 734 1190 734 1190 696 1190 c 0,91,92
 674 1192 674 1192 635 1161 c 128,-1,93
 596 1130 596 1130 590 1096 c 1,94,95
 590 1056 590 1056 646 1024 c 0,96,97
 692 1000 692 1000 730 1006 c 1,98,99
 786 1038 786 1038 786 1098 c 0,88,89
406 504 m 1,100,101
 406 512 406 512 404 534 c 128,-1,102
 402 556 402 556 396 592 c 1,103,104
 354 592 354 592 320 564 c 1,105,106
 282 500 282 500 282 462 c 1,107,108
 316 470 316 470 406 504 c 1,100,101
410 358 m 1,109,110
 336 358 336 358 194 252 c 1,111,112
 186 238 186 238 197 184 c 128,-1,113
 208 130 208 130 224 118 c 1,114,-1
 368 86 l 1,115,116
 386 92 386 92 398 189 c 128,-1,117
 410 286 410 286 410 358 c 1,109,110
EndSplineSet
Ligature2: "'abvs' Above Base Substitutions lookup 6 subtable" tm_ka tm_iikaar
EndChar

StartChar: tm_ng_iikaar
Encoding: 65566 -1 143
Width: 1360
GlyphClass: 2
Flags: W
LayerCount: 2
Fore
SplineSet
1094 98 m 1,0,1
 1172 176 1172 176 1194 280 c 0,2,3
 1204 330 1204 330 1156 480 c 0,4,5
 1102 650 1102 650 1086 722 c 1,6,-1
 952 778 l 2,7,8
 808 838 808 838 752 912 c 1,9,-1
 750 972 l 1,10,11
 750 1192 750 1192 872 1370 c 1,12,-1
 1022 1430 l 1,13,14
 1066 1442 1066 1442 1115 1452 c 128,-1,15
 1164 1462 1164 1462 1208 1462 c 0,16,17
 1284 1462 1284 1462 1371 1416 c 128,-1,18
 1458 1370 1458 1370 1500 1316 c 1,19,20
 1512 1286 1512 1286 1512 1238 c 0,21,22
 1512 1162 1512 1162 1488 1104 c 1,23,24
 1458 1072 1458 1072 1382 1026 c 0,25,26
 1352 1010 1352 1010 1325 997 c 128,-1,27
 1298 984 1298 984 1270 974 c 1,28,29
 1226 984 1226 984 1193 996 c 128,-1,30
 1160 1008 1160 1008 1122 1032 c 0,31,32
 1032 1088 1032 1088 1024 1168 c 1,33,34
 1024 1210 1024 1210 1050 1250 c 2,35,-1
 1090 1310 l 1,36,-1
 992 1254 l 2,37,38
 922 1210 922 1210 902 1178 c 1,39,40
 890 1126 890 1126 890 1080 c 0,41,42
 890 986 890 986 944 916 c 0,43,44
 978 870 978 870 1042 840 c 1,45,-1
 1094 828 l 1,46,47
 1094 858 1094 858 1101 884 c 128,-1,48
 1108 910 1108 910 1124 940 c 1,49,-1
 1306 896 l 1,50,51
 1266 860 1266 860 1236 714 c 1,52,53
 1236 666 1236 666 1298 474 c 0,54,55
 1310 432 1310 432 1325 360 c 128,-1,56
 1340 288 1340 288 1340 242 c 1,57,58
 1298 64 1298 64 1124 -60 c 1,59,60
 1112 -58 1112 -58 1086 -58 c 2,61,-1
 1046 -58 l 2,62,63
 934 -58 934 -58 837 -29 c 128,-1,64
 740 0 740 0 718 0 c 0,65,66
 516 -30 516 -30 458 -56 c 1,67,68
 446 -20 446 -20 396 48 c 1,69,70
 406 64 406 64 560 94 c 2,71,-1
 736 130 l 1,72,73
 776 164 776 164 792 214 c 0,74,75
 798 236 798 236 798 260 c 256,76,77
 798 284 798 284 788 320 c 1,78,79
 754 344 754 344 705 354 c 128,-1,80
 656 364 656 364 586 364 c 1,81,82
 506 334 506 334 466 258 c 1,83,84
 460 236 460 236 458 215 c 128,-1,85
 456 194 456 194 456 174 c 0,86,87
 456 164 456 164 456 154 c 0,88,89
 460 142 460 142 460 138 c 2,90,-1
 314 92 l 1,91,-1
 328 548 l 1,92,93
 310 542 310 542 305 539 c 128,-1,94
 300 536 300 536 272 520 c 1,95,96
 192 406 192 406 170 196 c 1,97,-1
 162 4 l 1,98,-1
 56 16 l 1,99,100
 42 24 42 24 42 124 c 0,101,102
 42 416 42 416 158 642 c 1,103,104
 328 730 328 730 788 772 c 1,105,106
 812 696 812 696 812 672 c 1,107,108
 800 680 800 680 682 656 c 128,-1,109
 564 632 564 632 510 602 c 1,110,111
 474 524 474 524 474 412 c 1,112,-1
 550 472 l 2,113,114
 590 500 590 500 640 510 c 1,115,116
 718 510 718 510 780 489 c 128,-1,117
 842 468 842 468 896 428 c 1,118,119
 926 360 926 360 956 246 c 1,120,121
 956 224 956 224 903 163 c 128,-1,122
 850 102 850 102 826 94 c 1,123,124
 872 74 872 74 938 74 c 0,125,126
 1052 74 1052 74 1094 98 c 1,0,1
1354 1174 m 1,127,128
 1354 1210 1354 1210 1330 1276 c 1,129,130
 1306 1304 1306 1304 1268 1304 c 0,131,132
 1242 1304 1242 1304 1214 1286 c 1,133,134
 1184 1258 1184 1258 1184 1218 c 0,135,136
 1184 1196 1184 1196 1194 1162 c 1,137,138
 1226 1122 1226 1122 1274 1122 c 0,139,140
 1290 1122 1290 1122 1298 1124 c 0,141,142
 1328 1136 1328 1136 1354 1174 c 1,127,128
EndSplineSet
Ligature2: "'abvs' Above Base Substitutions lookup 6 subtable" tm_nga tm_iikaar
EndChar

StartChar: tm_c_iikaar
Encoding: 65567 -1 144
Width: 982
GlyphClass: 2
Flags: W
LayerCount: 2
Fore
SplineSet
968 552 m 1,0,1
 944 460 944 460 948 424 c 1,2,3
 872 424 872 424 809 416 c 128,-1,4
 746 408 746 408 644 384 c 1,5,6
 644 306 644 306 622 198 c 128,-1,7
 600 90 600 90 584 56 c 1,8,9
 442 -30 442 -30 300 -60 c 1,10,11
 140 0 140 0 72 98 c 1,12,13
 30 200 30 200 30 266 c 0,14,15
 30 302 30 302 42 342 c 1,16,17
 72 372 72 372 122 392 c 2,18,-1
 188 416 l 1,19,-1
 186 496 l 2,20,21
 186 590 186 590 210 684 c 1,22,23
 306 696 306 696 466 738 c 1,24,-1
 364 770 l 2,25,26
 240 812 240 812 194 856 c 1,27,28
 194 916 194 916 195 992 c 128,-1,29
 196 1068 196 1068 214 1140 c 1,30,31
 358 1254 358 1254 556 1320 c 1,32,33
 762 1302 762 1302 892 1216 c 1,34,35
 922 1138 922 1138 922 1062 c 0,36,37
 922 1008 922 1008 904 944 c 1,38,39
 866 916 866 916 784 879 c 128,-1,40
 702 842 702 842 634 842 c 1,41,42
 490 918 490 918 448 1036 c 1,43,44
 454 1082 454 1082 564 1184 c 1,45,46
 522 1184 522 1184 456 1151 c 128,-1,47
 390 1118 390 1118 352 1050 c 1,48,49
 352 968 352 968 406 894 c 1,50,51
 464 852 464 852 556 808 c 0,52,53
 640 770 640 770 670 772 c 0,54,55
 716 778 716 778 784 780 c 128,-1,56
 852 782 852 782 906 782 c 1,57,58
 902 764 902 764 900 740 c 128,-1,59
 898 716 898 716 898 700 c 0,60,61
 898 676 898 676 900 666 c 1,62,63
 886 672 886 672 650 634 c 1,64,65
 650 554 650 554 658 522 c 1,66,-1
 968 552 l 1,0,1
792 1064 m 1,67,68
 792 1096 792 1096 756 1126 c 0,69,70
 730 1146 730 1146 688 1146 c 1,71,72
 658 1142 658 1142 630 1109 c 128,-1,73
 602 1076 602 1076 602 1048 c 0,74,75
 602 1000 602 1000 676 972 c 0,76,77
 694 966 694 966 710 966 c 256,78,79
 726 966 726 966 744 973 c 128,-1,80
 762 980 762 980 780 1009 c 128,-1,81
 798 1038 798 1038 792 1064 c 1,67,68
448 484 m 1,82,83
 450 490 450 490 450 510 c 256,84,85
 450 530 450 530 450 552 c 1,86,87
 444 578 444 578 442 590 c 1,88,89
 434 588 434 588 411 583 c 128,-1,90
 388 578 388 578 346 564 c 1,91,92
 312 520 312 520 306 456 c 1,93,94
 368 456 368 456 448 484 c 1,82,83
466 132 m 1,95,96
 468 144 468 144 468 186 c 0,97,98
 468 224 468 224 467 259 c 128,-1,99
 466 294 466 294 466 326 c 2,100,-1
 466 352 l 1,101,102
 432 352 432 352 347 321 c 128,-1,103
 262 290 262 290 224 252 c 1,104,105
 224 214 224 214 226 200 c 128,-1,106
 228 186 228 186 242 138 c 1,107,108
 302 118 302 118 366 118 c 256,109,110
 430 118 430 118 466 132 c 1,95,96
EndSplineSet
Ligature2: "'abvs' Above Base Substitutions lookup 6 subtable" tm_ca tm_iikaar
EndChar

